<?xml version="1.0" encoding="UTF-8" standalone="no"?>
<svg
   xmlns:dc="http://purl.org/dc/elements/1.1/"
   xmlns:cc="http://creativecommons.org/ns#"
   xmlns:rdf="http://www.w3.org/1999/02/22-rdf-syntax-ns#"
   xmlns:svg="http://www.w3.org/2000/svg"
   xmlns="http://www.w3.org/2000/svg"
   xmlns:sodipodi="http://sodipodi.sourceforge.net/DTD/sodipodi-0.dtd"
   xmlns:inkscape="http://www.inkscape.org/namespaces/inkscape"
   version="1.1"
   viewBox="0 0 381.62205 64.18636"
   stroke-miterlimit="10"
   id="svg3336"
   inkscape:version="0.48.4 r9939"
   width="100%"
   height="100%"
   sodipodi:docname="Final Presentation.svg"
   style="fill:none;stroke:none">
  <metadata
     id="metadata3462">
    <rdf:RDF>
      <cc:Work
         rdf:about="">
        <dc:format>image/svg+xml</dc:format>
        <dc:type
           rdf:resource="http://purl.org/dc/dcmitype/StillImage" />
        <dc:title></dc:title>
      </cc:Work>
    </rdf:RDF>
  </metadata>
  <defs
     id="defs3460" />
  <sodipodi:namedview
     pagecolor="#ffffff"
     bordercolor="#666666"
     borderopacity="1"
     objecttolerance="10"
     gridtolerance="10"
     guidetolerance="10"
     inkscape:pageopacity="0"
     inkscape:pageshadow="2"
     inkscape:window-width="1920"
     inkscape:window-height="1014"
     id="namedview3458"
     showgrid="false"
     fit-margin-top="0"
     fit-margin-left="0"
     fit-margin-right="0"
     fit-margin-bottom="0"
     inkscape:zoom="1.1236111"
     inkscape:cx="190.81104"
     inkscape:cy="-100.6011"
     inkscape:window-x="0"
     inkscape:window-y="27"
     inkscape:window-maximized="1"
     inkscape:current-layer="g3341" />
  <clipPath
     id="g61573d540_0212.0">
    <path
       d="M 0,0 960,0 960,720 0,720 0,0 z"
       clip-rule="nonzero"
       id="path3339"
       inkscape:connector-curvature="0" />
  </clipPath>
  <g
     clip-path="url(#g61573d540_0212.0)"
     id="g3341"
     transform="translate(-289.18896,-463.46982)">
    <path
       d="m 58.84777,152.10524 820.31494,0 0,519.9055 -820.31494,0 z"
       id="path3368"
       inkscape:connector-curvature="0"
       style="fill:#000000;fill-opacity:0;fill-rule:nonzero" />
    <path
       d="m 474.71655,463.46982 86.64569,0 0,33.13385 -86.64569,0 z"
       id="path3404"
       inkscape:connector-curvature="0"
       style="fill:#000000;fill-opacity:0;fill-rule:nonzero" />
    <path
       d="m 484.41968,482.06418 q 0,-1.01562 0.35938,-2.03125 0.35937,-1.01562 1.04687,-1.8125 0.6875,-0.8125 1.6875,-1.3125 1.01563,-0.5 2.29688,-0.5 1.51562,0 2.59375,0.6875 1.07812,0.6875 1.59375,1.79688 l -0.89063,0.53125 q -0.26562,-0.54688 -0.65625,-0.9375 -0.375,-0.39063 -0.82812,-0.625 -0.45313,-0.23438 -0.9375,-0.34375 -0.46875,-0.10938 -0.9375,-0.10938 -1.01563,0 -1.8125,0.42188 -0.78125,0.42187 -1.3125,1.09375 -0.53125,0.67187 -0.8125,1.51562 -0.26563,0.82813 -0.26563,1.6875 0,0.95313 0.32813,1.8125 0.32812,0.85938 0.89062,1.53125 0.5625,0.65625 1.34375,1.0625 0.78125,0.39063 1.6875,0.39063 0.48438,0 0.98438,-0.125 0.5,-0.125 0.96875,-0.39063 0.48437,-0.26562 0.875,-0.65625 0.40625,-0.39062 0.67187,-0.95312 l 0.9375,0.48437 q -0.28125,0.64063 -0.78125,1.14063 -0.48437,0.48437 -1.09375,0.82812 -0.60937,0.32813 -1.29687,0.5 -0.67188,0.17188 -1.32813,0.17188 -1.17187,0 -2.15625,-0.5 -0.96875,-0.51563 -1.67187,-1.34375 -0.70313,-0.82813 -1.09375,-1.875 -0.39063,-1.04688 -0.39063,-2.14063 z m 11.53964,-5.92187 1.07813,0 0,9.79687 q 0,0.46875 0.25,0.73438 0.26562,0.26562 0.73437,0.26562 0.17188,0 0.40625,-0.0469 0.25,-0.0469 0.45313,-0.14063 l 0.20312,0.89063 q -0.3125,0.125 -0.75,0.20312 -0.4375,0.0781 -0.76562,0.0781 -0.75,0 -1.1875,-0.42188 -0.42188,-0.42187 -0.42188,-1.1875 l 0,-10.17187 z m 6.75528,11.84375 q -1.3125,0 -1.98437,-0.89063 -0.67188,-0.90625 -0.67188,-2.70312 l 0,-4.90625 1.07813,0 0,4.71875 q 0,2.82812 1.9375,2.82812 0.48437,0 0.9375,-0.15625 0.46875,-0.17187 0.85937,-0.46875 0.39063,-0.3125 0.70313,-0.71875 0.3125,-0.42187 0.51562,-0.95312 l 0,-5.25 1.07813,0 0,6.9375 q 0,0.45312 0.40625,0.45312 l 0,0.95313 q -0.32813,0.0469 -0.45313,0.0469 -0.35937,0 -0.625,-0.21875 -0.26562,-0.23437 -0.26562,-0.5625 l 0,-1.15625 q -0.5625,0.98438 -1.5,1.51563 -0.92188,0.53125 -2.01563,0.53125 z m 9.72278,0 q -0.98441,0 -1.90628,-0.3125 -0.92188,-0.32813 -1.59375,-0.9375 l 0.48437,-0.73438 q 0.70313,0.57813 1.4375,0.875 0.73438,0.28125 1.56253,0.28125 1,0 1.59375,-0.40625 0.60938,-0.40625 0.60938,-1.15625 0,-0.35937 -0.15625,-0.59375 -0.15625,-0.23437 -0.46875,-0.40625 -0.3125,-0.17187 -0.79688,-0.3125 -0.46875,-0.14062 -1.09375,-0.28125 -0.71878,-0.17187 -1.25003,-0.34375 -0.51562,-0.1875 -0.85937,-0.40625 -0.34375,-0.21875 -0.51563,-0.54687 -0.17187,-0.32813 -0.17187,-0.82813 0,-0.625 0.25,-1.09375 0.25,-0.48437 0.67187,-0.79687 0.42188,-0.3125 0.98438,-0.46875 0.57812,-0.17188 1.21878,-0.17188 0.95312,0 1.73437,0.3125 0.79688,0.3125 1.26563,0.82813 l -0.51563,0.64062 q -0.46875,-0.48437 -1.14062,-0.71875 -0.65625,-0.23437 -1.375,-0.23437 -0.43753,0 -0.81253,0.0937 -0.35938,0.0781 -0.64063,0.26562 -0.28125,0.1875 -0.4375,0.48438 -0.15625,0.29687 -0.15625,0.70312 0,0.32813 0.10938,0.54688 0.10937,0.20312 0.35937,0.35937 0.26563,0.14063 0.65625,0.26563 0.39063,0.125 0.95316,0.25 0.79687,0.1875 1.40625,0.39062 0.60937,0.1875 1.01562,0.45313 0.40625,0.25 0.60938,0.625 0.21875,0.35937 0.21875,0.875 0,1.15625 -0.89063,1.82812 -0.875,0.67188 -2.35937,0.67188 z m 9.02637,-0.5625 q -0.0937,0.0469 -0.28125,0.14062 -0.1875,0.0781 -0.4375,0.15625 -0.23438,0.0781 -0.54688,0.14063 -0.29687,0.0625 -0.625,0.0625 -0.35937,0 -0.6875,-0.0937 -0.3125,-0.0937 -0.54687,-0.29688 -0.23438,-0.20312 -0.39063,-0.5 -0.14062,-0.3125 -0.14062,-0.70312 l 0,-5.96875 -1.14063,0 0,-0.875 1.14063,0 0,-2.8125 1.09375,0 0,2.8125 1.92187,0 0,0.875 -1.92187,0 0,5.65625 q 0.0312,0.46875 0.3125,0.6875 0.29687,0.21875 0.6875,0.21875 0.46875,0 0.8125,-0.15625 0.35937,-0.15625 0.45312,-0.21875 l 0.29688,0.875 z m 4.92138,0.5625 q -0.90625,0 -1.67187,-0.34375 -0.76563,-0.34375 -1.32813,-0.9375 -0.5625,-0.60938 -0.875,-1.39063 -0.3125,-0.78125 -0.3125,-1.67187 0,-0.89063 0.3125,-1.65625 0.3125,-0.78125 0.875,-1.35938 0.5625,-0.59375 1.3125,-0.9375 0.76563,-0.34375 1.67188,-0.34375 0.92187,0 1.67187,0.34375 0.76563,0.34375 1.29688,0.9375 0.54687,0.59375 0.84375,1.35938 0.3125,0.76562 0.3125,1.64062 0,0.125 -0.0156,0.25 0,0.125 -0.0156,0.17188 l -7.10938,0 q 0.0469,0.67187 0.3125,1.25 0.26563,0.5625 0.67188,0.98437 0.40625,0.40625 0.9375,0.64063 0.53125,0.23437 1.14062,0.23437 0.42188,0 0.8125,-0.10937 0.40625,-0.10938 0.73438,-0.29688 0.34375,-0.20312 0.60937,-0.48437 0.26563,-0.28125 0.40625,-0.60938 l 0.95313,0.25 q -0.20313,0.46875 -0.5625,0.84375 -0.34375,0.375 -0.8125,0.65625 -0.45313,0.28125 -1.01563,0.42188 -0.5625,0.15625 -1.15625,0.15625 z m 3.07813,-4.76563 q -0.0469,-0.67187 -0.3125,-1.21875 -0.26563,-0.5625 -0.67188,-0.95312 -0.40625,-0.40625 -0.95312,-0.625 -0.54688,-0.21875 -1.15625,-0.21875 -0.60938,0 -1.15625,0.21875 -0.53125,0.21875 -0.95313,0.625 -0.40625,0.39062 -0.65625,0.95312 -0.23437,0.5625 -0.28125,1.21875 l 6.14063,0 z m 6.82953,-2.76562 q -1.10938,0.0312 -1.92188,0.60937 -0.8125,0.57813 -1.15625,1.57813 l 0,5.1875 -1.07812,0 0,-8.34375 1.01562,0 0,2 q 0.4375,-0.875 1.14063,-1.45313 0.70312,-0.59375 1.51562,-0.59375 0.14063,0 0.26563,0 0.14062,0 0.21875,0.0156 l 0,1 z m 10.88391,6.39062 0,0.98438 -5.42188,0 0,-0.98438 2.26563,0 0,-6.85937 q -0.14063,0.20312 -0.45313,0.42187 -0.29687,0.21875 -0.67187,0.42188 -0.375,0.1875 -0.78125,0.3125 -0.39063,0.125 -0.70313,0.125 l 0,-1.04688 q 0.375,0 0.8125,-0.20312 0.4375,-0.21875 0.82813,-0.48438 0.39062,-0.28125 0.65625,-0.51562 0.28125,-0.25 0.3125,-0.32813 l 1.125,0 0,8.15625 2.03125,0 z"
       id="path3406"
       inkscape:connector-curvature="0"
       style="fill:#000000;fill-rule:nonzero" />
    <path
       d="m 585.9921,463.46982 84.81891,0 0,33.13385 -84.81891,0 z"
       id="path3408"
       inkscape:connector-curvature="0"
       style="fill:#000000;fill-opacity:0;fill-rule:nonzero" />
    <path
       d="m 595.69525,482.06418 q 0,-1.01562 0.35937,-2.03125 0.35938,-1.01562 1.04688,-1.8125 0.6875,-0.8125 1.6875,-1.3125 1.01562,-0.5 2.29687,-0.5 1.51563,0 2.59375,0.6875 1.07813,0.6875 1.59375,1.79688 l -0.89062,0.53125 q -0.26563,-0.54688 -0.65625,-0.9375 -0.375,-0.39063 -0.82813,-0.625 -0.45312,-0.23438 -0.9375,-0.34375 -0.46875,-0.10938 -0.9375,-0.10938 -1.01562,0 -1.8125,0.42188 -0.78125,0.42187 -1.3125,1.09375 -0.53125,0.67187 -0.8125,1.51562 -0.26562,0.82813 -0.26562,1.6875 0,0.95313 0.32812,1.8125 0.32813,0.85938 0.89063,1.53125 0.5625,0.65625 1.34375,1.0625 0.78125,0.39063 1.6875,0.39063 0.48437,0 0.98437,-0.125 0.5,-0.125 0.96875,-0.39063 0.48438,-0.26562 0.875,-0.65625 0.40625,-0.39062 0.67188,-0.95312 l 0.9375,0.48437 q -0.28125,0.64063 -0.78125,1.14063 -0.48438,0.48437 -1.09375,0.82812 -0.60938,0.32813 -1.29688,0.5 -0.67187,0.17188 -1.32812,0.17188 -1.17188,0 -2.15625,-0.5 -0.96875,-0.51563 -1.67188,-1.34375 -0.70312,-0.82813 -1.09375,-1.875 -0.39062,-1.04688 -0.39062,-2.14063 z m 11.53961,-5.92187 1.07813,0 0,9.79687 q 0,0.46875 0.25,0.73438 0.26562,0.26562 0.73437,0.26562 0.17188,0 0.40625,-0.0469 0.25,-0.0469 0.45313,-0.14063 l 0.20312,0.89063 q -0.3125,0.125 -0.75,0.20312 -0.4375,0.0781 -0.76562,0.0781 -0.75,0 -1.1875,-0.42188 -0.42188,-0.42187 -0.42188,-1.1875 l 0,-10.17187 z m 6.75531,11.84375 q -1.3125,0 -1.98437,-0.89063 -0.67188,-0.90625 -0.67188,-2.70312 l 0,-4.90625 1.07813,0 0,4.71875 q 0,2.82812 1.9375,2.82812 0.48437,0 0.9375,-0.15625 0.46875,-0.17187 0.85937,-0.46875 0.39063,-0.3125 0.70313,-0.71875 0.3125,-0.42187 0.51562,-0.95312 l 0,-5.25 1.07813,0 0,6.9375 q 0,0.45312 0.40625,0.45312 l 0,0.95313 q -0.32813,0.0469 -0.45313,0.0469 -0.35937,0 -0.625,-0.21875 -0.26562,-0.23437 -0.26562,-0.5625 l 0,-1.15625 q -0.5625,0.98438 -1.5,1.51563 -0.92188,0.53125 -2.01563,0.53125 z m 9.72272,0 q -0.98438,0 -1.90625,-0.3125 -0.92188,-0.32813 -1.59375,-0.9375 l 0.48437,-0.73438 q 0.70313,0.57813 1.4375,0.875 0.73438,0.28125 1.5625,0.28125 1,0 1.59375,-0.40625 0.60938,-0.40625 0.60938,-1.15625 0,-0.35937 -0.15625,-0.59375 -0.15625,-0.23437 -0.46875,-0.40625 -0.3125,-0.17187 -0.79688,-0.3125 -0.46875,-0.14062 -1.09375,-0.28125 -0.71875,-0.17187 -1.25,-0.34375 -0.51562,-0.1875 -0.85937,-0.40625 -0.34375,-0.21875 -0.51563,-0.54687 -0.17187,-0.32813 -0.17187,-0.82813 0,-0.625 0.25,-1.09375 0.25,-0.48437 0.67187,-0.79687 0.42188,-0.3125 0.98438,-0.46875 0.57812,-0.17188 1.21875,-0.17188 0.95312,0 1.73437,0.3125 0.79688,0.3125 1.26563,0.82813 l -0.51563,0.64062 q -0.46875,-0.48437 -1.14062,-0.71875 -0.65625,-0.23437 -1.375,-0.23437 -0.4375,0 -0.8125,0.0937 -0.35938,0.0781 -0.64063,0.26562 -0.28125,0.1875 -0.4375,0.48438 -0.15625,0.29687 -0.15625,0.70312 0,0.32813 0.10938,0.54688 0.10937,0.20312 0.35937,0.35937 0.26563,0.14063 0.65625,0.26563 0.39063,0.125 0.95313,0.25 0.79687,0.1875 1.40625,0.39062 0.60937,0.1875 1.01562,0.45313 0.40625,0.25 0.60938,0.625 0.21875,0.35937 0.21875,0.875 0,1.15625 -0.89063,1.82812 -0.875,0.67188 -2.35937,0.67188 z m 9.02643,-0.5625 q -0.0937,0.0469 -0.28125,0.14062 -0.1875,0.0781 -0.4375,0.15625 -0.23438,0.0781 -0.54688,0.14063 -0.29687,0.0625 -0.625,0.0625 -0.35937,0 -0.6875,-0.0937 -0.3125,-0.0937 -0.54687,-0.29688 -0.23438,-0.20312 -0.39063,-0.5 -0.14062,-0.3125 -0.14062,-0.70312 l 0,-5.96875 -1.14063,0 0,-0.875 1.14063,0 0,-2.8125 1.09375,0 0,2.8125 1.92187,0 0,0.875 -1.92187,0 0,5.65625 q 0.0312,0.46875 0.3125,0.6875 0.29687,0.21875 0.6875,0.21875 0.46875,0 0.8125,-0.15625 0.35937,-0.15625 0.45312,-0.21875 l 0.29688,0.875 z m 4.92138,0.5625 q -0.90625,0 -1.67187,-0.34375 -0.76563,-0.34375 -1.32813,-0.9375 -0.5625,-0.60938 -0.875,-1.39063 -0.3125,-0.78125 -0.3125,-1.67187 0,-0.89063 0.3125,-1.65625 0.3125,-0.78125 0.875,-1.35938 0.5625,-0.59375 1.3125,-0.9375 0.76563,-0.34375 1.67188,-0.34375 0.92187,0 1.67187,0.34375 0.76563,0.34375 1.29688,0.9375 0.54687,0.59375 0.84375,1.35938 0.3125,0.76562 0.3125,1.64062 0,0.125 -0.0156,0.25 0,0.125 -0.0156,0.17188 l -7.10938,0 q 0.0469,0.67187 0.3125,1.25 0.26563,0.5625 0.67188,0.98437 0.40625,0.40625 0.9375,0.64063 0.53125,0.23437 1.14062,0.23437 0.42188,0 0.8125,-0.10937 0.40625,-0.10938 0.73438,-0.29688 0.34375,-0.20312 0.60937,-0.48437 0.26563,-0.28125 0.40625,-0.60938 l 0.95313,0.25 q -0.20313,0.46875 -0.5625,0.84375 -0.34375,0.375 -0.8125,0.65625 -0.45313,0.28125 -1.01563,0.42188 -0.5625,0.15625 -1.15625,0.15625 z m 3.07813,-4.76563 q -0.0469,-0.67187 -0.3125,-1.21875 -0.26563,-0.5625 -0.67188,-0.95312 -0.40625,-0.40625 -0.95312,-0.625 -0.54688,-0.21875 -1.15625,-0.21875 -0.60938,0 -1.15625,0.21875 -0.53125,0.21875 -0.95313,0.625 -0.40625,0.39062 -0.65625,0.95312 -0.23437,0.5625 -0.28125,1.21875 l 6.14063,0 z m 6.82953,-2.76562 q -1.10938,0.0312 -1.92188,0.60937 -0.8125,0.57813 -1.15625,1.57813 l 0,5.1875 -1.07812,0 0,-8.34375 1.01562,0 0,2 q 0.4375,-0.875 1.14063,-1.45313 0.70312,-0.59375 1.51562,-0.59375 0.14063,0 0.26563,0 0.14062,0 0.21875,0.0156 l 0,1 z m 5.19635,7.375 q 0,-0.59375 0.10937,-1.15625 0.10938,-0.57813 0.39063,-1.09375 0.29687,-0.53125 0.8125,-1.01563 0.53125,-0.5 1.34375,-0.92187 0.4375,-0.23438 0.9375,-0.45313 0.5,-0.23437 0.9375,-0.51562 0.4375,-0.29688 0.71875,-0.64063 0.28125,-0.35937 0.28125,-0.84375 0,-0.29687 -0.14063,-0.59375 -0.14062,-0.3125 -0.40625,-0.54687 -0.26562,-0.25 -0.65625,-0.39063 -0.39062,-0.14062 -0.90625,-0.14062 -0.51562,0 -0.95312,0.15625 -0.42188,0.14062 -0.75,0.35937 -0.3125,0.20313 -0.53125,0.4375 -0.20313,0.21875 -0.3125,0.375 l -0.73438,-0.79687 q 0.10938,-0.0937 0.375,-0.34375 0.26563,-0.26563 0.70313,-0.51563 0.45312,-0.25 1.04687,-0.45312 0.60938,-0.20313 1.35938,-0.20313 0.71875,0 1.28125,0.20313 0.5625,0.20312 0.96875,0.5625 0.40625,0.34375 0.60937,0.79687 0.20313,0.45313 0.20313,0.96875 0,0.67188 -0.3125,1.15625 -0.3125,0.48438 -0.76563,0.84375 -0.4375,0.34375 -0.90625,0.57813 -0.46875,0.21875 -0.78125,0.35937 -0.71875,0.32813 -1.20312,0.64063 -0.46875,0.29687 -0.78125,0.625 -0.29688,0.3125 -0.45313,0.70312 -0.15625,0.375 -0.21875,0.875 l 5.60938,0 0,0.98438 -6.875,0 z"
       id="path3410"
       inkscape:connector-curvature="0"
       style="fill:#000000;fill-rule:nonzero" />
    <path
       d="m 290.3226,463.46982 84.81891,0 0,33.13385 -84.81891,0 z"
       id="path3412"
       inkscape:connector-curvature="0"
       style="fill:#000000;fill-opacity:0;fill-rule:nonzero" />
    <path
       d="m 300.02573,482.06418 q 0,-1.01562 0.35937,-2.03125 0.35938,-1.01562 1.04688,-1.8125 0.6875,-0.8125 1.6875,-1.3125 1.01562,-0.5 2.29687,-0.5 1.51563,0 2.59375,0.6875 1.07813,0.6875 1.59375,1.79688 l -0.89062,0.53125 q -0.26563,-0.54688 -0.65625,-0.9375 -0.375,-0.39063 -0.82813,-0.625 -0.45312,-0.23438 -0.9375,-0.34375 -0.46875,-0.10938 -0.9375,-0.10938 -1.01562,0 -1.8125,0.42188 -0.78125,0.42187 -1.3125,1.09375 -0.53125,0.67187 -0.8125,1.51562 -0.26562,0.82813 -0.26562,1.6875 0,0.95313 0.32812,1.8125 0.32813,0.85938 0.89063,1.53125 0.5625,0.65625 1.34375,1.0625 0.78125,0.39063 1.6875,0.39063 0.48437,0 0.98437,-0.125 0.5,-0.125 0.96875,-0.39063 0.48438,-0.26562 0.875,-0.65625 0.40625,-0.39062 0.67188,-0.95312 l 0.9375,0.48437 q -0.28125,0.64063 -0.78125,1.14063 -0.48438,0.48437 -1.09375,0.82812 -0.60938,0.32813 -1.29688,0.5 -0.67187,0.17188 -1.32812,0.17188 -1.17188,0 -2.15625,-0.5 -0.96875,-0.51563 -1.67188,-1.34375 -0.70312,-0.82813 -1.09375,-1.875 -0.39062,-1.04688 -0.39062,-2.14063 z m 11.53964,-5.92187 1.07813,0 0,9.79687 q 0,0.46875 0.25,0.73438 0.26562,0.26562 0.73437,0.26562 0.17188,0 0.40625,-0.0469 0.25,-0.0469 0.45313,-0.14063 l 0.20312,0.89063 q -0.3125,0.125 -0.75,0.20312 -0.4375,0.0781 -0.76562,0.0781 -0.75,0 -1.1875,-0.42188 -0.42188,-0.42187 -0.42188,-1.1875 l 0,-10.17187 z m 6.75528,11.84375 q -1.3125,0 -1.98437,-0.89063 -0.67188,-0.90625 -0.67188,-2.70312 l 0,-4.90625 1.07813,0 0,4.71875 q 0,2.82812 1.9375,2.82812 0.48437,0 0.9375,-0.15625 0.46875,-0.17187 0.85937,-0.46875 0.39063,-0.3125 0.70313,-0.71875 0.3125,-0.42187 0.51562,-0.95312 l 0,-5.25 1.07813,0 0,6.9375 q 0,0.45312 0.40625,0.45312 l 0,0.95313 q -0.32813,0.0469 -0.45313,0.0469 -0.35937,0 -0.625,-0.21875 -0.26562,-0.23437 -0.26562,-0.5625 l 0,-1.15625 q -0.5625,0.98438 -1.5,1.51563 -0.92188,0.53125 -2.01563,0.53125 z m 9.72275,0 q -0.98438,0 -1.90625,-0.3125 -0.92188,-0.32813 -1.59375,-0.9375 l 0.48437,-0.73438 q 0.70313,0.57813 1.4375,0.875 0.73438,0.28125 1.5625,0.28125 1,0 1.59375,-0.40625 0.60938,-0.40625 0.60938,-1.15625 0,-0.35937 -0.15625,-0.59375 -0.15625,-0.23437 -0.46875,-0.40625 -0.3125,-0.17187 -0.79688,-0.3125 -0.46875,-0.14062 -1.09375,-0.28125 -0.71875,-0.17187 -1.25,-0.34375 -0.51562,-0.1875 -0.85937,-0.40625 -0.34375,-0.21875 -0.51563,-0.54687 -0.17187,-0.32813 -0.17187,-0.82813 0,-0.625 0.25,-1.09375 0.25,-0.48437 0.67187,-0.79687 0.42188,-0.3125 0.98438,-0.46875 0.57812,-0.17188 1.21875,-0.17188 0.95312,0 1.73437,0.3125 0.79688,0.3125 1.26563,0.82813 l -0.51563,0.64062 q -0.46875,-0.48437 -1.14062,-0.71875 -0.65625,-0.23437 -1.375,-0.23437 -0.4375,0 -0.8125,0.0937 -0.35938,0.0781 -0.64063,0.26562 -0.28125,0.1875 -0.4375,0.48438 -0.15625,0.29687 -0.15625,0.70312 0,0.32813 0.10938,0.54688 0.10937,0.20312 0.35937,0.35937 0.26563,0.14063 0.65625,0.26563 0.39063,0.125 0.95313,0.25 0.79687,0.1875 1.40625,0.39062 0.60937,0.1875 1.01562,0.45313 0.40625,0.25 0.60938,0.625 0.21875,0.35937 0.21875,0.875 0,1.15625 -0.89063,1.82812 -0.875,0.67188 -2.35937,0.67188 z m 9.0264,-0.5625 q -0.0937,0.0469 -0.28125,0.14062 -0.1875,0.0781 -0.4375,0.15625 -0.23438,0.0781 -0.54688,0.14063 -0.29687,0.0625 -0.625,0.0625 -0.35937,0 -0.6875,-0.0937 -0.3125,-0.0937 -0.54687,-0.29688 -0.23438,-0.20312 -0.39063,-0.5 -0.14062,-0.3125 -0.14062,-0.70312 l 0,-5.96875 -1.14063,0 0,-0.875 1.14063,0 0,-2.8125 1.09375,0 0,2.8125 1.92187,0 0,0.875 -1.92187,0 0,5.65625 q 0.0312,0.46875 0.3125,0.6875 0.29687,0.21875 0.6875,0.21875 0.46875,0 0.8125,-0.15625 0.35937,-0.15625 0.45312,-0.21875 l 0.29688,0.875 z m 4.92138,0.5625 q -0.90625,0 -1.67187,-0.34375 -0.76563,-0.34375 -1.32813,-0.9375 -0.5625,-0.60938 -0.875,-1.39063 -0.3125,-0.78125 -0.3125,-1.67187 0,-0.89063 0.3125,-1.65625 0.3125,-0.78125 0.875,-1.35938 0.5625,-0.59375 1.3125,-0.9375 0.76563,-0.34375 1.67188,-0.34375 0.92187,0 1.67187,0.34375 0.76563,0.34375 1.29688,0.9375 0.54687,0.59375 0.84375,1.35938 0.3125,0.76562 0.3125,1.64062 0,0.125 -0.0156,0.25 0,0.125 -0.0156,0.17188 l -7.10938,0 q 0.0469,0.67187 0.3125,1.25 0.26563,0.5625 0.67188,0.98437 0.40625,0.40625 0.9375,0.64063 0.53125,0.23437 1.14062,0.23437 0.42188,0 0.8125,-0.10937 0.40625,-0.10938 0.73438,-0.29688 0.34375,-0.20312 0.60937,-0.48437 0.26563,-0.28125 0.40625,-0.60938 l 0.95313,0.25 q -0.20313,0.46875 -0.5625,0.84375 -0.34375,0.375 -0.8125,0.65625 -0.45313,0.28125 -1.01563,0.42188 -0.5625,0.15625 -1.15625,0.15625 z m 3.07813,-4.76563 q -0.0469,-0.67187 -0.3125,-1.21875 -0.26563,-0.5625 -0.67188,-0.95312 -0.40625,-0.40625 -0.95312,-0.625 -0.54688,-0.21875 -1.15625,-0.21875 -0.60938,0 -1.15625,0.21875 -0.53125,0.21875 -0.95313,0.625 -0.40625,0.39062 -0.65625,0.95312 -0.23437,0.5625 -0.28125,1.21875 l 6.14063,0 z m 6.82953,-2.76562 q -1.10938,0.0312 -1.92188,0.60937 -0.8125,0.57813 -1.15625,1.57813 l 0,5.1875 -1.07812,0 0,-8.34375 1.01562,0 0,2 q 0.4375,-0.875 1.14063,-1.45313 0.70312,-0.59375 1.51562,-0.59375 0.14063,0 0.26563,0 0.14062,0 0.21875,0.0156 l 0,1 z m 9.88388,3.59375 q 1.0625,0.1875 1.6875,0.96875 0.64062,0.78125 0.64062,1.9375 0,0.71875 -0.26562,1.3125 -0.26563,0.60937 -0.76563,1.03125 -0.48437,0.42187 -1.17187,0.65625 -0.67188,0.23437 -1.5,0.23437 -1.21875,0 -2.125,-0.5 -0.90625,-0.48437 -1.375,-1.34375 l 0.75,-0.6875 q 0.34375,0.70313 1.03125,1.10938 0.6875,0.42187 1.71875,0.42187 1.20312,0 1.89062,-0.59375 0.6875,-0.57812 0.6875,-1.65625 0,-1.10937 -0.71875,-1.75 -0.71875,-0.64062 -2.07812,-0.64062 l -0.40625,0 0,-0.92188 0.4375,0 q 1.23437,0 1.89062,-0.57812 0.65625,-0.57813 0.65625,-1.48438 0,-0.48437 -0.1875,-0.84375 -0.17187,-0.35937 -0.48437,-0.60937 -0.3125,-0.25 -0.73438,-0.375 -0.42187,-0.125 -0.92187,-0.125 -0.90625,0 -1.60938,0.40625 -0.6875,0.40625 -1.04687,1.125 l -0.70313,-0.67188 q 0.1875,-0.42187 0.54688,-0.76562 0.35937,-0.34375 0.79687,-0.57813 0.45313,-0.23437 1,-0.375 0.54688,-0.14062 1.10938,-0.14062 0.73437,0 1.34375,0.21875 0.625,0.20312 1.07812,0.57812 0.45313,0.375 0.6875,0.90625 0.25,0.53125 0.25,1.15625 0,0.48438 -0.14062,0.9375 -0.14063,0.4375 -0.42188,0.78125 -0.26562,0.34375 -0.65625,0.57813 -0.39062,0.21875 -0.89062,0.28125 z"
       id="path3414"
       inkscape:connector-curvature="0"
       style="fill:#000000;fill-rule:nonzero" />
    <path
       d="m 372.80988,494.5223 50.51968,0 0,33.13388 -50.51968,0 z"
       id="path3416"
       inkscape:connector-curvature="0"
       style="fill:#000000;fill-opacity:0;fill-rule:nonzero" />
    <path
       d="m 385.18488,519.0386 q -0.64062,0 -1.17187,-0.1875 -0.51563,-0.20313 -0.90625,-0.54688 -0.375,-0.35937 -0.57813,-0.82812 -0.20312,-0.46875 -0.20312,-0.98438 0,-0.5625 0.25,-1.03125 0.26562,-0.48437 0.71875,-0.8125 0.46875,-0.34375 1.10937,-0.51562 0.65625,-0.1875 1.4375,-0.1875 0.625,0 1.28125,0.10937 0.65625,0.10938 1.17188,0.3125 l 0,-0.75 q 0,-1.10937 -0.64063,-1.75 -0.625,-0.64062 -1.70312,-0.64062 -0.67188,0 -1.34375,0.25 -0.65625,0.25 -1.34375,0.73437 l -0.375,-0.71875 q 0.8125,-0.54687 1.57812,-0.8125 0.76563,-0.28125 1.59375,-0.28125 1.53125,0 2.42188,0.89063 0.89062,0.875 0.89062,2.42187 l 0,3.76563 q 0,0.45312 0.39063,0.45312 l 0,0.95313 q -0.125,0.0156 -0.25,0.0156 -0.10938,0.0156 -0.1875,0.0156 -0.3125,0 -0.57813,-0.1875 -0.26562,-0.20313 -0.29687,-0.57813 l -0.0312,-0.65625 q -0.54688,0.73438 -1.4375,1.14063 -0.89063,0.40625 -1.79688,0.40625 z m 0.26563,-0.82813 q 0.73437,0 1.4375,-0.3125 0.71875,-0.3125 1.125,-0.85937 0.10937,-0.14063 0.1875,-0.29688 0.0937,-0.17187 0.0937,-0.32812 l 0,-1.35938 q -0.54688,-0.20312 -1.14063,-0.3125 -0.59375,-0.10937 -1.15625,-0.10937 -1.15625,0 -1.89062,0.46875 -0.73438,0.46875 -0.73438,1.29687 0,0.34375 0.125,0.67188 0.14063,0.3125 0.40625,0.57812 0.26563,0.25 0.64063,0.40625 0.39062,0.15625 0.90625,0.15625 z m 8.78363,0.67188 -3.39063,-8.34375 1.14063,0 2.85937,7.32812 2.89063,-7.32812 1.04687,0 -3.39062,8.34375 -1.15625,0 z m 9.37063,0.10937 q -0.85937,0 -1.57812,-0.35937 -0.71875,-0.35938 -1.23438,-0.95313 -0.51562,-0.59375 -0.8125,-1.35937 -0.28125,-0.76563 -0.28125,-1.57813 0,-0.875 0.28125,-1.65625 0.28125,-0.79687 0.78125,-1.39062 0.51563,-0.59375 1.21875,-0.9375 0.71875,-0.35938 1.59375,-0.35938 1.0625,0 1.84375,0.54688 0.79688,0.53125 1.35938,1.34375 l 0,-1.75 0.96875,0 0,8.375 q 0,0.85937 -0.32813,1.51562 -0.32812,0.67188 -0.89062,1.125 -0.54688,0.45313 -1.29688,0.67188 -0.75,0.21875 -1.57812,0.21875 -1.42188,0 -2.3125,-0.51563 -0.875,-0.5 -1.42188,-1.35937 l 0.67188,-0.53125 q 0.5,0.79687 1.3125,1.17187 0.8125,0.375 1.75,0.375 0.60937,0 1.15625,-0.17187 0.54687,-0.15625 0.95312,-0.48438 0.42188,-0.32812 0.65625,-0.84375 0.23438,-0.5 0.23438,-1.17187 l 0,-1.64063 q -0.48438,0.79688 -1.3125,1.26563 -0.82813,0.45312 -1.73438,0.45312 z m 0.29688,-0.90625 q 0.48437,0 0.9375,-0.17187 0.46875,-0.1875 0.84375,-0.48438 0.39062,-0.29687 0.64062,-0.65625 0.25,-0.375 0.32813,-0.75 l 0,-2.57812 q -0.17188,-0.45313 -0.48438,-0.82813 -0.3125,-0.39062 -0.70312,-0.65625 -0.375,-0.28125 -0.8125,-0.4375 -0.4375,-0.15625 -0.89063,-0.15625 -0.70312,0 -1.25,0.29688 -0.54687,0.29687 -0.9375,0.78125 -0.375,0.46875 -0.57812,1.07812 -0.1875,0.60938 -0.1875,1.23438 0,0.67187 0.23437,1.28125 0.23438,0.60937 0.65625,1.0625 0.42188,0.45312 0.98438,0.71875 0.5625,0.26562 1.21875,0.26562 z"
       id="path3418"
       inkscape:connector-curvature="0"
       style="fill:#000000;fill-rule:nonzero" />
    <path
       d="m 302.98434,500.06824 332.88193,0"
       id="path3420"
       inkscape:connector-curvature="0"
       style="fill:#000000;fill-opacity:0;fill-rule:nonzero" />
    <path
       d="m 302.98434,500.06824 332.88193,0"
       id="path3422"
       inkscape:connector-curvature="0"
       style="stroke:#5a6065;stroke-width:2;stroke-linecap:butt;stroke-linejoin:round" />
    <path
       d="m 628.4007,493.37534 0,13.38583"
       id="path3424"
       inkscape:connector-curvature="0"
       style="fill:#000000;fill-opacity:0;fill-rule:nonzero" />
    <path
       d="m 628.4007,493.37534 0,13.38583"
       id="path3426"
       inkscape:connector-curvature="0"
       style="stroke:#5a6065;stroke-width:2;stroke-linecap:butt;stroke-linejoin:round" />
    <path
       d="m 310.1682,493.37534 0,13.38583"
       id="path3428"
       inkscape:connector-curvature="0"
       style="fill:#000000;fill-opacity:0;fill-rule:nonzero" />
    <path
       d="m 310.1682,493.37534 0,13.38583"
       id="path3430"
       inkscape:connector-curvature="0"
       style="stroke:#5a6065;stroke-width:2;stroke-linecap:butt;stroke-linejoin:round" />
    <path
       d="m 469.28445,493.37534 0,13.38583"
       id="path3432"
       inkscape:connector-curvature="0"
       style="fill:#000000;fill-opacity:0;fill-rule:nonzero" />
    <path
       d="m 469.28445,493.37534 0,13.38583"
       id="path3434"
       inkscape:connector-curvature="0"
       style="stroke:#5a6065;stroke-width:2;stroke-linecap:butt;stroke-linejoin:round" />
    <path
       d="m 289.18896,493.37534 53.66931,0 0,33.13388 -53.66931,0 z"
       id="path3436"
       inkscape:connector-curvature="0"
       style="fill:#000000;fill-opacity:0;fill-rule:nonzero" />
    <path
       d="m 307.12646,513.04785 q 0,1.0625 -0.29688,1.95313 -0.29687,0.875 -0.84375,1.53125 -0.53125,0.64062 -1.26562,1 -0.73438,0.35937 -1.60938,0.35937 -0.85937,0 -1.59375,-0.35937 -0.73437,-0.35938 -1.28125,-1 -0.53125,-0.65625 -0.84375,-1.53125 -0.29687,-0.89063 -0.29687,-1.95313 0,-1.06253 0.29687,-1.93753 0.3125,-0.89063 0.84375,-1.53125 0.54688,-0.65625 1.28125,-1.01563 0.73438,-0.375 1.59375,-0.375 0.875,0 1.60938,0.375 0.73437,0.35938 1.26562,1.01563 0.54688,0.64062 0.84375,1.53125 0.29688,0.875 0.29688,1.93753 z m -1.09375,0 q 0,-0.85937 -0.21875,-1.56253 -0.21875,-0.70313 -0.60938,-1.20313 -0.375,-0.51562 -0.92187,-0.79687 -0.53125,-0.28125 -1.17188,-0.28125 -0.65625,0 -1.1875,0.28125 -0.53125,0.28125 -0.92187,0.79687 -0.375,0.5 -0.59375,1.20313 -0.21875,0.70316 -0.21875,1.56253 0,0.85938 0.21875,1.5625 0.21875,0.70313 0.59375,1.21875 0.39062,0.5 0.92187,0.78125 0.53125,0.26563 1.1875,0.26563 0.64063,0 1.17188,-0.26563 0.54687,-0.28125 0.92187,-0.78125 0.39063,-0.51562 0.60938,-1.21875 0.21875,-0.70312 0.21875,-1.5625 z m 3.05878,4.6875 0,-1.5625 0.92187,0 0,1.5625 -0.92187,0 z m 10.89901,-4.6875 q 0,1.0625 -0.29687,1.95313 -0.29688,0.875 -0.84375,1.53125 -0.53125,0.64062 -1.26563,1 -0.73437,0.35937 -1.60937,0.35937 -0.85938,0 -1.59375,-0.35937 -0.73438,-0.35938 -1.28125,-1 -0.53125,-0.65625 -0.84375,-1.53125 -0.29688,-0.89063 -0.29688,-1.95313 0,-1.06253 0.29688,-1.93753 0.3125,-0.89063 0.84375,-1.53125 0.54687,-0.65625 1.28125,-1.01563 0.73437,-0.375 1.59375,-0.375 0.875,0 1.60937,0.375 0.73438,0.35938 1.26563,1.01563 0.54687,0.64062 0.84375,1.53125 0.29687,0.875 0.29687,1.93753 z m -1.09375,0 q 0,-0.85937 -0.21875,-1.56253 -0.21875,-0.70313 -0.60937,-1.20313 -0.375,-0.51562 -0.92188,-0.79687 -0.53125,-0.28125 -1.17187,-0.28125 -0.65625,0 -1.1875,0.28125 -0.53125,0.28125 -0.92188,0.79687 -0.375,0.5 -0.59375,1.20313 -0.21875,0.70316 -0.21875,1.56253 0,0.85938 0.21875,1.5625 0.21875,0.70313 0.59375,1.21875 0.39063,0.5 0.92188,0.78125 0.53125,0.26563 1.1875,0.26563 0.64062,0 1.17187,-0.26563 0.54688,-0.28125 0.92188,-0.78125 0.39062,-0.51562 0.60937,-1.21875 0.21875,-0.70312 0.21875,-1.5625 z"
       id="path3438"
       inkscape:connector-curvature="0"
       style="fill:#000000;fill-rule:nonzero" />
    <path
       d="m 610.6446,493.37534 53.66931,0 0,33.13388 -53.66931,0 z"
       id="path3440"
       inkscape:connector-curvature="0"
       style="fill:#000000;fill-opacity:0;fill-rule:nonzero" />
    <path
       d="m 626.1446,516.751 0,0.98437 -5.42188,0 0,-0.98437 2.26563,0 0,-6.85941 q -0.14063,0.20313 -0.45313,0.42188 -0.29687,0.21875 -0.67187,0.42187 -0.375,0.1875 -0.78125,0.3125 -0.39063,0.125 -0.70313,0.125 l 0,-1.04687 q 0.375,0 0.8125,-0.20313 0.4375,-0.21875 0.82813,-0.48437 0.39062,-0.28125 0.65625,-0.51563 0.28125,-0.25 0.3125,-0.32812 l 1.125,0 0,8.15628 2.03125,0 z m 1.41052,0.98437 0,-1.5625 0.92188,0 0,1.5625 -0.92188,0 z m 10.89899,-4.6875 q 0,1.0625 -0.29688,1.95313 -0.29687,0.875 -0.84375,1.53125 -0.53125,0.64062 -1.26562,1 -0.73438,0.35937 -1.60938,0.35937 -0.85937,0 -1.59375,-0.35937 -0.73437,-0.35938 -1.28125,-1 -0.53125,-0.65625 -0.84375,-1.53125 -0.29687,-0.89063 -0.29687,-1.95313 0,-1.06253 0.29687,-1.93753 0.3125,-0.89062 0.84375,-1.53125 0.54688,-0.65625 1.28125,-1.01562 0.73438,-0.375 1.59375,-0.375 0.875,0 1.60938,0.375 0.73437,0.35937 1.26562,1.01562 0.54688,0.64063 0.84375,1.53125 0.29688,0.875 0.29688,1.93753 z m -1.09375,0 q 0,-0.85937 -0.21875,-1.56253 -0.21875,-0.70312 -0.60938,-1.20312 -0.375,-0.51563 -0.92187,-0.79688 -0.53125,-0.28125 -1.17188,-0.28125 -0.65625,0 -1.1875,0.28125 -0.53125,0.28125 -0.92187,0.79688 -0.375,0.5 -0.59375,1.20312 -0.21875,0.70316 -0.21875,1.56253 0,0.85938 0.21875,1.5625 0.21875,0.70313 0.59375,1.21875 0.39062,0.5 0.92187,0.78125 0.53125,0.26563 1.1875,0.26563 0.64063,0 1.17188,-0.26563 0.54687,-0.28125 0.92187,-0.78125 0.39063,-0.51562 0.60938,-1.21875 0.21875,-0.70312 0.21875,-1.5625 z"
       id="path3442"
       inkscape:connector-curvature="0"
       style="fill:#000000;fill-rule:nonzero" />
    <path
       d="m 448.87927,493.37534 53.66928,0 0,33.13388 -53.66928,0 z"
       id="path3444"
       inkscape:connector-curvature="0"
       style="fill:#000000;fill-opacity:0;fill-rule:nonzero" />
    <path
       d="m 466.81677,513.04785 q 0,1.0625 -0.29687,1.95313 -0.29688,0.875 -0.84375,1.53125 -0.53125,0.64062 -1.26563,1 -0.73437,0.35937 -1.60937,0.35937 -0.85938,0 -1.59375,-0.35937 -0.73438,-0.35938 -1.28125,-1 -0.53125,-0.65625 -0.84375,-1.53125 -0.29688,-0.89063 -0.29688,-1.95313 0,-1.06253 0.29688,-1.93753 0.3125,-0.89063 0.84375,-1.53125 0.54687,-0.65625 1.28125,-1.01563 0.73437,-0.375 1.59375,-0.375 0.875,0 1.60937,0.375 0.73438,0.35938 1.26563,1.01563 0.54687,0.64062 0.84375,1.53125 0.29687,0.875 0.29687,1.93753 z m -1.09375,0 q 0,-0.85937 -0.21875,-1.56253 -0.21875,-0.70313 -0.60937,-1.20313 -0.375,-0.51562 -0.92188,-0.79687 -0.53125,-0.28125 -1.17187,-0.28125 -0.65625,0 -1.1875,0.28125 -0.53125,0.28125 -0.92188,0.79687 -0.375,0.5 -0.59375,1.20313 -0.21875,0.70316 -0.21875,1.56253 0,0.85938 0.21875,1.5625 0.21875,0.70313 0.59375,1.21875 0.39063,0.5 0.92188,0.78125 0.53125,0.26563 1.1875,0.26563 0.64062,0 1.17187,-0.26563 0.54688,-0.28125 0.92188,-0.78125 0.39062,-0.51562 0.60937,-1.21875 0.21875,-0.70312 0.21875,-1.5625 z m 3.05878,4.6875 0,-1.5625 0.92187,0 0,1.5625 -0.92187,0 z m 6.44586,-4.98437 q 0.78125,0 1.45312,0.26562 0.67188,0.25 1.17188,0.73438 0.5,0.48437 0.78125,1.15625 0.29687,0.65625 0.29687,1.45312 0,0.84375 -0.3125,1.53125 -0.3125,0.70313 -0.84375,1.1875 -0.53125,0.5 -1.25,0.76563 -0.71875,0.28125 -1.54687,0.28125 -0.60938,0 -1.15625,-0.15625 -0.54688,-0.15625 -1.01563,-0.45313 -0.46875,-0.28125 -0.84375,-0.6875 -0.375,-0.39062 -0.60937,-0.89062 l 0.71875,-0.54688 q 0.45312,0.79688 1.21875,1.26563 0.78125,0.48437 1.70312,0.48437 0.59375,0 1.10938,-0.20312 0.51562,-0.1875 0.89062,-0.5625 0.39063,-0.375 0.60938,-0.875 0.21875,-0.51563 0.21875,-1.125 0,-0.59375 -0.21875,-1.07813 -0.20313,-0.48437 -0.57813,-0.82812 -0.35937,-0.35938 -0.85937,-0.54688 -0.48438,-0.20312 -1.04688,-0.20312 -0.78125,0 -1.45312,0.32812 -0.65625,0.32813 -1.0625,0.95313 l -1.01563,0 q 0.0156,-0.0937 0.0781,-0.42188 0.0625,-0.34375 0.15625,-0.8125 0.10937,-0.46875 0.21875,-1.03125 0.10937,-0.5625 0.21875,-1.14066 0.28125,-1.34375 0.59375,-3 l 5.48437,0 0,1.01563 -4.67187,0 -0.78125,4.07816 q 0.42187,-0.45313 1.01562,-0.6875 0.60938,-0.25 1.32813,-0.25 z"
       id="path3446"
       inkscape:connector-curvature="0"
       style="fill:#000000;fill-rule:nonzero" />
    <path
       d="m 325.69937,495.81085 3.54175,-3.18509 3.49109,3.88202 3.49112,-3.88202 3.54171,3.18509 -3.82977,4.25861 3.82977,4.25863 -3.54171,3.18509 -3.49112,-3.88202 -3.49109,3.88202 -3.54175,-3.18509 3.8298,-4.25863 z"
       id="path3448"
       inkscape:connector-curvature="0"
       style="fill:#b1063a;fill-rule:nonzero" />
    <path
       d="m 511.00647,495.81085 3.54175,-3.18509 3.49109,3.88202 3.49109,-3.88202 3.54174,3.18509 -3.82977,4.25861 3.82977,4.25863 -3.54174,3.18509 -3.49109,-3.88202 -3.49109,3.88202 -3.54175,-3.18509 3.82977,-4.25863 z"
       id="path3450"
       inkscape:connector-curvature="0"
       style="fill:#b1063a;fill-rule:nonzero" />
    <path
       d="m 621.36865,495.81085 3.54175,-3.18509 3.49109,3.88202 3.49109,-3.88202 3.54174,3.18509 -3.82977,4.25861 3.82977,4.25863 -3.54174,3.18509 -3.49109,-3.88202 -3.49109,3.88202 -3.54175,-3.18509 3.82977,-4.25863 z"
       id="path3452"
       inkscape:connector-curvature="0"
       style="fill:#b1063a;fill-rule:nonzero" />
    <path
       d="m 387.09055,506.76117 8.3714,-15.23886 8.3714,15.23886 z"
       id="path3454"
       inkscape:connector-curvature="0"
       style="fill:#274e13;fill-rule:nonzero" />
    <path
       d="m 321.23883,488.95538 148.53546,0 0,20.75589 -148.53546,0 z"
       id="path3456"
       inkscape:connector-curvature="0"
       style="fill:#b3b3b3;fill-opacity:0.48850001999999998;fill-rule:nonzero" />
  </g>
</svg>
