<?xml version="1.0" encoding="UTF-8" standalone="no"?>
<!-- Created with Inkscape (http://www.inkscape.org/) -->

<svg
   xmlns:ns0="http://www.iki.fi/pav/software/textext/"
   xmlns:dc="http://purl.org/dc/elements/1.1/"
   xmlns:cc="http://creativecommons.org/ns#"
   xmlns:rdf="http://www.w3.org/1999/02/22-rdf-syntax-ns#"
   xmlns:svg="http://www.w3.org/2000/svg"
   xmlns="http://www.w3.org/2000/svg"
   xmlns:sodipodi="http://sodipodi.sourceforge.net/DTD/sodipodi-0.dtd"
   xmlns:inkscape="http://www.inkscape.org/namespaces/inkscape"
   sodipodi:docname="naive.pdf"
   inkscape:version="0.48.4 r9939"
   version="1.1"
   id="svg3210"
   height="233.68954"
   width="409.55035">
  <sodipodi:namedview
     id="base"
     pagecolor="#ffffff"
     bordercolor="#666666"
     borderopacity="1.0"
     inkscape:pageopacity="0.0"
     inkscape:pageshadow="2"
     inkscape:zoom="1.4"
     inkscape:cx="189.39124"
     inkscape:cy="142.75029"
     inkscape:document-units="px"
     inkscape:current-layer="layer1"
     showgrid="false"
     fit-margin-top="0"
     fit-margin-left="0"
     fit-margin-right="0"
     fit-margin-bottom="0"
     inkscape:window-width="960"
     inkscape:window-height="1018"
     inkscape:window-x="0"
     inkscape:window-y="27"
     inkscape:window-maximized="0" />
  <defs
     id="defs3212" />
  <metadata
     id="metadata3215">
    <rdf:RDF>
      <cc:Work
         rdf:about="">
        <dc:format>image/svg+xml</dc:format>
        <dc:type
           rdf:resource="http://purl.org/dc/dcmitype/StillImage" />
        <dc:title></dc:title>
      </cc:Work>
    </rdf:RDF>
  </metadata>
  <g
     inkscape:label="Layer 1"
     inkscape:groupmode="layer"
     id="layer1"
     transform="translate(-129.48115,-443.87399)">
    <path
       style="fill:#000000;fill-opacity:0;fill-rule:nonzero"
       inkscape:connector-curvature="0"
       d="m 225.04462,443.87399 0,225.66931"
       id="path82" />
    <path
       style="fill:#000000;fill-opacity:0;fill-rule:nonzero"
       inkscape:connector-curvature="0"
       d="m 210.9685,655.00257 328.063,0"
       id="path86" />
    <path
       style="fill:#000000;fill-opacity:0;fill-rule:nonzero"
       inkscape:connector-curvature="0"
       d="m 242.90791,443.87399 84.8189,0 0,33.13388 -84.8189,0 z"
       id="path166" />
    <path
       style="fill:#000000;fill-opacity:0;fill-rule:nonzero"
       inkscape:connector-curvature="0"
       d="m 433.36723,554.95013 84.81888,0 0,33.13382 -84.81888,0 z"
       id="path170" />
    <path
       style="fill:#000000;fill-opacity:0;fill-rule:nonzero"
       inkscape:connector-curvature="0"
       d="m 321.40157,535.25195 56.18898,0 0,33.13388 -56.18898,0 z"
       id="path174" />
    <g
       ns0:preamble=""
       ns0:text="cluster 1"
       word-spacing="normal"
       letter-spacing="normal"
       font-size-adjust="none"
       font-stretch="normal"
       font-weight="normal"
       font-variant="normal"
       font-style="normal"
       stroke-miterlimit="10.433"
       xml:space="preserve"
       transform="matrix(2.2198992,0,0,-2.2198992,-246.04829,2036.3504)"
       id="content"
       style="font-style:normal;font-variant:normal;font-weight:normal;font-stretch:normal;letter-spacing:normal;word-spacing:normal;text-anchor:start;fill:none;stroke:#000000;stroke-linecap:butt;stroke-linejoin:miter;stroke-miterlimit:10.43299961;stroke-opacity:1;stroke-dasharray:none;stroke-dashoffset:0"><path
         id="path3317"
         d="m 224.6,709.29 0,0.08 0,0.07 0,0.07 0.01,0.07 0,0.07 0.01,0.07 0,0.06 0.01,0.06 0.01,0.06 0.01,0.06 0.01,0.06 0.01,0.06 0.03,0.11 0.03,0.1 0.04,0.1 0.03,0.09 0.04,0.09 0.04,0.08 0.05,0.07 0.04,0.07 0.05,0.07 0.05,0.06 0.05,0.05 0.05,0.05 0.06,0.05 0.05,0.04 0.06,0.04 0.05,0.03 0.06,0.03 0.06,0.03 0.05,0.02 0.06,0.02 0.06,0.01 0.05,0.02 0.05,0.01 0.06,0 0.05,0.01 0.05,0 c 0.09,0 0.72,-0.01 1.06,-0.37 -0.4,-0.03 -0.46,-0.33 -0.46,-0.46 0,-0.26 0.17,-0.45 0.45,-0.45 0.26,0 0.46,0.16 0.46,0.46 0,0.68 -0.75,1.07 -1.52,1.07 -1.24,0 -2.16,-1.08 -2.16,-2.31 0,-1.27 0.99,-2.25 2.14,-2.25 1.33,0 1.65,1.19 1.65,1.29 0,0.1 -0.1,0.1 -0.13,0.1 -0.09,0 -0.11,-0.04 -0.13,-0.1 -0.29,-0.93 -0.93,-1.05 -1.3,-1.05 -0.53,0 -1.4,0.43 -1.4,2.03 z"
         inkscape:connector-curvature="0"
         style="fill:#000000;stroke-width:0" /><path
         id="path3319"
         d="m 229.62,714.02 -1.43,-0.11 v -0.31 c 0.69,0 0.77,-0.07 0.77,-0.55 v -5.17 c 0,-0.45 -0.11,-0.45 -0.77,-0.45 v -0.31 c 0.33,0.02 0.85,0.04 1.1,0.04 0.25,0 0.74,-0.02 1.11,-0.04 v 0.31 c -0.67,0 -0.78,0 -0.78,0.45 z"
         inkscape:connector-curvature="0"
         style="fill:#000000;stroke-width:0" /><path
         id="path3321"
         d="m 234.52,707.91 v -0.89 l 1.43,0.1 v 0.31 c -0.7,0 -0.78,0.07 -0.78,0.56 v 3.53 l -1.46,-0.11 v -0.31 c 0.7,0 0.78,-0.07 0.78,-0.56 v -1.77 c 0,-0.86 -0.48,-1.54 -1.21,-1.54 -0.83,0 -0.87,0.47 -0.87,0.99 v 3.3 l -1.46,-0.11 v -0.31 c 0.77,0 0.77,-0.03 0.77,-0.92 v -1.49 c 0,-0.77 0,-1.67 1.51,-1.67 0.56,0 1,0.27 1.29,0.89 z"
         inkscape:connector-curvature="0"
         style="fill:#000000;stroke-width:0" /><path
         id="path3323"
         d="m 238.23,709.05 0.02,0 0.03,-0.01 0.03,0 0.03,-0.01 0.03,-0.01 0.04,-0.01 0.04,-0.01 0.04,-0.01 0.04,-0.01 0.04,-0.01 0.04,-0.02 0.05,-0.02 0.04,-0.01 0.04,-0.03 0.05,-0.02 0.04,-0.02 0.04,-0.03 0.05,-0.03 0.04,-0.03 0.04,-0.03 0.03,-0.03 0.04,-0.04 0.03,-0.04 0.04,-0.04 0.02,-0.05 0.02,-0.02 0.01,-0.03 0.01,-0.02 0.01,-0.03 0.01,-0.02 0.01,-0.03 0.01,-0.03 0.01,-0.02 0,-0.03 0.01,-0.03 0,-0.03 0,-0.04 0.01,-0.03 0,-0.03 c 0,-0.51 -0.35,-0.91 -1.13,-0.91 -0.83,0 -1.19,0.57 -1.38,1.42 -0.03,0.12 -0.04,0.16 -0.14,0.16 -0.13,0 -0.13,-0.07 -0.13,-0.24 v -1.32 c 0,-0.16 0,-0.23 0.11,-0.23 0.05,0 0.06,0.01 0.25,0.19 0.02,0.02 0.02,0.04 0.2,0.23 0.44,-0.41 0.88,-0.42 1.09,-0.42 1.15,0 1.6,0.66 1.6,1.38 0,0.52 -0.29,0.82 -0.41,0.94 -0.33,0.32 -0.72,0.4 -1.14,0.48 -0.56,0.11 -1.22,0.23 -1.22,0.81 0,0.35 0.26,0.76 1.11,0.76 1.1,0 1.15,-0.9 1.17,-1.21 0.01,-0.09 0.1,-0.09 0.12,-0.09 0.12,0 0.12,0.06 0.12,0.24 v 1.01 c 0,0.17 0,0.24 -0.1,0.24 -0.05,0 -0.07,0 -0.2,-0.12 -0.03,-0.04 -0.13,-0.13 -0.17,-0.16 -0.38,0.28 -0.79,0.28 -0.94,0.28 -1.21,0 -1.59,-0.67 -1.59,-1.23 0,-0.34 0.16,-0.62 0.43,-0.84 0.32,-0.26 0.59,-0.32 1.31,-0.46 z"
         inkscape:connector-curvature="0"
         style="fill:#000000;stroke-width:0" /><path
         id="path3325"
         d="m 241.81,711.1 h 1.43 v 0.31 h -1.43 v 1.82 h -0.25 c -0.01,-0.81 -0.3,-1.87 -1.28,-1.91 v -0.22 h 0.85 v -2.74 c 0,-1.22 0.92,-1.34 1.28,-1.34 0.71,0 0.99,0.7 0.99,1.34 v 0.56 h -0.25 v -0.54 c 0,-0.74 -0.3,-1.12 -0.67,-1.12 -0.67,0 -0.67,0.91 -0.67,1.08 z"
         inkscape:connector-curvature="0"
         style="fill:#000000;stroke-width:0" /><path
         id="path3327"
         d="m 245.07,709.42 0.01,0.21 c 0.06,1.48 0.9,1.73 1.23,1.73 1.03,0 1.13,-1.34 1.13,-1.73 h -2.36 l -0.01,-0.21 h 2.78 c 0.22,0 0.25,0 0.25,0.21 0,0.98 -0.54,1.95 -1.79,1.95 -1.15,0 -2.07,-1.03 -2.07,-2.27 0,-1.33 1.05,-2.29 2.19,-2.29 1.22,0 1.67,1.1 1.67,1.29 0,0.1 -0.09,0.12 -0.14,0.12 -0.08,0 -0.1,-0.06 -0.12,-0.14 -0.35,-1.03 -1.25,-1.03 -1.35,-1.03 -0.49,0 -0.89,0.3 -1.12,0.67 -0.3,0.48 -0.3,1.13 -0.3,1.49 z"
         inkscape:connector-curvature="0"
         style="fill:#000000;stroke-width:0" /><path
         id="path3329"
         d="m 250.05,710.42 v 1.1 l -1.38,-0.11 v -0.31 c 0.7,0 0.78,-0.07 0.78,-0.56 v -2.66 c 0,-0.45 -0.11,-0.45 -0.78,-0.45 v -0.31 c 0.39,0.02 0.86,0.04 1.14,0.04 0.39,0 0.86,0 1.26,-0.04 v 0.31 h -0.21 c -0.74,0 -0.76,0.11 -0.76,0.47 v 1.53 c 0,0.98 0.42,1.87 1.18,1.87 0.07,0 0.09,0 0.11,-0.01 -0.03,-0.01 -0.23,-0.13 -0.23,-0.39 0,-0.28 0.21,-0.43 0.43,-0.43 0.18,0 0.42,0.12 0.42,0.44 0,0.32 -0.3,0.61 -0.73,0.61 -0.73,0 -1.09,-0.67 -1.23,-1.1 z"
         inkscape:connector-curvature="0"
         style="fill:#000000;stroke-width:0" /><path
         id="path3331"
         d="m 258.54,713.48 0,0.01 0,0.01 0,0.02 0,0.01 0,0 0,0.01 0,0.01 0,0.01 0,0.01 0,0.01 0,0.01 0,0.01 0,0 0,0.01 0,0.01 -0.01,0 0,0.01 0,0.01 0,0.01 0,0.01 0,0.01 -0.01,0.01 0,0.01 -0.01,0 0,0.01 -0.01,0.01 0,0 -0.01,0.01 -0.01,0 -0.01,0.01 0,0 -0.01,0 0,0 -0.01,0 0,0 -0.01,0 0,0.01 -0.01,0 -0.01,0 0,0 -0.01,0 -0.01,0 -0.01,0 -0.01,0 0,0 -0.01,0 -0.01,0 -0.01,0 -0.01,0 -0.01,0 -0.01,0 -0.01,0 c -0.62,-0.64 -1.49,-0.64 -1.81,-0.64 v -0.3 c 0.2,0 0.79,0 1.3,0.25 v -5.14 c 0,-0.36 -0.03,-0.48 -0.92,-0.48 h -0.32 v -0.31 c 0.35,0.04 1.21,0.04 1.61,0.04 0.4,0 1.26,0 1.61,-0.04 v 0.31 h -0.32 c -0.89,0 -0.92,0.11 -0.92,0.48 z"
         inkscape:connector-curvature="0"
         style="fill:#000000;stroke-width:0" /></g>    <g
       id="g3503"
       transform="matrix(2.2198992,0,0,-2.2198992,-55.747377,2150.0283)"
       xml:space="preserve"
       stroke-miterlimit="10.433"
       font-style="normal"
       font-variant="normal"
       font-weight="normal"
       font-stretch="normal"
       font-size-adjust="none"
       letter-spacing="normal"
       word-spacing="normal"
       ns0:text="cluster 2"
       ns0:preamble=""
       style="font-style:normal;font-variant:normal;font-weight:normal;font-stretch:normal;letter-spacing:normal;word-spacing:normal;text-anchor:start;fill:none;stroke:#000000;stroke-linecap:butt;stroke-linejoin:miter;stroke-miterlimit:10.43299961;stroke-opacity:1;stroke-dasharray:none;stroke-dashoffset:0"><path
         style="fill:#000000;stroke-width:0"
         inkscape:connector-curvature="0"
         d="m 224.6,709.29 0,0.08 0,0.07 0,0.07 0.01,0.07 0,0.07 0.01,0.07 0,0.06 0.01,0.06 0.01,0.06 0.01,0.06 0.01,0.06 0.01,0.06 0.03,0.11 0.03,0.1 0.04,0.1 0.03,0.09 0.04,0.09 0.04,0.08 0.05,0.07 0.04,0.07 0.05,0.07 0.05,0.06 0.05,0.05 0.05,0.05 0.06,0.05 0.05,0.04 0.06,0.04 0.05,0.03 0.06,0.03 0.06,0.03 0.05,0.02 0.06,0.02 0.06,0.01 0.05,0.02 0.05,0.01 0.06,0 0.05,0.01 0.05,0 c 0.09,0 0.72,-0.01 1.06,-0.37 -0.4,-0.03 -0.46,-0.33 -0.46,-0.46 0,-0.26 0.17,-0.45 0.45,-0.45 0.26,0 0.46,0.16 0.46,0.46 0,0.68 -0.75,1.07 -1.52,1.07 -1.24,0 -2.16,-1.08 -2.16,-2.31 0,-1.27 0.99,-2.25 2.14,-2.25 1.33,0 1.65,1.19 1.65,1.29 0,0.1 -0.1,0.1 -0.13,0.1 -0.09,0 -0.11,-0.04 -0.13,-0.1 -0.29,-0.93 -0.93,-1.05 -1.3,-1.05 -0.53,0 -1.4,0.43 -1.4,2.03 z"
         id="path3505" /><path
         style="fill:#000000;stroke-width:0"
         inkscape:connector-curvature="0"
         d="m 229.62,714.02 -1.43,-0.11 v -0.31 c 0.69,0 0.77,-0.07 0.77,-0.55 v -5.17 c 0,-0.45 -0.11,-0.45 -0.77,-0.45 v -0.31 c 0.33,0.02 0.85,0.04 1.1,0.04 0.25,0 0.74,-0.02 1.11,-0.04 v 0.31 c -0.67,0 -0.78,0 -0.78,0.45 z"
         id="path3507" /><path
         style="fill:#000000;stroke-width:0"
         inkscape:connector-curvature="0"
         d="m 234.52,707.91 v -0.89 l 1.43,0.1 v 0.31 c -0.7,0 -0.78,0.07 -0.78,0.56 v 3.53 l -1.46,-0.11 v -0.31 c 0.7,0 0.78,-0.07 0.78,-0.56 v -1.77 c 0,-0.86 -0.48,-1.54 -1.21,-1.54 -0.83,0 -0.87,0.47 -0.87,0.99 v 3.3 l -1.46,-0.11 v -0.31 c 0.77,0 0.77,-0.03 0.77,-0.92 v -1.49 c 0,-0.77 0,-1.67 1.51,-1.67 0.56,0 1,0.27 1.29,0.89 z"
         id="path3509" /><path
         style="fill:#000000;stroke-width:0"
         inkscape:connector-curvature="0"
         d="m 238.23,709.05 0.02,0 0.03,-0.01 0.03,0 0.03,-0.01 0.03,-0.01 0.04,-0.01 0.04,-0.01 0.04,-0.01 0.04,-0.01 0.04,-0.01 0.04,-0.02 0.05,-0.02 0.04,-0.01 0.04,-0.03 0.05,-0.02 0.04,-0.02 0.04,-0.03 0.05,-0.03 0.04,-0.03 0.04,-0.03 0.03,-0.03 0.04,-0.04 0.03,-0.04 0.04,-0.04 0.02,-0.05 0.02,-0.02 0.01,-0.03 0.01,-0.02 0.01,-0.03 0.01,-0.02 0.01,-0.03 0.01,-0.03 0.01,-0.02 0,-0.03 0.01,-0.03 0,-0.03 0,-0.04 0.01,-0.03 0,-0.03 c 0,-0.51 -0.35,-0.91 -1.13,-0.91 -0.83,0 -1.19,0.57 -1.38,1.42 -0.03,0.12 -0.04,0.16 -0.14,0.16 -0.13,0 -0.13,-0.07 -0.13,-0.24 v -1.32 c 0,-0.16 0,-0.23 0.11,-0.23 0.05,0 0.06,0.01 0.25,0.19 0.02,0.02 0.02,0.04 0.2,0.23 0.44,-0.41 0.88,-0.42 1.09,-0.42 1.15,0 1.6,0.66 1.6,1.38 0,0.52 -0.29,0.82 -0.41,0.94 -0.33,0.32 -0.72,0.4 -1.14,0.48 -0.56,0.11 -1.22,0.23 -1.22,0.81 0,0.35 0.26,0.76 1.11,0.76 1.1,0 1.15,-0.9 1.17,-1.21 0.01,-0.09 0.1,-0.09 0.12,-0.09 0.12,0 0.12,0.06 0.12,0.24 v 1.01 c 0,0.17 0,0.24 -0.1,0.24 -0.05,0 -0.07,0 -0.2,-0.12 -0.03,-0.04 -0.13,-0.13 -0.17,-0.16 -0.38,0.28 -0.79,0.28 -0.94,0.28 -1.21,0 -1.59,-0.67 -1.59,-1.23 0,-0.34 0.16,-0.62 0.43,-0.84 0.32,-0.26 0.59,-0.32 1.31,-0.46 z"
         id="path3511" /><path
         style="fill:#000000;stroke-width:0"
         inkscape:connector-curvature="0"
         d="m 241.81,711.1 h 1.43 v 0.31 h -1.43 v 1.82 h -0.25 c -0.01,-0.81 -0.3,-1.87 -1.28,-1.91 v -0.22 h 0.85 v -2.74 c 0,-1.22 0.92,-1.34 1.28,-1.34 0.71,0 0.99,0.7 0.99,1.34 v 0.56 h -0.25 v -0.54 c 0,-0.74 -0.3,-1.12 -0.67,-1.12 -0.67,0 -0.67,0.91 -0.67,1.08 z"
         id="path3513" /><path
         style="fill:#000000;stroke-width:0"
         inkscape:connector-curvature="0"
         d="m 245.07,709.42 0.01,0.21 c 0.06,1.48 0.9,1.73 1.23,1.73 1.03,0 1.13,-1.34 1.13,-1.73 h -2.36 l -0.01,-0.21 h 2.78 c 0.22,0 0.25,0 0.25,0.21 0,0.98 -0.54,1.95 -1.79,1.95 -1.15,0 -2.07,-1.03 -2.07,-2.27 0,-1.33 1.05,-2.29 2.19,-2.29 1.22,0 1.67,1.1 1.67,1.29 0,0.1 -0.09,0.12 -0.14,0.12 -0.08,0 -0.1,-0.06 -0.12,-0.14 -0.35,-1.03 -1.25,-1.03 -1.35,-1.03 -0.49,0 -0.89,0.3 -1.12,0.67 -0.3,0.48 -0.3,1.13 -0.3,1.49 z"
         id="path3515" /><path
         style="fill:#000000;stroke-width:0"
         inkscape:connector-curvature="0"
         d="m 250.05,710.42 v 1.1 l -1.38,-0.11 v -0.31 c 0.7,0 0.78,-0.07 0.78,-0.56 v -2.66 c 0,-0.45 -0.11,-0.45 -0.78,-0.45 v -0.31 c 0.39,0.02 0.86,0.04 1.14,0.04 0.39,0 0.86,0 1.26,-0.04 v 0.31 h -0.21 c -0.74,0 -0.76,0.11 -0.76,0.47 v 1.53 c 0,0.98 0.42,1.87 1.18,1.87 0.07,0 0.09,0 0.11,-0.01 -0.03,-0.01 -0.23,-0.13 -0.23,-0.39 0,-0.28 0.21,-0.43 0.43,-0.43 0.18,0 0.42,0.12 0.42,0.44 0,0.32 -0.3,0.61 -0.73,0.61 -0.73,0 -1.09,-0.67 -1.23,-1.1 z"
         id="path3517" /><path
         style="fill:#000000;stroke-width:0"
         inkscape:connector-curvature="0"
         d="m 256.88,707.89 1.05,1.02 c 1.55,1.37 2.15,1.91 2.15,2.9 0,1.14 -0.9,1.93 -2.11,1.93 -1.12,0 -1.86,-0.91 -1.86,-1.8 0,-0.55 0.5,-0.55 0.53,-0.55 0.17,0 0.51,0.12 0.51,0.52 0,0.26 -0.17,0.52 -0.52,0.52 -0.08,0 -0.1,0 -0.13,-0.01 0.23,0.65 0.77,1.01 1.34,1.01 0.91,0 1.33,-0.8 1.33,-1.62 0,-0.79 -0.49,-1.58 -1.04,-2.19 l -1.91,-2.13 c -0.11,-0.11 -0.11,-0.13 -0.11,-0.37 h 3.69 l 0.28,1.73 h -0.25 c -0.05,-0.3 -0.12,-0.73 -0.22,-0.88 -0.07,-0.08 -0.72,-0.08 -0.94,-0.08 z"
         id="path3519" /></g>    <g
       style="font-style:normal;font-variant:normal;font-weight:normal;font-stretch:normal;letter-spacing:normal;word-spacing:normal;text-anchor:start;fill:none;stroke:#000000;stroke-linecap:butt;stroke-linejoin:miter;stroke-miterlimit:10.43299961;stroke-opacity:1;stroke-dasharray:none;stroke-dashoffset:0"
       ns0:preamble=""
       ns0:text="new"
       word-spacing="normal"
       letter-spacing="normal"
       font-size-adjust="none"
       font-stretch="normal"
       font-weight="normal"
       font-variant="normal"
       font-style="normal"
       stroke-miterlimit="10.433"
       xml:space="preserve"
       transform="matrix(2.2198992,0,0,-2.2198992,-165.36608,2132.5283)"
       id="g3684"><path
         id="path3686"
         d="m 224.53,710.54 v -2.66 c 0,-0.45 -0.11,-0.45 -0.78,-0.45 v -0.31 c 0.35,0.02 0.86,0.04 1.13,0.04 0.25,0 0.77,-0.02 1.11,-0.04 v 0.31 c -0.67,0 -0.78,0 -0.78,0.45 v 1.83 c 0,1.03 0.71,1.59 1.35,1.59 0.62,0 0.73,-0.54 0.73,-1.1 v -2.32 c 0,-0.45 -0.11,-0.45 -0.77,-0.45 v -0.31 c 0.34,0.02 0.85,0.04 1.12,0.04 0.26,0 0.78,-0.02 1.12,-0.04 v 0.31 c -0.52,0 -0.77,0 -0.78,0.3 v 1.9 c 0,0.85 0,1.16 -0.31,1.52 -0.14,0.17 -0.47,0.37 -1.04,0.37 -0.73,0 -1.2,-0.43 -1.48,-1.05 v 1.05 l -1.4,-0.11 v -0.31 c 0.7,0 0.78,-0.07 0.78,-0.56 z"
         inkscape:connector-curvature="0"
         style="fill:#000000;stroke-width:0" /><path
         id="path3688"
         d="m 230.07,709.42 0.01,0.21 c 0.06,1.48 0.9,1.73 1.24,1.73 1.02,0 1.12,-1.34 1.12,-1.73 h -2.36 l -0.01,-0.21 h 2.78 c 0.22,0 0.25,0 0.25,0.21 0,0.98 -0.54,1.95 -1.78,1.95 -1.16,0 -2.07,-1.03 -2.07,-2.27 0,-1.33 1.04,-2.29 2.18,-2.29 1.22,0 1.67,1.1 1.67,1.29 0,0.1 -0.08,0.12 -0.13,0.12 -0.09,0 -0.11,-0.06 -0.13,-0.14 -0.35,-1.03 -1.25,-1.03 -1.35,-1.03 -0.49,0 -0.89,0.3 -1.12,0.67 -0.3,0.48 -0.3,1.13 -0.3,1.49 z"
         inkscape:connector-curvature="0"
         style="fill:#000000;stroke-width:0" /><path
         id="path3690"
         d="m 239.55,710.46 0.02,0.05 0.02,0.04 0.02,0.04 0.02,0.04 0.02,0.04 0.02,0.04 0.02,0.03 0.02,0.03 0.02,0.03 0.03,0.03 0.02,0.02 0.02,0.03 0.03,0.02 0.02,0.02 0.03,0.02 0.03,0.02 0.02,0.02 0.03,0.02 0.03,0.01 0.03,0.01 0.03,0.02 0.03,0.01 0.03,0.01 0.03,0.01 0.03,0 0.03,0.01 0.03,0 0.03,0.01 0.03,0 0.03,0.01 0.04,0 0.03,0 v 0.31 c -0.22,-0.02 -0.51,-0.03 -0.73,-0.03 -0.29,0 -0.73,0.02 -0.92,0.03 v -0.31 c 0.36,-0.01 0.57,-0.19 0.57,-0.48 0,-0.06 0,-0.08 -0.05,-0.21 l -0.9,-2.54 -0.99,2.77 c -0.04,0.12 -0.05,0.14 -0.05,0.19 0,0.27 0.39,0.27 0.59,0.27 v 0.31 c -0.29,-0.01 -0.79,-0.03 -1.03,-0.03 -0.3,0 -0.59,0.01 -0.89,0.03 v -0.31 c 0.37,0 0.53,-0.02 0.63,-0.15 0.05,-0.06 0.16,-0.36 0.23,-0.55 l -0.86,-2.4 -0.94,2.65 c -0.05,0.12 -0.05,0.14 -0.05,0.18 0,0.27 0.38,0.27 0.58,0.27 v 0.31 c -0.29,-0.01 -0.85,-0.03 -1.08,-0.03 -0.04,0 -0.57,0.01 -0.93,0.03 v -0.31 c 0.5,0 0.62,-0.03 0.74,-0.35 l 1.25,-3.52 c 0.05,-0.14 0.08,-0.21 0.21,-0.21 0.13,0 0.15,0.06 0.2,0.19 l 1.01,2.82 1.01,-2.83 c 0.04,-0.11 0.07,-0.18 0.2,-0.18 0.13,0 0.16,0.08 0.2,0.18 z"
         inkscape:connector-curvature="0"
         style="fill:#000000;stroke-width:0" /></g>    <g
       id="g3846"
       transform="matrix(2.2198992,0,0,-2.2198992,-54.346115,2246.9629)"
       xml:space="preserve"
       stroke-miterlimit="10.433"
       font-style="normal"
       font-variant="normal"
       font-weight="normal"
       font-stretch="normal"
       font-size-adjust="none"
       letter-spacing="normal"
       word-spacing="normal"
       ns0:text="feature A"
       ns0:preamble=""
       style="font-style:normal;font-variant:normal;font-weight:normal;font-stretch:normal;letter-spacing:normal;word-spacing:normal;text-anchor:start;fill:none;stroke:#000000;stroke-linecap:butt;stroke-linejoin:miter;stroke-miterlimit:10.43299961;stroke-opacity:1;stroke-dasharray:none;stroke-dashoffset:0"><path
         d="m 225.17,711.41 v 1.15 c 0,0.87 0.48,1.35 0.92,1.35 0.03,0 0.18,0 0.33,-0.07 -0.12,-0.04 -0.3,-0.17 -0.3,-0.42 0,-0.22 0.16,-0.42 0.43,-0.42 0.29,0 0.43,0.2 0.43,0.43 0,0.37 -0.36,0.7 -0.89,0.7 -0.7,0 -1.54,-0.53 -1.54,-1.58 v -1.14 h -0.79 v -0.31 h 0.79 v -3.22 c 0,-0.45 -0.11,-0.45 -0.78,-0.45 v -0.31 c 0.39,0.02 0.86,0.04 1.13,0.04 0.4,0 0.87,0 1.27,-0.04 v 0.31 h -0.21 c -0.74,0 -0.76,0.11 -0.76,0.47 v 3.2 h 1.14 v 0.31 z"
         id="path3848"
         inkscape:connector-curvature="0"
         style="fill:#000000;stroke-width:0" /><path
         d="m 227.58,709.42 0.01,0.21 c 0.06,1.48 0.9,1.73 1.23,1.73 1.03,0 1.13,-1.34 1.13,-1.73 h -2.36 l -0.01,-0.21 h 2.78 c 0.22,0 0.24,0 0.24,0.21 0,0.98 -0.53,1.95 -1.78,1.95 -1.15,0 -2.06,-1.03 -2.06,-2.27 0,-1.33 1.04,-2.29 2.18,-2.29 1.22,0 1.66,1.1 1.66,1.29 0,0.1 -0.07,0.12 -0.12,0.12 -0.09,0 -0.11,-0.06 -0.13,-0.14 -0.35,-1.03 -1.25,-1.03 -1.35,-1.03 -0.49,0 -0.89,0.3 -1.12,0.67 -0.3,0.48 -0.3,1.13 -0.3,1.49 z"
         id="path3850"
         inkscape:connector-curvature="0"
         style="fill:#000000;stroke-width:0" /><path
         d="m 234.22,707.88 0,-0.04 0.01,-0.03 0,-0.04 0.01,-0.04 0.01,-0.04 0.01,-0.03 0.02,-0.04 0.01,-0.03 0.01,-0.04 0.02,-0.03 0.02,-0.04 0.02,-0.03 0.02,-0.03 0.02,-0.04 0.02,-0.03 0.02,-0.03 0.03,-0.02 0.03,-0.03 0.02,-0.03 0.03,-0.02 0.03,-0.02 0.03,-0.03 0.04,-0.02 0.03,-0.01 0.04,-0.02 0.03,-0.01 0.04,-0.02 0.04,-0.01 0.04,0 0.04,-0.01 0.04,0 0.04,0 c 0.21,0 0.82,0.13 0.82,0.94 v 0.56 h -0.25 v -0.56 c 0,-0.58 -0.25,-0.64 -0.36,-0.64 -0.33,0 -0.37,0.45 -0.37,0.5 v 1.99 c 0,0.41 0,0.8 -0.35,1.17 -0.39,0.39 -0.89,0.55 -1.37,0.55 -0.81,0 -1.5,-0.47 -1.5,-1.13 0,-0.29 0.2,-0.46 0.46,-0.46 0.28,0 0.46,0.19 0.46,0.45 0,0.12 -0.05,0.45 -0.51,0.46 0.27,0.35 0.75,0.46 1.07,0.46 0.49,0 1.06,-0.39 1.06,-1.27 v -0.37 -0.21 -0.99 c 0,-0.95 -0.72,-1.29 -1.17,-1.29 -0.48,0 -0.89,0.35 -0.89,0.85 0,0.54 0.42,1.37 2.06,1.43 h 0 v 0.21 c -0.51,-0.03 -1.21,-0.06 -1.83,-0.36 -0.75,-0.34 -1,-0.85 -1,-1.29 0,-0.81 0.97,-1.05 1.59,-1.05 0.66,0 1.12,0.39 1.31,0.86 z"
         id="path3852"
         inkscape:connector-curvature="0"
         style="fill:#000000;stroke-width:0" /><path
         d="m 237.61,711.1 h 1.42 v 0.31 h -1.42 v 1.82 h -0.25 c -0.01,-0.81 -0.31,-1.87 -1.29,-1.91 v -0.22 h 0.85 v -2.74 c 0,-1.22 0.93,-1.34 1.28,-1.34 0.71,0 0.99,0.7 0.99,1.34 v 0.56 h -0.25 v -0.54 c 0,-0.74 -0.3,-1.12 -0.67,-1.12 -0.66,0 -0.66,0.91 -0.66,1.08 z"
         id="path3854"
         inkscape:connector-curvature="0"
         style="fill:#000000;stroke-width:0" /><path
         d="m 243.65,707.91 v -0.89 l 1.43,0.1 v 0.31 c -0.69,0 -0.77,0.07 -0.77,0.56 v 3.53 l -1.47,-0.11 v -0.31 c 0.7,0 0.78,-0.07 0.78,-0.56 v -1.77 c 0,-0.86 -0.48,-1.54 -1.2,-1.54 -0.84,0 -0.88,0.47 -0.88,0.99 v 3.3 l -1.46,-0.11 v -0.31 c 0.77,0 0.77,-0.03 0.77,-0.92 v -1.49 c 0,-0.77 0,-1.67 1.52,-1.67 0.55,0 0.99,0.27 1.28,0.89 z"
         id="path3856"
         inkscape:connector-curvature="0"
         style="fill:#000000;stroke-width:0" /><path
         d="m 246.96,710.42 v 1.1 l -1.39,-0.11 v -0.31 c 0.7,0 0.78,-0.07 0.78,-0.56 v -2.66 c 0,-0.45 -0.11,-0.45 -0.78,-0.45 v -0.31 c 0.39,0.02 0.86,0.04 1.14,0.04 0.4,0 0.86,0 1.26,-0.04 v 0.31 h -0.21 c -0.73,0 -0.75,0.11 -0.75,0.47 v 1.53 c 0,0.98 0.41,1.87 1.17,1.87 0.07,0 0.09,0 0.11,-0.01 -0.03,-0.01 -0.23,-0.13 -0.23,-0.39 0,-0.28 0.21,-0.43 0.43,-0.43 0.18,0 0.43,0.12 0.43,0.44 0,0.32 -0.31,0.61 -0.74,0.61 -0.73,0 -1.08,-0.67 -1.22,-1.1 z"
         id="path3858"
         inkscape:connector-curvature="0"
         style="fill:#000000;stroke-width:0" /><path
         d="m 250.3,709.42 0.01,0.21 c 0.06,1.48 0.9,1.73 1.23,1.73 1.03,0 1.13,-1.34 1.13,-1.73 h -2.36 l -0.01,-0.21 h 2.78 c 0.22,0 0.25,0 0.25,0.21 0,0.98 -0.54,1.95 -1.79,1.95 -1.15,0 -2.06,-1.03 -2.06,-2.27 0,-1.33 1.04,-2.29 2.18,-2.29 1.22,0 1.67,1.1 1.67,1.29 0,0.1 -0.08,0.12 -0.13,0.12 -0.09,0 -0.11,-0.06 -0.13,-0.14 -0.35,-1.03 -1.25,-1.03 -1.35,-1.03 -0.49,0 -0.89,0.3 -1.12,0.67 -0.3,0.48 -0.3,1.13 -0.3,1.49 z"
         id="path3860"
         inkscape:connector-curvature="0"
         style="fill:#000000;stroke-width:0" /><path
         d="m 260.9,714.04 0,0.01 -0.01,0.01 0,0.01 -0.01,0.01 0,0.02 0,0.01 -0.01,0.01 0,0 -0.01,0.01 0,0.01 -0.01,0.01 0,0.01 -0.01,0.01 0,0 -0.01,0.01 0,0.01 -0.01,0 0,0.01 -0.01,0 -0.01,0.01 -0.01,0 0,0.01 -0.01,0 -0.01,0.01 -0.01,0 -0.01,0 -0.01,0 -0.01,0 -0.02,0.01 -0.01,0 -0.01,0 -0.01,0 -0.01,0 c -0.16,0 -0.19,-0.06 -0.24,-0.2 l -2.05,-5.94 c -0.18,-0.51 -0.58,-0.66 -1.12,-0.67 v -0.31 c 0.23,0.02 0.66,0.04 1.01,0.04 0.31,0 0.83,-0.02 1.15,-0.04 v 0.31 c -0.5,0 -0.75,0.25 -0.75,0.51 0,0.03 0.01,0.13 0.02,0.15 l 0.46,1.3 0.11,0.31 1.12,3.23 1.12,-3.23 h -2.24 l -0.11,-0.31 h 2.46 l 0.53,-1.52 c 0.01,-0.04 0.03,-0.1 0.03,-0.14 0,-0.3 -0.56,-0.3 -0.83,-0.3 v -0.31 c 0.36,0.04 1.05,0.04 1.43,0.04 0.43,0 0.89,-0.01 1.31,-0.04 v 0.31 h -0.18 c -0.6,0 -0.74,0.07 -0.85,0.4 z"
         id="path3862"
         inkscape:connector-curvature="0"
         style="fill:#000000;stroke-width:0" /></g>    <g
       style="font-style:normal;font-variant:normal;font-weight:normal;font-stretch:normal;letter-spacing:normal;word-spacing:normal;text-anchor:start;fill:none;stroke:#000000;stroke-linecap:butt;stroke-linejoin:miter;stroke-miterlimit:10.43299961;stroke-opacity:1;stroke-dasharray:none;stroke-dashoffset:0"
       ns0:preamble=""
       ns0:text="feature B"
       word-spacing="normal"
       letter-spacing="normal"
       font-size-adjust="none"
       font-stretch="normal"
       font-weight="normal"
       font-variant="normal"
       font-style="normal"
       stroke-miterlimit="10.433"
       xml:space="preserve"
       transform="matrix(2.2198992,0,0,-2.2198992,-367.15192,2030.9868)"
       id="g4050"><path
         id="path4052"
         d="m 225.17,711.41 v 1.15 c 0,0.87 0.48,1.35 0.92,1.35 0.03,0 0.18,0 0.33,-0.07 -0.12,-0.04 -0.3,-0.17 -0.3,-0.42 0,-0.22 0.16,-0.42 0.43,-0.42 0.29,0 0.43,0.2 0.43,0.43 0,0.37 -0.36,0.7 -0.89,0.7 -0.7,0 -1.54,-0.53 -1.54,-1.58 v -1.14 h -0.79 v -0.31 h 0.79 v -3.22 c 0,-0.45 -0.11,-0.45 -0.78,-0.45 v -0.31 c 0.39,0.02 0.86,0.04 1.13,0.04 0.4,0 0.87,0 1.27,-0.04 v 0.31 h -0.21 c -0.74,0 -0.76,0.11 -0.76,0.47 v 3.2 h 1.14 v 0.31 z"
         inkscape:connector-curvature="0"
         style="fill:#000000;stroke-width:0" /><path
         id="path4054"
         d="m 227.58,709.42 0.01,0.21 c 0.06,1.48 0.9,1.73 1.23,1.73 1.03,0 1.13,-1.34 1.13,-1.73 h -2.36 l -0.01,-0.21 h 2.78 c 0.22,0 0.24,0 0.24,0.21 0,0.98 -0.53,1.95 -1.78,1.95 -1.15,0 -2.06,-1.03 -2.06,-2.27 0,-1.33 1.04,-2.29 2.18,-2.29 1.22,0 1.66,1.1 1.66,1.29 0,0.1 -0.07,0.12 -0.12,0.12 -0.09,0 -0.11,-0.06 -0.13,-0.14 -0.35,-1.03 -1.25,-1.03 -1.35,-1.03 -0.49,0 -0.89,0.3 -1.12,0.67 -0.3,0.48 -0.3,1.13 -0.3,1.49 z"
         inkscape:connector-curvature="0"
         style="fill:#000000;stroke-width:0" /><path
         id="path4056"
         d="m 234.22,707.88 0,-0.04 0.01,-0.03 0,-0.04 0.01,-0.04 0.01,-0.04 0.01,-0.03 0.02,-0.04 0.01,-0.03 0.01,-0.04 0.02,-0.03 0.02,-0.04 0.02,-0.03 0.02,-0.03 0.02,-0.04 0.02,-0.03 0.02,-0.03 0.03,-0.02 0.03,-0.03 0.02,-0.03 0.03,-0.02 0.03,-0.02 0.03,-0.03 0.04,-0.02 0.03,-0.01 0.04,-0.02 0.03,-0.01 0.04,-0.02 0.04,-0.01 0.04,0 0.04,-0.01 0.04,0 0.04,0 c 0.21,0 0.82,0.13 0.82,0.94 v 0.56 h -0.25 v -0.56 c 0,-0.58 -0.25,-0.64 -0.36,-0.64 -0.33,0 -0.37,0.45 -0.37,0.5 v 1.99 c 0,0.41 0,0.8 -0.35,1.17 -0.39,0.39 -0.89,0.55 -1.37,0.55 -0.81,0 -1.5,-0.47 -1.5,-1.13 0,-0.29 0.2,-0.46 0.46,-0.46 0.28,0 0.46,0.19 0.46,0.45 0,0.12 -0.05,0.45 -0.51,0.46 0.27,0.35 0.75,0.46 1.07,0.46 0.49,0 1.06,-0.39 1.06,-1.27 v -0.37 -0.21 -0.99 c 0,-0.95 -0.72,-1.29 -1.17,-1.29 -0.48,0 -0.89,0.35 -0.89,0.85 0,0.54 0.42,1.37 2.06,1.43 h 0 v 0.21 c -0.51,-0.03 -1.21,-0.06 -1.83,-0.36 -0.75,-0.34 -1,-0.85 -1,-1.29 0,-0.81 0.97,-1.05 1.59,-1.05 0.66,0 1.12,0.39 1.31,0.86 z"
         inkscape:connector-curvature="0"
         style="fill:#000000;stroke-width:0" /><path
         id="path4058"
         d="m 237.61,711.1 h 1.42 v 0.31 h -1.42 v 1.82 h -0.25 c -0.01,-0.81 -0.31,-1.87 -1.29,-1.91 v -0.22 h 0.85 v -2.74 c 0,-1.22 0.93,-1.34 1.28,-1.34 0.71,0 0.99,0.7 0.99,1.34 v 0.56 h -0.25 v -0.54 c 0,-0.74 -0.3,-1.12 -0.67,-1.12 -0.66,0 -0.66,0.91 -0.66,1.08 z"
         inkscape:connector-curvature="0"
         style="fill:#000000;stroke-width:0" /><path
         id="path4060"
         d="m 243.65,707.91 v -0.89 l 1.43,0.1 v 0.31 c -0.69,0 -0.77,0.07 -0.77,0.56 v 3.53 l -1.47,-0.11 v -0.31 c 0.7,0 0.78,-0.07 0.78,-0.56 v -1.77 c 0,-0.86 -0.48,-1.54 -1.2,-1.54 -0.84,0 -0.88,0.47 -0.88,0.99 v 3.3 l -1.46,-0.11 v -0.31 c 0.77,0 0.77,-0.03 0.77,-0.92 v -1.49 c 0,-0.77 0,-1.67 1.52,-1.67 0.55,0 0.99,0.27 1.28,0.89 z"
         inkscape:connector-curvature="0"
         style="fill:#000000;stroke-width:0" /><path
         id="path4062"
         d="m 246.96,710.42 v 1.1 l -1.39,-0.11 v -0.31 c 0.7,0 0.78,-0.07 0.78,-0.56 v -2.66 c 0,-0.45 -0.11,-0.45 -0.78,-0.45 v -0.31 c 0.39,0.02 0.86,0.04 1.14,0.04 0.4,0 0.86,0 1.26,-0.04 v 0.31 h -0.21 c -0.73,0 -0.75,0.11 -0.75,0.47 v 1.53 c 0,0.98 0.41,1.87 1.17,1.87 0.07,0 0.09,0 0.11,-0.01 -0.03,-0.01 -0.23,-0.13 -0.23,-0.39 0,-0.28 0.21,-0.43 0.43,-0.43 0.18,0 0.43,0.12 0.43,0.44 0,0.32 -0.31,0.61 -0.74,0.61 -0.73,0 -1.08,-0.67 -1.22,-1.1 z"
         inkscape:connector-curvature="0"
         style="fill:#000000;stroke-width:0" /><path
         id="path4064"
         d="m 250.3,709.42 0.01,0.21 c 0.06,1.48 0.9,1.73 1.23,1.73 1.03,0 1.13,-1.34 1.13,-1.73 h -2.36 l -0.01,-0.21 h 2.78 c 0.22,0 0.25,0 0.25,0.21 0,0.98 -0.54,1.95 -1.79,1.95 -1.15,0 -2.06,-1.03 -2.06,-2.27 0,-1.33 1.04,-2.29 2.18,-2.29 1.22,0 1.67,1.1 1.67,1.29 0,0.1 -0.08,0.12 -0.13,0.12 -0.09,0 -0.11,-0.06 -0.13,-0.14 -0.35,-1.03 -1.25,-1.03 -1.35,-1.03 -0.49,0 -0.89,0.3 -1.12,0.67 -0.3,0.48 -0.3,1.13 -0.3,1.49 z"
         inkscape:connector-curvature="0"
         style="fill:#000000;stroke-width:0" /><path
         id="path4066"
         d="m 261.5,710.67 0.09,0.02 0.09,0.02 0.08,0.03 0.09,0.02 0.08,0.03 0.08,0.03 0.08,0.04 0.07,0.03 0.08,0.04 0.07,0.04 0.07,0.04 0.07,0.04 0.06,0.05 0.06,0.05 0.06,0.05 0.06,0.05 0.05,0.05 0.05,0.05 0.05,0.06 0.04,0.05 0.04,0.06 0.04,0.06 0.04,0.06 0.03,0.06 0.03,0.07 0.02,0.06 0.02,0.07 0.02,0.06 0.01,0.07 0.01,0.06 0.01,0.07 0,0.07 c 0,0.86 -0.92,1.68 -2.21,1.68 l -0.07,-0.31 c 0.97,0 1.31,-0.84 1.31,-1.37 0,-0.64 -0.48,-1.47 -1.59,-1.47 h -1.44 v -0.22 h 1.87 c 0.99,0 1.4,-0.92 1.4,-1.59 0,-0.7 -0.51,-1.52 -1.54,-1.52 h 0 -1.24 c -0.47,0 -0.49,0.07 -0.49,0.4 v 2.71 0.22 2.45 c 0,0.32 0.02,0.39 0.49,0.39 h 1.23 l 0.07,0.31 h -3.64 v -0.31 h 0.24 c 0.76,0 0.79,-0.11 0.79,-0.46 v -5.24 c 0,-0.36 -0.03,-0.47 -0.79,-0.47 h -0.24 v -0.31 h 3.9 c 1.32,0 2.22,0.89 2.22,1.82 0,0.87 -0.82,1.61 -1.92,1.73 z"
         inkscape:connector-curvature="0"
         style="fill:#000000;stroke-width:0" /></g>    <path
       style="fill:#000000;fill-opacity:0;fill-rule:nonzero"
       inkscape:connector-curvature="0"
       d="m 224.95434,444.57535 0,225.66931"
       id="path4487" />
    <path
       style="fill-rule:evenodd;stroke:#000000;stroke-width:2;stroke-linecap:butt;stroke-linejoin:round"
       inkscape:connector-curvature="0"
       d="m 224.95434,451.42953 0,218.81512"
       id="path4489" />
    <path
       style="fill:#000000;fill-rule:evenodd;stroke:#000000;stroke-width:2;stroke-linecap:butt"
       inkscape:connector-curvature="0"
       d="m 224.95434,451.42953 2.24917,2.24918 -2.24917,-6.17954 -2.24917,6.17954 z"
       id="path4491" />
    <path
       style="fill:#000000;fill-opacity:0;fill-rule:nonzero"
       inkscape:connector-curvature="0"
       d="m 210.87822,655.70393 328.063,0"
       id="path4493" />
    <path
       style="fill-rule:evenodd;stroke:#000000;stroke-width:2;stroke-linecap:butt;stroke-linejoin:round"
       inkscape:connector-curvature="0"
       d="m 210.87822,655.70393 321.20883,0"
       id="path4495" />
    <path
       style="fill:#000000;fill-rule:evenodd;stroke:#000000;stroke-width:2;stroke-linecap:butt"
       inkscape:connector-curvature="0"
       d="m 532.08704,655.70393 -2.24918,2.24921 6.17954,-2.24921 -6.17954,-2.24915 z"
       id="path4497" />
    <path
       style="fill:#000000;fill-opacity:0;fill-rule:nonzero"
       inkscape:connector-curvature="0"
       d="m 459.54752,631.86538 0,0 c 0,-4.18347 3.39136,-7.57483 7.5748,-7.57483 l 0,0 c 2.00894,0 3.93564,0.7981 5.3562,2.21863 1.42053,1.42053 2.2186,3.34723 2.2186,5.3562 l 0,0 c 0,4.18347 -3.39136,7.57483 -7.5748,7.57483 l 0,0 c -4.18344,0 -7.5748,-3.39136 -7.5748,-7.57483 z"
       id="path4499" />
    <path
       style="fill-rule:nonzero;stroke:#000000;stroke-width:2;stroke-linecap:butt;stroke-linejoin:round"
       inkscape:connector-curvature="0"
       d="m 459.54752,631.86538 0,0 c 0,-4.18347 3.39136,-7.57483 7.5748,-7.57483 l 0,0 c 2.00894,0 3.93564,0.7981 5.3562,2.21863 1.42053,1.42053 2.2186,3.34723 2.2186,5.3562 l 0,0 c 0,4.18347 -3.39136,7.57483 -7.5748,7.57483 l 0,0 c -4.18344,0 -7.5748,-3.39136 -7.5748,-7.57483 z"
       id="path4501" />
    <path
       style="fill:#000000;fill-opacity:0;fill-rule:nonzero"
       inkscape:connector-curvature="0"
       d="m 406.96219,567.25906 0,0 c 0,-4.18341 3.39136,-7.57477 7.57483,-7.57477 l 0,0 c 2.00894,0 3.93564,0.79804 5.35617,2.21857 1.42056,1.42059 2.21863,3.34729 2.21863,5.3562 l 0,0 c 0,4.18347 -3.39136,7.57483 -7.5748,7.57483 l 0,0 c -4.18347,0 -7.57483,-3.39136 -7.57483,-7.57483 z"
       id="path4503" />
    <path
       style="fill-rule:nonzero;stroke:#000000;stroke-width:2;stroke-linecap:butt;stroke-linejoin:round"
       inkscape:connector-curvature="0"
       d="m 406.96219,567.25906 0,0 c 0,-4.18341 3.39136,-7.57477 7.57483,-7.57477 l 0,0 c 2.00894,0 3.93564,0.79804 5.35617,2.21857 1.42056,1.42059 2.21863,3.34729 2.21863,5.3562 l 0,0 c 0,4.18347 -3.39136,7.57483 -7.5748,7.57483 l 0,0 c -4.18347,0 -7.57483,-3.39136 -7.57483,-7.57483 z"
       id="path4505" />
    <path
       style="fill:#000000;fill-opacity:0;fill-rule:nonzero"
       inkscape:connector-curvature="0"
       d="m 365.6735,536.08847 0,0 c 0,-4.18344 3.39136,-7.5748 7.5748,-7.5748 l 0,0 c 2.00896,0 3.93564,0.79807 5.3562,2.21863 1.42055,1.42053 2.2186,3.34723 2.2186,5.35617 l 0,0 c 0,4.18347 -3.39135,7.57483 -7.5748,7.57483 l 0,0 c -4.18344,0 -7.5748,-3.39136 -7.5748,-7.57483 z"
       id="path4507" />
    <path
       style="fill-rule:nonzero;stroke:#000000;stroke-width:2;stroke-linecap:butt;stroke-linejoin:round"
       inkscape:connector-curvature="0"
       d="m 363.53064,535.73132 0,0 c 0,-4.18344 3.39136,-7.5748 7.5748,-7.5748 l 0,0 c 2.00896,0 3.93564,0.79807 5.3562,2.21863 1.42055,1.42053 2.2186,3.34723 2.2186,5.35617 l 0,0 c 0,4.18347 -3.39135,7.57483 -7.5748,7.57483 l 0,0 c -4.18344,0 -7.5748,-3.39136 -7.5748,-7.57483 z"
       id="path4509" />
    <path
       style="fill:#000000;fill-opacity:0;fill-rule:nonzero"
       inkscape:connector-curvature="0"
       d="m 437.25092,609.83653 0,0 c 0,-4.18347 3.39136,-7.57483 7.5748,-7.57483 l 0,0 c 2.00897,0 3.93564,0.7981 5.3562,2.21863 1.42056,1.42053 2.2186,3.34723 2.2186,5.3562 l 0,0 c 0,4.18347 -3.39136,7.57483 -7.5748,7.57483 l 0,0 c -4.18344,0 -7.5748,-3.39136 -7.5748,-7.57483 z"
       id="path4511" />
    <path
       style="fill-rule:nonzero;stroke:#000000;stroke-width:2;stroke-linecap:butt;stroke-linejoin:round"
       inkscape:connector-curvature="0"
       d="m 437.25092,609.83653 0,0 c 0,-4.18347 3.39136,-7.57483 7.5748,-7.57483 l 0,0 c 2.00897,0 3.93564,0.7981 5.3562,2.21863 1.42056,1.42053 2.2186,3.34723 2.2186,5.3562 l 0,0 c 0,4.18347 -3.39136,7.57483 -7.5748,7.57483 l 0,0 c -4.18344,0 -7.5748,-3.39136 -7.5748,-7.57483 z"
       id="path4513" />
    <path
       style="fill:#000000;fill-opacity:0;fill-rule:nonzero"
       inkscape:connector-curvature="0"
       d="m 461.88346,601.56619 0,0 c 0,-4.18347 3.39136,-7.57483 7.5748,-7.57483 l 0,0 c 2.00897,0 3.93567,0.79804 5.3562,2.21863 1.42056,1.42053 2.21863,3.34723 2.21863,5.3562 l 0,0 c 0,4.18341 -3.39136,7.57477 -7.57483,7.57477 l 0,0 c -4.18344,0 -7.5748,-3.39136 -7.5748,-7.57477 z"
       id="path4515" />
    <path
       style="fill-rule:nonzero;stroke:#000000;stroke-width:2;stroke-linecap:butt;stroke-linejoin:round"
       inkscape:connector-curvature="0"
       d="m 461.88346,601.56619 0,0 c 0,-4.18347 3.39136,-7.57483 7.5748,-7.57483 l 0,0 c 2.00897,0 3.93567,0.79804 5.3562,2.21863 1.42056,1.42053 2.21863,3.34723 2.21863,5.3562 l 0,0 c 0,4.18341 -3.39136,7.57477 -7.57483,7.57477 l 0,0 c -4.18344,0 -7.5748,-3.39136 -7.5748,-7.57477 z"
       id="path4517" />
    <path
       style="fill:#000000;fill-opacity:0;fill-rule:nonzero"
       inkscape:connector-curvature="0"
       d="m 363.37429,571.97563 0,0 c 0,-4.18347 3.39134,-7.57477 7.5748,-7.57477 l 0,0 c 2.00896,0 3.93564,0.79804 5.35618,2.21857 1.42057,1.42053 2.21862,3.34723 2.21862,5.3562 l 0,0 c 0,4.18347 -3.39136,7.57483 -7.5748,7.57483 l 0,0 c -4.18346,0 -7.5748,-3.39136 -7.5748,-7.57483 z"
       id="path4519" />
    <path
       style="fill-rule:nonzero;stroke:#000000;stroke-width:2;stroke-linecap:butt;stroke-linejoin:round"
       inkscape:connector-curvature="0"
       d="m 363.37429,571.97563 0,0 c 0,-4.18347 3.39134,-7.57477 7.5748,-7.57477 l 0,0 c 2.00896,0 3.93564,0.79804 5.35618,2.21857 1.42057,1.42053 2.21862,3.34723 2.21862,5.3562 l 0,0 c 0,4.18347 -3.39136,7.57483 -7.5748,7.57483 l 0,0 c -4.18346,0 -7.5748,-3.39136 -7.5748,-7.57483 z"
       id="path4521" />
    <path
       style="fill:#000000;fill-opacity:0;fill-rule:nonzero"
       inkscape:connector-curvature="0"
       d="m 384.14594,548.2381 0,0 c 0,-4.18347 3.39136,-7.5748 7.5748,-7.5748 l 0,0 c 2.00897,0 3.93564,0.79804 5.3562,2.2186 1.42053,1.42056 2.2186,3.34723 2.2186,5.3562 l 0,0 c 0,4.18344 -3.39136,7.5748 -7.5748,7.5748 l 0,0 c -4.18344,0 -7.5748,-3.39136 -7.5748,-7.5748 z"
       id="path4523" />
    <path
       style="fill-rule:nonzero;stroke:#000000;stroke-width:2;stroke-linecap:butt;stroke-linejoin:round"
       inkscape:connector-curvature="0"
       d="m 384.14594,548.2381 0,0 c 0,-4.18347 3.39136,-7.5748 7.5748,-7.5748 l 0,0 c 2.00897,0 3.93564,0.79804 5.3562,2.2186 1.42053,1.42056 2.2186,3.34723 2.2186,5.3562 l 0,0 c 0,4.18344 -3.39136,7.5748 -7.5748,7.5748 l 0,0 c -4.18344,0 -7.5748,-3.39136 -7.5748,-7.5748 z"
       id="path4525" />
    <path
       style="fill:#000000;fill-opacity:0;fill-rule:nonzero"
       inkscape:connector-curvature="0"
       d="m 424.45039,589.26433 0,0 c 0,-4.18341 3.39136,-7.57477 7.57483,-7.57477 l 0,0 c 2.00894,0 3.93564,0.79804 5.35617,2.21857 1.42056,1.42059 2.21863,3.34729 2.21863,5.3562 l 0,0 c 0,4.18347 -3.39136,7.57483 -7.5748,7.57483 l 0,0 c -4.18347,0 -7.57483,-3.39136 -7.57483,-7.57483 z"
       id="path4527" />
    <path
       style="fill-rule:nonzero;stroke:#000000;stroke-width:2;stroke-linecap:butt;stroke-linejoin:round"
       inkscape:connector-curvature="0"
       d="m 424.45039,589.26433 0,0 c 0,-4.18341 3.39136,-7.57477 7.57483,-7.57477 l 0,0 c 2.00894,0 3.93564,0.79804 5.35617,2.21857 1.42056,1.42059 2.21863,3.34729 2.21863,5.3562 l 0,0 c 0,4.18347 -3.39136,7.57483 -7.5748,7.57483 l 0,0 c -4.18347,0 -7.57483,-3.39136 -7.57483,-7.57483 z"
       id="path4529" />
    <path
       style="fill:#999999;fill-rule:nonzero"
       inkscape:connector-curvature="0"
       d="m 287.14332,498.98086 6.70865,-7.05511 6.70866,7.05511 -6.70866,7.05511 z"
       id="path4531" />
    <path
       style="fill:#999999;fill-rule:nonzero"
       inkscape:connector-curvature="0"
       d="m 278.90972,512.34963 6.70866,-7.05511 6.70865,7.05511 -6.70865,7.05511 z"
       id="path4533" />
    <path
       style="fill:#999999;fill-rule:nonzero"
       inkscape:connector-curvature="0"
       d="m 275.0357,545.94937 6.70866,-7.05511 6.70867,7.05511 -6.70867,7.05511 z"
       id="path4535" />
    <path
       style="fill:#999999;fill-rule:nonzero"
       inkscape:connector-curvature="0"
       d="m 314.08031,498.98086 6.70866,-7.05511 6.70867,7.05511 -6.70867,7.05511 z"
       id="path4537" />
    <path
       style="fill:#999999;fill-rule:nonzero"
       inkscape:connector-curvature="0"
       d="m 325.29292,478.35883 6.70866,-7.05511 6.70867,7.05511 -6.70867,7.05511 z"
       id="path4539" />
    <path
       style="fill:#999999;fill-rule:nonzero"
       inkscape:connector-curvature="0"
       d="m 350.82309,481.19348 6.70866,-7.05515 6.70867,7.05515 -6.70867,7.05511 z"
       id="path4541" />
    <path
       style="fill:#999999;fill-rule:nonzero"
       inkscape:connector-curvature="0"
       d="m 382.70762,473.73416 6.70865,-7.05511 6.70868,7.05511 -6.70868,7.05511 z"
       id="path4543" />
    <path
       style="fill:#999999;fill-rule:nonzero"
       inkscape:connector-curvature="0"
       d="m 254.21155,560.57933 6.70867,-7.05515 6.70866,7.05515 -6.70866,7.05511 z"
       id="path4545" />
    <path
       style="fill:#999999;fill-rule:nonzero"
       inkscape:connector-curvature="0"
       d="m 267.62889,527.2066 6.70865,-7.05511 6.70866,7.05511 -6.70866,7.05511 z"
       id="path4547" />
    <path
       style="fill:#999999;fill-rule:nonzero"
       inkscape:connector-curvature="0"
       d="m 257.76536,584.71579 6.70866,-7.05511 6.70867,7.05511 -6.70867,7.05511 z"
       id="path4549" />
    <path
       style="fill:#999999;fill-rule:nonzero"
       inkscape:connector-curvature="0"
       d="m 260.20631,510.08059 6.70866,-7.05511 6.70867,7.05511 -6.70867,7.05511 z"
       id="path4551" />
    <path
       style="fill:#999999;fill-rule:nonzero"
       inkscape:connector-curvature="0"
       d="m 297.49502,481.19348 6.70866,-7.05515 6.70867,7.05515 -6.70867,7.05511 z"
       id="path4553" />
    <path
       style="fill:#999999;fill-rule:nonzero"
       inkscape:connector-curvature="0"
       d="m 338.71024,464.24859 6.70866,-7.05511 6.70867,7.05511 -6.70867,7.05511 z"
       id="path4555" />
    <path
       style="fill:#999999;fill-rule:nonzero"
       inkscape:connector-curvature="0"
       d="m 364.24042,464.24859 6.70866,-7.05511 6.70867,7.05511 -6.70867,7.05511 z"
       id="path4557" />
    <path
       style="fill:#000000;fill-opacity:0;fill-rule:nonzero"
       inkscape:connector-curvature="0"
       d="m 327.49764,575.25778 0,0 c 0,-4.18347 3.39136,-7.57483 7.5748,-7.57483 l 0,0 c 2.00897,0 3.93565,0.7981 5.3562,2.21863 1.42055,1.42053 2.21861,3.34723 2.21861,5.3562 l 0,0 c 0,4.18341 -3.39136,7.57477 -7.57481,7.57477 l 0,0 c -4.18344,0 -7.5748,-3.39136 -7.5748,-7.57477 z"
       id="path4559" />
    <path
       style="fill-rule:nonzero;stroke:#000000;stroke-width:2;stroke-linecap:butt;stroke-linejoin:round"
       inkscape:connector-curvature="0"
       d="m 327.49764,575.25778 0,0 c 0,-4.18347 3.39136,-7.57483 7.5748,-7.57483 l 0,0 c 2.00897,0 3.93565,0.7981 5.3562,2.21863 1.42055,1.42053 2.21861,3.34723 2.21861,5.3562 l 0,0 c 0,4.18341 -3.39136,7.57477 -7.57481,7.57477 l 0,0 c -4.18344,0 -7.5748,-3.39136 -7.5748,-7.57477 z"
       id="path4561" />
    <path
       style="fill:#000000;fill-opacity:0;fill-rule:nonzero"
       inkscape:connector-curvature="0"
       d="m 434.42414,630.41003 0,0 c 0,-4.18347 3.39136,-7.57483 7.57483,-7.57483 l 0,0 c 2.00894,0 3.93564,0.7981 5.35617,2.21863 1.42056,1.42053 2.21863,3.34723 2.21863,5.3562 l 0,0 c 0,4.18347 -3.39136,7.57483 -7.5748,7.57483 l 0,0 c -4.18347,0 -7.57483,-3.39136 -7.57483,-7.57483 z"
       id="path4563" />
    <path
       style="fill-rule:nonzero;stroke:#000000;stroke-width:2;stroke-linecap:butt;stroke-linejoin:round"
       inkscape:connector-curvature="0"
       d="m 434.42414,630.41003 0,0 c 0,-4.18347 3.39136,-7.57483 7.57483,-7.57483 l 0,0 c 2.00894,0 3.93564,0.7981 5.35617,2.21863 1.42056,1.42053 2.21863,3.34723 2.21863,5.3562 l 0,0 c 0,4.18347 -3.39136,7.57483 -7.5748,7.57483 l 0,0 c -4.18347,0 -7.57483,-3.39136 -7.57483,-7.57483 z"
       id="path4565" />
    <path
       style="fill:#000000;fill-opacity:0;fill-rule:nonzero"
       inkscape:connector-curvature="0"
       d="m 374.86773,596.21183 0,0 c 0,-4.18341 3.39134,-7.57477 7.5748,-7.57477 l 0,0 c 2.00896,0 3.93565,0.79804 5.35618,2.21857 1.42057,1.42059 2.21863,3.34723 2.21863,5.3562 l 0,0 c 0,4.18347 -3.39135,7.57483 -7.57481,7.57483 l 0,0 c -4.18346,0 -7.5748,-3.39136 -7.5748,-7.57483 z"
       id="path4567" />
    <path
       style="fill-rule:nonzero;stroke:#000000;stroke-width:2;stroke-linecap:butt;stroke-linejoin:round"
       inkscape:connector-curvature="0"
       d="m 374.86773,596.21183 0,0 c 0,-4.18341 3.39134,-7.57477 7.5748,-7.57477 l 0,0 c 2.00896,0 3.93565,0.79804 5.35618,2.21857 1.42057,1.42059 2.21863,3.34723 2.21863,5.3562 l 0,0 c 0,4.18347 -3.39135,7.57483 -7.57481,7.57483 l 0,0 c -4.18346,0 -7.5748,-3.39136 -7.5748,-7.57483 z"
       id="path4569" />
    <path
       style="fill:#000000;fill-opacity:0;fill-rule:nonzero"
       inkscape:connector-curvature="0"
       d="m 409.30079,614.76303 0,0 c 0,-4.18347 3.39136,-7.57483 7.5748,-7.57483 l 0,0 c 2.00897,0 3.93564,0.7981 5.3562,2.21863 1.42056,1.42053 2.2186,3.34723 2.2186,5.3562 l 0,0 c 0,4.18341 -3.39133,7.57477 -7.5748,7.57477 l 0,0 c -4.18344,0 -7.5748,-3.39136 -7.5748,-7.57477 z"
       id="path4571" />
    <path
       style="fill-rule:nonzero;stroke:#000000;stroke-width:2;stroke-linecap:butt;stroke-linejoin:round"
       inkscape:connector-curvature="0"
       d="m 409.30079,614.76303 0,0 c 0,-4.18347 3.39136,-7.57483 7.5748,-7.57483 l 0,0 c 2.00897,0 3.93564,0.7981 5.3562,2.21863 1.42056,1.42053 2.2186,3.34723 2.2186,5.3562 l 0,0 c 0,4.18341 -3.39133,7.57477 -7.5748,7.57477 l 0,0 c -4.18344,0 -7.5748,-3.39136 -7.5748,-7.57477 z"
       id="path4573" />
    <path
       style="fill:#999999;fill-rule:nonzero"
       inkscape:connector-curvature="0"
       d="m 342.64725,550.55697 6.70866,-14.11023 6.70865,14.11023 z"
       id="path4575" />
    <path
       style="fill-rule:nonzero;stroke:#000000;stroke-width:2;stroke-linecap:butt;stroke-linejoin:round"
       inkscape:connector-curvature="0"
       d="m 342.64725,550.55697 6.70866,-14.11023 6.70865,14.11023 z"
       id="path4577" />
    <path
       style="fill:#999999;fill-rule:nonzero"
       inkscape:connector-curvature="0"
       d="m 306.54565,509.31149 2.86003,-2.86005 3.03816,3.03815 3.03815,-3.03815 2.86005,2.86005 -3.03817,3.03815 3.03817,3.03814 -2.86005,2.86005 -3.03815,-3.03815 -3.03816,3.03815 -2.86003,-2.86005 3.03816,-3.03814 z"
       id="path4579" />
    <path
       style="fill:#000000;fill-opacity:0;fill-rule:nonzero"
       inkscape:connector-curvature="0"
       d="m 398.34069,583.21413 2.86005,-2.86005 3.03814,3.03815 3.03815,-3.03815 2.86005,2.86005 -3.03815,3.03815 3.03815,3.03814 -2.86005,2.86005 -3.03815,-3.03815 -3.03814,3.03815 -2.86005,-2.86005 3.03815,-3.03814 z"
       id="path4581" />
    <path
       style="fill-rule:nonzero;stroke:#000000;stroke-width:2;stroke-linecap:butt;stroke-linejoin:round"
       inkscape:connector-curvature="0"
       d="m 398.34069,583.21413 2.86005,-2.86005 3.03814,3.03815 3.03815,-3.03815 2.86005,2.86005 -3.03815,3.03815 3.03815,3.03814 -2.86005,2.86005 -3.03815,-3.03815 -3.03814,3.03815 -2.86005,-2.86005 3.03815,-3.03814 z"
       id="path4583" />
  </g>
</svg>
