<?xml version="1.0" encoding="UTF-8" standalone="no"?>
<!-- Created with Inkscape (http://www.inkscape.org/) -->

<svg
   xmlns:ns0="http://www.iki.fi/pav/software/textext/"
   xmlns:dc="http://purl.org/dc/elements/1.1/"
   xmlns:cc="http://creativecommons.org/ns#"
   xmlns:rdf="http://www.w3.org/1999/02/22-rdf-syntax-ns#"
   xmlns:svg="http://www.w3.org/2000/svg"
   xmlns="http://www.w3.org/2000/svg"
   xmlns:xlink="http://www.w3.org/1999/xlink"
   xmlns:sodipodi="http://sodipodi.sourceforge.net/DTD/sodipodi-0.dtd"
   xmlns:inkscape="http://www.inkscape.org/namespaces/inkscape"
   sodipodi:docname="naive.pdf"
   inkscape:version="0.48.4 r9939"
   version="1.1"
   id="svg3210"
   height="229.34723"
   width="379.52371">
  <sodipodi:namedview
     id="base"
     pagecolor="#ffffff"
     bordercolor="#666666"
     borderopacity="1.0"
     inkscape:pageopacity="0.0"
     inkscape:pageshadow="2"
     inkscape:zoom="1.4"
     inkscape:cx="86.244998"
     inkscape:cy="143.75327"
     inkscape:document-units="px"
     inkscape:current-layer="layer1"
     showgrid="false"
     fit-margin-top="0"
     fit-margin-left="0"
     fit-margin-right="0"
     fit-margin-bottom="0"
     inkscape:window-width="1920"
     inkscape:window-height="1014"
     inkscape:window-x="0"
     inkscape:window-y="27"
     inkscape:window-maximized="1" />
  <defs
     id="defs3212" />
  <metadata
     id="metadata3215">
    <rdf:RDF>
      <cc:Work
         rdf:about="">
        <dc:format>image/svg+xml</dc:format>
        <dc:type
           rdf:resource="http://purl.org/dc/dcmitype/StillImage" />
        <dc:title></dc:title>
      </cc:Work>
    </rdf:RDF>
  </metadata>
  <g
     transform="translate(-159.5078,-443.87399)"
     id="layer1"
     inkscape:groupmode="layer"
     inkscape:label="Layer 1">
    <path
       id="path82"
       d="m 225.04462,443.87399 0,225.66931"
       inkscape:connector-curvature="0"
       style="fill:#000000;fill-opacity:0;fill-rule:nonzero" />
    <path
       id="path86"
       d="m 210.9685,655.00257 328.063,0"
       inkscape:connector-curvature="0"
       style="fill:#000000;fill-opacity:0;fill-rule:nonzero" />
    <path
       id="path166"
       d="m 242.90791,443.87399 84.8189,0 0,33.13388 -84.8189,0 z"
       inkscape:connector-curvature="0"
       style="fill:#000000;fill-opacity:0;fill-rule:nonzero" />
    <path
       id="path170"
       d="m 433.36723,554.95013 84.81888,0 0,33.13382 -84.81888,0 z"
       inkscape:connector-curvature="0"
       style="fill:#000000;fill-opacity:0;fill-rule:nonzero" />
    <path
       id="path174"
       d="m 321.40157,535.25195 56.18898,0 0,33.13388 -56.18898,0 z"
       inkscape:connector-curvature="0"
       style="fill:#000000;fill-opacity:0;fill-rule:nonzero" />
    <path
       id="path4487"
       d="m 224.95434,444.57535 0,225.66931"
       inkscape:connector-curvature="0"
       style="fill:#000000;fill-opacity:0;fill-rule:nonzero" />
    <path
       id="path4489"
       d="m 224.95434,451.42953 0,218.81512"
       inkscape:connector-curvature="0"
       style="fill-rule:evenodd;stroke:#000000;stroke-width:2;stroke-linecap:butt;stroke-linejoin:round" />
    <path
       id="path4491"
       d="m 224.95434,451.42953 2.24917,2.24918 -2.24917,-6.17954 -2.24917,6.17954 z"
       inkscape:connector-curvature="0"
       style="fill:#000000;fill-rule:evenodd;stroke:#000000;stroke-width:2;stroke-linecap:butt" />
    <path
       id="path4493"
       d="m 210.87822,655.70393 328.063,0"
       inkscape:connector-curvature="0"
       style="fill:#000000;fill-opacity:0;fill-rule:nonzero" />
    <path
       id="path4495"
       d="m 210.87822,655.70393 321.20883,0"
       inkscape:connector-curvature="0"
       style="fill-rule:evenodd;stroke:#000000;stroke-width:2;stroke-linecap:butt;stroke-linejoin:round" />
    <path
       id="path4497"
       d="m 532.08704,655.70393 -2.24918,2.24921 6.17954,-2.24921 -6.17954,-2.24915 z"
       inkscape:connector-curvature="0"
       style="fill:#000000;fill-rule:evenodd;stroke:#000000;stroke-width:2;stroke-linecap:butt" />
    <path
       id="path4499"
       d="m 459.54752,631.86538 0,0 c 0,-4.18347 3.39136,-7.57483 7.5748,-7.57483 l 0,0 c 2.00894,0 3.93564,0.7981 5.3562,2.21863 1.42053,1.42053 2.2186,3.34723 2.2186,5.3562 l 0,0 c 0,4.18347 -3.39136,7.57483 -7.5748,7.57483 l 0,0 c -4.18344,0 -7.5748,-3.39136 -7.5748,-7.57483 z"
       inkscape:connector-curvature="0"
       style="fill:#000000;fill-opacity:0;fill-rule:nonzero;stroke:none" />
    <path
       id="path4501"
       d="m 459.54752,631.86538 0,0 c 0,-4.18347 3.39136,-7.57483 7.5748,-7.57483 l 0,0 c 2.00894,0 3.93564,0.7981 5.3562,2.21863 1.42053,1.42053 2.2186,3.34723 2.2186,5.3562 l 0,0 c 0,4.18347 -3.39136,7.57483 -7.5748,7.57483 l 0,0 c -4.18344,0 -7.5748,-3.39136 -7.5748,-7.57483 z"
       inkscape:connector-curvature="0"
       style="fill-rule:nonzero;stroke:none" />
    <path
       id="path4503"
       d="m 406.96219,567.25906 0,0 c 0,-4.18341 3.39136,-7.57477 7.57483,-7.57477 l 0,0 c 2.00894,0 3.93564,0.79804 5.35617,2.21857 1.42056,1.42059 2.21863,3.34729 2.21863,5.3562 l 0,0 c 0,4.18347 -3.39136,7.57483 -7.5748,7.57483 l 0,0 c -4.18347,0 -7.57483,-3.39136 -7.57483,-7.57483 z"
       inkscape:connector-curvature="0"
       style="fill:#000000;fill-opacity:0;fill-rule:nonzero;stroke:none" />
    <path
       id="path4505"
       d="m 406.96219,567.25906 0,0 c 0,-4.18341 3.39136,-7.57477 7.57483,-7.57477 l 0,0 c 2.00894,0 3.93564,0.79804 5.35617,2.21857 1.42056,1.42059 2.21863,3.34729 2.21863,5.3562 l 0,0 c 0,4.18347 -3.39136,7.57483 -7.5748,7.57483 l 0,0 c -4.18347,0 -7.57483,-3.39136 -7.57483,-7.57483 z"
       inkscape:connector-curvature="0"
       style="fill-rule:nonzero;stroke:none" />
    <path
       id="path4507"
       d="m 365.6735,536.08847 0,0 c 0,-4.18344 3.39136,-7.5748 7.5748,-7.5748 l 0,0 c 2.00896,0 3.93564,0.79807 5.3562,2.21863 1.42055,1.42053 2.2186,3.34723 2.2186,5.35617 l 0,0 c 0,4.18347 -3.39135,7.57483 -7.5748,7.57483 l 0,0 c -4.18344,0 -7.5748,-3.39136 -7.5748,-7.57483 z"
       inkscape:connector-curvature="0"
       style="fill:#000000;fill-opacity:0;fill-rule:nonzero;stroke:none" />
    <path
       id="path4511"
       d="m 437.25092,609.83653 0,0 c 0,-4.18347 3.39136,-7.57483 7.5748,-7.57483 l 0,0 c 2.00897,0 3.93564,0.7981 5.3562,2.21863 1.42056,1.42053 2.2186,3.34723 2.2186,5.3562 l 0,0 c 0,4.18347 -3.39136,7.57483 -7.5748,7.57483 l 0,0 c -4.18344,0 -7.5748,-3.39136 -7.5748,-7.57483 z"
       inkscape:connector-curvature="0"
       style="fill:#000000;fill-opacity:0;fill-rule:nonzero;stroke:none" />
    <path
       id="path4513"
       d="m 437.25092,609.83653 0,0 c 0,-4.18347 3.39136,-7.57483 7.5748,-7.57483 l 0,0 c 2.00897,0 3.93564,0.7981 5.3562,2.21863 1.42056,1.42053 2.2186,3.34723 2.2186,5.3562 l 0,0 c 0,4.18347 -3.39136,7.57483 -7.5748,7.57483 l 0,0 c -4.18344,0 -7.5748,-3.39136 -7.5748,-7.57483 z"
       inkscape:connector-curvature="0"
       style="fill-rule:nonzero;stroke:none" />
    <path
       id="path4515"
       d="m 461.88346,601.56619 0,0 c 0,-4.18347 3.39136,-7.57483 7.5748,-7.57483 l 0,0 c 2.00897,0 3.93567,0.79804 5.3562,2.21863 1.42056,1.42053 2.21863,3.34723 2.21863,5.3562 l 0,0 c 0,4.18341 -3.39136,7.57477 -7.57483,7.57477 l 0,0 c -4.18344,0 -7.5748,-3.39136 -7.5748,-7.57477 z"
       inkscape:connector-curvature="0"
       style="fill:#000000;fill-opacity:0;fill-rule:nonzero;stroke:none" />
    <path
       id="path4517"
       d="m 461.88346,601.56619 0,0 c 0,-4.18347 3.39136,-7.57483 7.5748,-7.57483 l 0,0 c 2.00897,0 3.93567,0.79804 5.3562,2.21863 1.42056,1.42053 2.21863,3.34723 2.21863,5.3562 l 0,0 c 0,4.18341 -3.39136,7.57477 -7.57483,7.57477 l 0,0 c -4.18344,0 -7.5748,-3.39136 -7.5748,-7.57477 z"
       inkscape:connector-curvature="0"
       style="fill-rule:nonzero;stroke:none" />
    <path
       id="path4519"
       d="m 363.37429,571.97563 0,0 c 0,-4.18347 3.39134,-7.57477 7.5748,-7.57477 l 0,0 c 2.00896,0 3.93564,0.79804 5.35618,2.21857 1.42057,1.42053 2.21862,3.34723 2.21862,5.3562 l 0,0 c 0,4.18347 -3.39136,7.57483 -7.5748,7.57483 l 0,0 c -4.18346,0 -7.5748,-3.39136 -7.5748,-7.57483 z"
       inkscape:connector-curvature="0"
       style="fill:#000000;fill-opacity:0;fill-rule:nonzero;stroke:none" />
    <path
       id="path4523"
       d="m 384.14594,548.2381 0,0 c 0,-4.18347 3.39136,-7.5748 7.5748,-7.5748 l 0,0 c 2.00897,0 3.93564,0.79804 5.3562,2.2186 1.42053,1.42056 2.2186,3.34723 2.2186,5.3562 l 0,0 c 0,4.18344 -3.39136,7.5748 -7.5748,7.5748 l 0,0 c -4.18344,0 -7.5748,-3.39136 -7.5748,-7.5748 z"
       inkscape:connector-curvature="0"
       style="fill:#000000;fill-opacity:0;fill-rule:nonzero;stroke:none" />
    <path
       id="path4527"
       d="m 424.45039,589.26433 0,0 c 0,-4.18341 3.39136,-7.57477 7.57483,-7.57477 l 0,0 c 2.00894,0 3.93564,0.79804 5.35617,2.21857 1.42056,1.42059 2.21863,3.34729 2.21863,5.3562 l 0,0 c 0,4.18347 -3.39136,7.57483 -7.5748,7.57483 l 0,0 c -4.18347,0 -7.57483,-3.39136 -7.57483,-7.57483 z"
       inkscape:connector-curvature="0"
       style="fill:#000000;fill-opacity:0;fill-rule:nonzero;stroke:none" />
    <path
       id="path4529"
       d="m 424.45039,589.26433 0,0 c 0,-4.18341 3.39136,-7.57477 7.57483,-7.57477 l 0,0 c 2.00894,0 3.93564,0.79804 5.35617,2.21857 1.42056,1.42059 2.21863,3.34729 2.21863,5.3562 l 0,0 c 0,4.18347 -3.39136,7.57483 -7.5748,7.57483 l 0,0 c -4.18347,0 -7.57483,-3.39136 -7.57483,-7.57483 z"
       inkscape:connector-curvature="0"
       style="fill-rule:nonzero;stroke:none" />
    <path
       id="path4531"
       d="m 287.14332,498.98086 6.70865,-7.05511 6.70866,7.05511 -6.70866,7.05511 z"
       inkscape:connector-curvature="0"
       style="fill:#999999;fill-rule:nonzero" />
    <path
       id="path4533"
       d="m 278.90972,512.34963 6.70866,-7.05511 6.70865,7.05511 -6.70865,7.05511 z"
       inkscape:connector-curvature="0"
       style="fill:#999999;fill-rule:nonzero" />
    <path
       id="path4535"
       d="m 275.0357,545.94937 6.70866,-7.05511 6.70867,7.05511 -6.70867,7.05511 z"
       inkscape:connector-curvature="0"
       style="fill:#999999;fill-rule:nonzero" />
    <path
       id="path4537"
       d="m 314.08031,498.98086 6.70866,-7.05511 6.70867,7.05511 -6.70867,7.05511 z"
       inkscape:connector-curvature="0"
       style="fill:#999999;fill-rule:nonzero" />
    <path
       id="path4539"
       d="m 325.29292,478.35883 6.70866,-7.05511 6.70867,7.05511 -6.70867,7.05511 z"
       inkscape:connector-curvature="0"
       style="fill:#999999;fill-rule:nonzero" />
    <path
       id="path4541"
       d="m 350.82309,481.19348 6.70866,-7.05515 6.70867,7.05515 -6.70867,7.05511 z"
       inkscape:connector-curvature="0"
       style="fill:#999999;fill-rule:nonzero" />
    <path
       id="path4543"
       d="m 382.70762,473.73416 6.70865,-7.05511 6.70868,7.05511 -6.70868,7.05511 z"
       inkscape:connector-curvature="0"
       style="fill:#999999;fill-rule:nonzero" />
    <path
       id="path4545"
       d="m 254.21155,560.57933 6.70867,-7.05515 6.70866,7.05515 -6.70866,7.05511 z"
       inkscape:connector-curvature="0"
       style="fill:#999999;fill-rule:nonzero" />
    <path
       id="path4547"
       d="m 267.62889,527.2066 6.70865,-7.05511 6.70866,7.05511 -6.70866,7.05511 z"
       inkscape:connector-curvature="0"
       style="fill:#999999;fill-rule:nonzero;stroke:none" />
    <path
       id="path4549"
       d="m 257.76536,584.71579 6.70866,-7.05511 6.70867,7.05511 -6.70867,7.05511 z"
       inkscape:connector-curvature="0"
       style="fill:#999999;fill-rule:nonzero" />
    <path
       id="path4551"
       d="m 260.20631,510.08059 6.70866,-7.05511 6.70867,7.05511 -6.70867,7.05511 z"
       inkscape:connector-curvature="0"
       style="fill:#999999;fill-rule:nonzero" />
    <path
       id="path4553"
       d="m 297.49502,481.19348 6.70866,-7.05515 6.70867,7.05515 -6.70867,7.05511 z"
       inkscape:connector-curvature="0"
       style="fill:#999999;fill-rule:nonzero" />
    <path
       id="path4555"
       d="m 338.71024,464.24859 6.70866,-7.05511 6.70867,7.05511 -6.70867,7.05511 z"
       inkscape:connector-curvature="0"
       style="fill:#999999;fill-rule:nonzero" />
    <path
       id="path4557"
       d="m 364.24042,464.24859 6.70866,-7.05511 6.70867,7.05511 -6.70867,7.05511 z"
       inkscape:connector-curvature="0"
       style="fill:#999999;fill-rule:nonzero" />
    <path
       id="path4559"
       d="m 327.49764,575.25778 0,0 c 0,-4.18347 3.39136,-7.57483 7.5748,-7.57483 l 0,0 c 2.00897,0 3.93565,0.7981 5.3562,2.21863 1.42055,1.42053 2.21861,3.34723 2.21861,5.3562 l 0,0 c 0,4.18341 -3.39136,7.57477 -7.57481,7.57477 l 0,0 c -4.18344,0 -7.5748,-3.39136 -7.5748,-7.57477 z"
       inkscape:connector-curvature="0"
       style="fill:#000000;fill-opacity:0;fill-rule:nonzero" />
    <path
       id="path4563"
       d="m 434.42414,630.41003 0,0 c 0,-4.18347 3.39136,-7.57483 7.57483,-7.57483 l 0,0 c 2.00894,0 3.93564,0.7981 5.35617,2.21863 1.42056,1.42053 2.21863,3.34723 2.21863,5.3562 l 0,0 c 0,4.18347 -3.39136,7.57483 -7.5748,7.57483 l 0,0 c -4.18347,0 -7.57483,-3.39136 -7.57483,-7.57483 z"
       inkscape:connector-curvature="0"
       style="fill:#000000;fill-opacity:0;fill-rule:nonzero;stroke:none" />
    <path
       id="path4565"
       d="m 434.42414,630.41003 0,0 c 0,-4.18347 3.39136,-7.57483 7.57483,-7.57483 l 0,0 c 2.00894,0 3.93564,0.7981 5.35617,2.21863 1.42056,1.42053 2.21863,3.34723 2.21863,5.3562 l 0,0 c 0,4.18347 -3.39136,7.57483 -7.5748,7.57483 l 0,0 c -4.18347,0 -7.57483,-3.39136 -7.57483,-7.57483 z"
       inkscape:connector-curvature="0"
       style="fill-rule:nonzero;stroke:none" />
    <path
       id="path4567"
       d="m 374.86773,596.21183 0,0 c 0,-4.18341 3.39134,-7.57477 7.5748,-7.57477 l 0,0 c 2.00896,0 3.93565,0.79804 5.35618,2.21857 1.42057,1.42059 2.21863,3.34723 2.21863,5.3562 l 0,0 c 0,4.18347 -3.39135,7.57483 -7.57481,7.57483 l 0,0 c -4.18346,0 -7.5748,-3.39136 -7.5748,-7.57483 z"
       inkscape:connector-curvature="0"
       style="fill:#000000;fill-opacity:0;fill-rule:nonzero;stroke:none" />
    <path
       id="path4569"
       d="m 374.86773,596.21183 0,0 c 0,-4.18341 3.39134,-7.57477 7.5748,-7.57477 l 0,0 c 2.00896,0 3.93565,0.79804 5.35618,2.21857 1.42057,1.42059 2.21863,3.34723 2.21863,5.3562 l 0,0 c 0,4.18347 -3.39135,7.57483 -7.57481,7.57483 l 0,0 c -4.18346,0 -7.5748,-3.39136 -7.5748,-7.57483 z"
       inkscape:connector-curvature="0"
       style="fill-rule:nonzero;stroke:none" />
    <path
       id="path4571"
       d="m 409.30079,614.76303 0,0 c 0,-4.18347 3.39136,-7.57483 7.5748,-7.57483 l 0,0 c 2.00897,0 3.93564,0.7981 5.3562,2.21863 1.42056,1.42053 2.2186,3.34723 2.2186,5.3562 l 0,0 c 0,4.18341 -3.39133,7.57477 -7.5748,7.57477 l 0,0 c -4.18344,0 -7.5748,-3.39136 -7.5748,-7.57477 z"
       inkscape:connector-curvature="0"
       style="fill:#000000;fill-opacity:0;fill-rule:nonzero;stroke:none" />
    <path
       id="path4573"
       d="m 409.30079,614.76303 0,0 c 0,-4.18347 3.39136,-7.57483 7.5748,-7.57483 l 0,0 c 2.00897,0 3.93564,0.7981 5.3562,2.21863 1.42056,1.42053 2.2186,3.34723 2.2186,5.3562 l 0,0 c 0,4.18341 -3.39133,7.57477 -7.5748,7.57477 l 0,0 c -4.18344,0 -7.5748,-3.39136 -7.5748,-7.57477 z"
       inkscape:connector-curvature="0"
       style="fill-rule:nonzero;stroke:none" />
    <path
       id="path4577"
       d="m 341.73916,550.55697 6.70866,-14.11023 6.70865,14.11023 z"
       inkscape:connector-curvature="0"
       style="fill-rule:nonzero;stroke:none" />
    <path
       id="path4579"
       d="m 306.00994,510.38292 2.86003,-2.86005 3.03816,3.03815 3.03815,-3.03815 2.86005,2.86005 -3.03817,3.03815 3.03817,3.03814 -2.86005,2.86005 -3.03815,-3.03815 -3.03816,3.03815 -2.86003,-2.86005 3.03816,-3.03814 z"
       inkscape:connector-curvature="0"
       style="fill:#999999;fill-rule:nonzero" />
    <path
       id="path4581"
       d="m 398.34069,583.21413 2.86005,-2.86005 3.03814,3.03815 3.03815,-3.03815 2.86005,2.86005 -3.03815,3.03815 3.03815,3.03814 -2.86005,2.86005 -3.03815,-3.03815 -3.03814,3.03815 -2.86005,-2.86005 3.03815,-3.03814 z"
       inkscape:connector-curvature="0"
       style="fill:#000000;fill-opacity:0;fill-rule:nonzero;stroke:none" />
    <path
       id="path4583"
       d="m 398.34069,583.21413 2.86005,-2.86005 3.03814,3.03815 3.03815,-3.03815 2.86005,2.86005 -3.03815,3.03815 3.03815,3.03814 -2.86005,2.86005 -3.03815,-3.03815 -3.03814,3.03815 -2.86005,-2.86005 3.03815,-3.03814 z"
       inkscape:connector-curvature="0"
       style="fill-rule:nonzero;stroke:none" />
    <g
       id="g7373"
       ns0:preamble=""
       ns0:text="feature A"
       transform="matrix(1.5,0,0,1.5,127.20218,470.90966)">
      <defs
         id="defs7375">
        <g
           id="g7377">
          <symbol
             id="textext-6b56f53e-0"
             overflow="visible"
             style="overflow:visible">
            <path
               id="path7380"
               d=""
               style="stroke:none"
               inkscape:connector-curvature="0" />
          </symbol>
          <symbol
             id="textext-6b56f53e-1"
             overflow="visible"
             style="overflow:visible">
            <path
               id="path7383"
               d="m 1.75,-4.296875 0,-1.15625 c 0,-0.875 0.46875,-1.359375 0.90625,-1.359375 0.03125,0 0.1875,0 0.328125,0.078125 C 2.875,-6.703125 2.6875,-6.5625 2.6875,-6.3125 c 0,0.21875 0.15625,0.421875 0.4375,0.421875 0.28125,0 0.4375,-0.203125 0.4375,-0.4375 0,-0.375 -0.375,-0.703125 -0.90625,-0.703125 -0.6875,0 -1.546875,0.53125 -1.546875,1.59375 l 0,1.140625 -0.78125,0 0,0.3125 0.78125,0 0,3.234375 c 0,0.4375 -0.109375,0.4375 -0.765625,0.4375 l 0,0.3125 c 0.390625,-0.015625 0.859375,-0.03125 1.125,-0.03125 0.40625,0 0.875,0 1.265625,0.03125 l 0,-0.3125 -0.203125,0 c -0.734375,0 -0.75,-0.109375 -0.75,-0.46875 l 0,-3.203125 1.125,0 0,-0.3125 z m 0,0"
               style="stroke:none"
               inkscape:connector-curvature="0" />
          </symbol>
          <symbol
             id="textext-6b56f53e-2"
             overflow="visible"
             style="overflow:visible">
            <path
               id="path7386"
               d="M 1.109375,-2.515625 C 1.171875,-4 2.015625,-4.25 2.359375,-4.25 c 1.015625,0 1.125,1.34375 1.125,1.734375 z m 0,0.21875 2.78125,0 c 0.21875,0 0.25,0 0.25,-0.21875 0,-0.984375 -0.546875,-1.953125 -1.78125,-1.953125 -1.15625,0 -2.078125,1.03125 -2.078125,2.28125 0,1.328125 1.046875,2.296875 2.1875,2.296875 C 3.6875,0.109375 4.140625,-1 4.140625,-1.1875 4.140625,-1.28125 4.0625,-1.3125 4,-1.3125 c -0.078125,0 -0.109375,0.0625 -0.125,0.140625 -0.34375,1.03125 -1.25,1.03125 -1.34375,1.03125 -0.5,0 -0.890625,-0.296875 -1.125,-0.671875 -0.296875,-0.46875 -0.296875,-1.125 -0.296875,-1.484375 z m 0,0"
               style="stroke:none"
               inkscape:connector-curvature="0" />
          </symbol>
          <symbol
             id="textext-6b56f53e-3"
             overflow="visible"
             style="overflow:visible">
            <path
               id="path7389"
               d="m 3.3125,-0.75 c 0.046875,0.390625 0.3125,0.8125 0.78125,0.8125 0.21875,0 0.828125,-0.140625 0.828125,-0.953125 l 0,-0.5625 -0.25,0 0,0.5625 c 0,0.578125 -0.25,0.640625 -0.359375,0.640625 -0.328125,0 -0.375,-0.453125 -0.375,-0.5 l 0,-1.984375 c 0,-0.421875 0,-0.8125 -0.359375,-1.1875 C 3.1875,-4.3125 2.6875,-4.46875 2.21875,-4.46875 c -0.828125,0 -1.515625,0.46875 -1.515625,1.125 0,0.296875 0.203125,0.46875 0.46875,0.46875 0.28125,0 0.453125,-0.203125 0.453125,-0.453125 0,-0.125 -0.046875,-0.453125 -0.515625,-0.453125 C 1.390625,-4.140625 1.875,-4.25 2.1875,-4.25 c 0.5,0 1.0625,0.390625 1.0625,1.28125 l 0,0.359375 c -0.515625,0.03125 -1.203125,0.0625 -1.828125,0.359375 -0.75,0.34375 -1,0.859375 -1,1.296875 0,0.8125 0.96875,1.0625 1.59375,1.0625 0.65625,0 1.109375,-0.40625 1.296875,-0.859375 z M 3.25,-2.390625 l 0,1 c 0,0.9375 -0.71875,1.28125 -1.171875,1.28125 -0.484375,0 -0.890625,-0.34375 -0.890625,-0.84375 0,-0.546875 0.421875,-1.375 2.0625,-1.4375 z m 0,0"
               style="stroke:none"
               inkscape:connector-curvature="0" />
          </symbol>
          <symbol
             id="textext-6b56f53e-4"
             overflow="visible"
             style="overflow:visible">
            <path
               id="path7392"
               d="m 1.71875,-3.984375 1.4375,0 0,-0.3125 -1.4375,0 0,-1.828125 -0.25,0 c 0,0.8125 -0.296875,1.875 -1.28125,1.921875 l 0,0.21875 0.84375,0 0,2.75 c 0,1.21875 0.9375,1.34375 1.296875,1.34375 0.703125,0 0.984375,-0.703125 0.984375,-1.34375 l 0,-0.5625 -0.25,0 0,0.546875 c 0,0.734375 -0.296875,1.109375 -0.671875,1.109375 -0.671875,0 -0.671875,-0.90625 -0.671875,-1.078125 z m 0,0"
               style="stroke:none"
               inkscape:connector-curvature="0" />
          </symbol>
          <symbol
             id="textext-6b56f53e-5"
             overflow="visible"
             style="overflow:visible">
            <path
               id="path7395"
               d="m 3.890625,-0.78125 0,0.890625 L 5.328125,0 l 0,-0.3125 C 4.640625,-0.3125 4.5625,-0.375 4.5625,-0.875 l 0,-3.53125 -1.46875,0.109375 0,0.3125 c 0.6875,0 0.78125,0.0625 0.78125,0.5625 l 0,1.765625 c 0,0.875 -0.484375,1.546875 -1.21875,1.546875 -0.828125,0 -0.875,-0.46875 -0.875,-0.984375 l 0,-3.3125 -1.46875,0.109375 0,0.3125 c 0.78125,0 0.78125,0.03125 0.78125,0.90625 l 0,1.5 c 0,0.78125 0,1.6875 1.515625,1.6875 0.5625,0 1,-0.28125 1.28125,-0.890625 z m 0,0"
               style="stroke:none"
               inkscape:connector-curvature="0" />
          </symbol>
          <symbol
             id="textext-6b56f53e-6"
             overflow="visible"
             style="overflow:visible">
            <path
               id="path7398"
               d="m 1.671875,-3.3125 0,-1.09375 -1.390625,0.109375 0,0.3125 c 0.703125,0 0.78125,0.0625 0.78125,0.5625 l 0,2.671875 c 0,0.4375 -0.109375,0.4375 -0.78125,0.4375 l 0,0.3125 c 0.390625,-0.015625 0.859375,-0.03125 1.140625,-0.03125 0.390625,0 0.859375,0 1.265625,0.03125 l 0,-0.3125 -0.21875,0 c -0.734375,0 -0.75,-0.109375 -0.75,-0.46875 l 0,-1.53125 c 0,-0.984375 0.421875,-1.875 1.171875,-1.875 0.0625,0 0.09375,0 0.109375,0.015625 -0.03125,0 -0.234375,0.125 -0.234375,0.390625 0,0.265625 0.21875,0.421875 0.4375,0.421875 0.171875,0 0.421875,-0.125 0.421875,-0.4375 0,-0.3125 -0.3125,-0.609375 -0.734375,-0.609375 -0.734375,0 -1.09375,0.671875 -1.21875,1.09375 z m 0,0"
               style="stroke:none"
               inkscape:connector-curvature="0" />
          </symbol>
          <symbol
             id="textext-6b56f53e-7"
             overflow="visible"
             style="overflow:visible">
            <path
               id="path7401"
               d="m 3.96875,-6.9375 c -0.046875,-0.125 -0.078125,-0.203125 -0.234375,-0.203125 -0.15625,0 -0.1875,0.0625 -0.234375,0.203125 L 1.4375,-0.984375 C 1.25,-0.46875 0.859375,-0.3125 0.3125,-0.3125 l 0,0.3125 c 0.234375,-0.015625 0.671875,-0.03125 1.015625,-0.03125 0.3125,0 0.828125,0.015625 1.15625,0.03125 l 0,-0.3125 c -0.5,0 -0.75,-0.25 -0.75,-0.5 0,-0.03125 0.015625,-0.140625 0.015625,-0.15625 l 0.46875,-1.296875 2.453125,0 0.53125,1.515625 c 0.015625,0.046875 0.03125,0.109375 0.03125,0.140625 0,0.296875 -0.5625,0.296875 -0.828125,0.296875 l 0,0.3125 c 0.359375,-0.03125 1.0625,-0.03125 1.4375,-0.03125 0.421875,0 0.890625,0.015625 1.296875,0.03125 l 0,-0.3125 -0.171875,0 C 6.375,-0.3125 6.234375,-0.375 6.125,-0.703125 z m -0.53125,1.109375 1.125,3.25 -2.234375,0 z m 0,0"
               style="stroke:none"
               inkscape:connector-curvature="0" />
          </symbol>
        </g>
      </defs>
      <g
         id="textext-6b56f53e-8">
        <g
           id="g7404"
           style="fill:#000000;fill-opacity:1">
          <use
             id="use7406"
             y="134.765"
             x="223.43201"
             xlink:href="#textext-6b56f53e-1"
             width="409.55035"
             height="233.68954" />
          <use
             id="use7408"
             y="134.765"
             x="226.47658"
             xlink:href="#textext-6b56f53e-2"
             width="409.55035"
             height="233.68954" />
          <use
             id="use7410"
             y="134.765"
             x="230.90395"
             xlink:href="#textext-6b56f53e-3"
             width="409.55035"
             height="233.68954" />
          <use
             id="use7412"
             y="134.765"
             x="235.88525"
             xlink:href="#textext-6b56f53e-4"
             width="409.55035"
             height="233.68954" />
          <use
             id="use7414"
             y="134.765"
             x="239.7597"
             xlink:href="#textext-6b56f53e-5"
             width="409.55035"
             height="233.68954" />
          <use
             id="use7416"
             y="134.765"
             x="245.29492"
             xlink:href="#textext-6b56f53e-6"
             width="409.55035"
             height="233.68954" />
          <use
             id="use7418"
             y="134.765"
             x="249.19728"
             xlink:href="#textext-6b56f53e-2"
             width="409.55035"
             height="233.68954" />
        </g>
        <g
           id="g7420"
           style="fill:#000000;fill-opacity:1">
          <use
             id="use7422"
             y="134.765"
             x="256.9422"
             xlink:href="#textext-6b56f53e-7"
             width="409.55035"
             height="233.68954" />
        </g>
      </g>
    </g>
    <g
       transform="matrix(1.5,0,0,1.5,-176.1324,267.24046)"
       ns0:text="feature B"
       ns0:preamble=""
       id="g7600">
      <defs
         id="defs7602">
        <g
           id="g7604">
          <symbol
             style="overflow:visible"
             overflow="visible"
             id="textext-01adb3e5-0">
            <path
               inkscape:connector-curvature="0"
               style="stroke:none"
               d=""
               id="path7607" />
          </symbol>
          <symbol
             style="overflow:visible"
             overflow="visible"
             id="textext-01adb3e5-1">
            <path
               inkscape:connector-curvature="0"
               style="stroke:none"
               d="m 1.75,-4.296875 0,-1.15625 c 0,-0.875 0.46875,-1.359375 0.90625,-1.359375 0.03125,0 0.1875,0 0.328125,0.078125 C 2.875,-6.703125 2.6875,-6.5625 2.6875,-6.3125 c 0,0.21875 0.15625,0.421875 0.4375,0.421875 0.28125,0 0.4375,-0.203125 0.4375,-0.4375 0,-0.375 -0.375,-0.703125 -0.90625,-0.703125 -0.6875,0 -1.546875,0.53125 -1.546875,1.59375 l 0,1.140625 -0.78125,0 0,0.3125 0.78125,0 0,3.234375 c 0,0.4375 -0.109375,0.4375 -0.765625,0.4375 l 0,0.3125 c 0.390625,-0.015625 0.859375,-0.03125 1.125,-0.03125 0.40625,0 0.875,0 1.265625,0.03125 l 0,-0.3125 -0.203125,0 c -0.734375,0 -0.75,-0.109375 -0.75,-0.46875 l 0,-3.203125 1.125,0 0,-0.3125 z m 0,0"
               id="path7610" />
          </symbol>
          <symbol
             style="overflow:visible"
             overflow="visible"
             id="textext-01adb3e5-2">
            <path
               inkscape:connector-curvature="0"
               style="stroke:none"
               d="M 1.109375,-2.515625 C 1.171875,-4 2.015625,-4.25 2.359375,-4.25 c 1.015625,0 1.125,1.34375 1.125,1.734375 z m 0,0.21875 2.78125,0 c 0.21875,0 0.25,0 0.25,-0.21875 0,-0.984375 -0.546875,-1.953125 -1.78125,-1.953125 -1.15625,0 -2.078125,1.03125 -2.078125,2.28125 0,1.328125 1.046875,2.296875 2.1875,2.296875 C 3.6875,0.109375 4.140625,-1 4.140625,-1.1875 4.140625,-1.28125 4.0625,-1.3125 4,-1.3125 c -0.078125,0 -0.109375,0.0625 -0.125,0.140625 -0.34375,1.03125 -1.25,1.03125 -1.34375,1.03125 -0.5,0 -0.890625,-0.296875 -1.125,-0.671875 -0.296875,-0.46875 -0.296875,-1.125 -0.296875,-1.484375 z m 0,0"
               id="path7613" />
          </symbol>
          <symbol
             style="overflow:visible"
             overflow="visible"
             id="textext-01adb3e5-3">
            <path
               inkscape:connector-curvature="0"
               style="stroke:none"
               d="m 3.3125,-0.75 c 0.046875,0.390625 0.3125,0.8125 0.78125,0.8125 0.21875,0 0.828125,-0.140625 0.828125,-0.953125 l 0,-0.5625 -0.25,0 0,0.5625 c 0,0.578125 -0.25,0.640625 -0.359375,0.640625 -0.328125,0 -0.375,-0.453125 -0.375,-0.5 l 0,-1.984375 c 0,-0.421875 0,-0.8125 -0.359375,-1.1875 C 3.1875,-4.3125 2.6875,-4.46875 2.21875,-4.46875 c -0.828125,0 -1.515625,0.46875 -1.515625,1.125 0,0.296875 0.203125,0.46875 0.46875,0.46875 0.28125,0 0.453125,-0.203125 0.453125,-0.453125 0,-0.125 -0.046875,-0.453125 -0.515625,-0.453125 C 1.390625,-4.140625 1.875,-4.25 2.1875,-4.25 c 0.5,0 1.0625,0.390625 1.0625,1.28125 l 0,0.359375 c -0.515625,0.03125 -1.203125,0.0625 -1.828125,0.359375 -0.75,0.34375 -1,0.859375 -1,1.296875 0,0.8125 0.96875,1.0625 1.59375,1.0625 0.65625,0 1.109375,-0.40625 1.296875,-0.859375 z M 3.25,-2.390625 l 0,1 c 0,0.9375 -0.71875,1.28125 -1.171875,1.28125 -0.484375,0 -0.890625,-0.34375 -0.890625,-0.84375 0,-0.546875 0.421875,-1.375 2.0625,-1.4375 z m 0,0"
               id="path7616" />
          </symbol>
          <symbol
             style="overflow:visible"
             overflow="visible"
             id="textext-01adb3e5-4">
            <path
               inkscape:connector-curvature="0"
               style="stroke:none"
               d="m 1.71875,-3.984375 1.4375,0 0,-0.3125 -1.4375,0 0,-1.828125 -0.25,0 c 0,0.8125 -0.296875,1.875 -1.28125,1.921875 l 0,0.21875 0.84375,0 0,2.75 c 0,1.21875 0.9375,1.34375 1.296875,1.34375 0.703125,0 0.984375,-0.703125 0.984375,-1.34375 l 0,-0.5625 -0.25,0 0,0.546875 c 0,0.734375 -0.296875,1.109375 -0.671875,1.109375 -0.671875,0 -0.671875,-0.90625 -0.671875,-1.078125 z m 0,0"
               id="path7619" />
          </symbol>
          <symbol
             style="overflow:visible"
             overflow="visible"
             id="textext-01adb3e5-5">
            <path
               inkscape:connector-curvature="0"
               style="stroke:none"
               d="m 3.890625,-0.78125 0,0.890625 L 5.328125,0 l 0,-0.3125 C 4.640625,-0.3125 4.5625,-0.375 4.5625,-0.875 l 0,-3.53125 -1.46875,0.109375 0,0.3125 c 0.6875,0 0.78125,0.0625 0.78125,0.5625 l 0,1.765625 c 0,0.875 -0.484375,1.546875 -1.21875,1.546875 -0.828125,0 -0.875,-0.46875 -0.875,-0.984375 l 0,-3.3125 -1.46875,0.109375 0,0.3125 c 0.78125,0 0.78125,0.03125 0.78125,0.90625 l 0,1.5 c 0,0.78125 0,1.6875 1.515625,1.6875 0.5625,0 1,-0.28125 1.28125,-0.890625 z m 0,0"
               id="path7622" />
          </symbol>
          <symbol
             style="overflow:visible"
             overflow="visible"
             id="textext-01adb3e5-6">
            <path
               inkscape:connector-curvature="0"
               style="stroke:none"
               d="m 1.671875,-3.3125 0,-1.09375 -1.390625,0.109375 0,0.3125 c 0.703125,0 0.78125,0.0625 0.78125,0.5625 l 0,2.671875 c 0,0.4375 -0.109375,0.4375 -0.78125,0.4375 l 0,0.3125 c 0.390625,-0.015625 0.859375,-0.03125 1.140625,-0.03125 0.390625,0 0.859375,0 1.265625,0.03125 l 0,-0.3125 -0.21875,0 c -0.734375,0 -0.75,-0.109375 -0.75,-0.46875 l 0,-1.53125 c 0,-0.984375 0.421875,-1.875 1.171875,-1.875 0.0625,0 0.09375,0 0.109375,0.015625 -0.03125,0 -0.234375,0.125 -0.234375,0.390625 0,0.265625 0.21875,0.421875 0.4375,0.421875 0.171875,0 0.421875,-0.125 0.421875,-0.4375 0,-0.3125 -0.3125,-0.609375 -0.734375,-0.609375 -0.734375,0 -1.09375,0.671875 -1.21875,1.09375 z m 0,0"
               id="path7625" />
          </symbol>
          <symbol
             style="overflow:visible"
             overflow="visible"
             id="textext-01adb3e5-7">
            <path
               inkscape:connector-curvature="0"
               style="stroke:none"
               d="m 2.21875,-3.65625 0,-2.4375 C 2.21875,-6.4375 2.234375,-6.5 2.703125,-6.5 l 1.234375,0 c 0.96875,0 1.3125,0.84375 1.3125,1.375 0,0.640625 -0.484375,1.46875 -1.59375,1.46875 z M 4.5625,-3.5625 C 5.53125,-3.75 6.21875,-4.390625 6.21875,-5.125 6.21875,-5.984375 5.296875,-6.8125 4,-6.8125 l -3.640625,0 0,0.3125 0.234375,0 c 0.765625,0 0.796875,0.109375 0.796875,0.46875 l 0,5.25 c 0,0.359375 -0.03125,0.46875 -0.796875,0.46875 l -0.234375,0 0,0.3125 3.90625,0 c 1.328125,0 2.21875,-0.890625 2.21875,-1.828125 0,-0.859375 -0.8125,-1.609375 -1.921875,-1.734375 z m -0.609375,3.25 -1.25,0 c -0.46875,0 -0.484375,-0.0625 -0.484375,-0.390625 l 0,-2.71875 1.875,0 C 5.078125,-3.421875 5.5,-2.5 5.5,-1.828125 5.5,-1.125 4.96875,-0.3125 3.953125,-0.3125 z m 0,0"
               id="path7628" />
          </symbol>
        </g>
      </defs>
      <g
         id="textext-01adb3e5-8">
        <g
           style="fill:#000000;fill-opacity:1"
           id="g7631">
          <use
             height="233.68954"
             width="409.55035"
             xlink:href="#textext-01adb3e5-1"
             x="223.43201"
             y="134.765"
             id="use7633" />
          <use
             height="233.68954"
             width="409.55035"
             xlink:href="#textext-01adb3e5-2"
             x="226.47658"
             y="134.765"
             id="use7635" />
          <use
             height="233.68954"
             width="409.55035"
             xlink:href="#textext-01adb3e5-3"
             x="230.90395"
             y="134.765"
             id="use7637" />
          <use
             height="233.68954"
             width="409.55035"
             xlink:href="#textext-01adb3e5-4"
             x="235.88525"
             y="134.765"
             id="use7639" />
          <use
             height="233.68954"
             width="409.55035"
             xlink:href="#textext-01adb3e5-5"
             x="239.7597"
             y="134.765"
             id="use7641" />
          <use
             height="233.68954"
             width="409.55035"
             xlink:href="#textext-01adb3e5-6"
             x="245.29492"
             y="134.765"
             id="use7643" />
          <use
             height="233.68954"
             width="409.55035"
             xlink:href="#textext-01adb3e5-2"
             x="249.19728"
             y="134.765"
             id="use7645" />
        </g>
        <g
           style="fill:#000000;fill-opacity:1"
           id="g7647">
          <use
             height="233.68954"
             width="409.55035"
             xlink:href="#textext-01adb3e5-7"
             x="256.9422"
             y="134.765"
             id="use7649" />
        </g>
      </g>
    </g>
    <g
       id="g7887"
       ns0:preamble=""
       ns0:text="cluster 1"
       transform="matrix(1.5,0,0,1.5,96.17805,368.9718)">
      <defs
         id="defs7889">
        <g
           id="g7891">
          <symbol
             style="overflow:visible"
             id="textext-f0fe2d5c-0"
             overflow="visible">
            <path
               inkscape:connector-curvature="0"
               id="path7894"
               d=""
               style="stroke:none" />
          </symbol>
          <symbol
             style="overflow:visible"
             id="textext-f0fe2d5c-1"
             overflow="visible">
            <path
               inkscape:connector-curvature="0"
               id="path7897"
               d="m 1.171875,-2.171875 c 0,-1.625 0.8125,-2.046875 1.34375,-2.046875 0.09375,0 0.71875,0.015625 1.0625,0.375 -0.40625,0.03125 -0.46875,0.328125 -0.46875,0.453125 0,0.265625 0.1875,0.453125 0.453125,0.453125 0.265625,0 0.46875,-0.15625 0.46875,-0.46875 0,-0.671875 -0.765625,-1.0625 -1.53125,-1.0625 -1.25,0 -2.15625,1.078125 -2.15625,2.3125 0,1.28125 0.984375,2.265625 2.140625,2.265625 1.328125,0 1.65625,-1.203125 1.65625,-1.296875 0,-0.09375 -0.109375,-0.09375 -0.140625,-0.09375 -0.078125,0 -0.109375,0.03125 -0.125,0.09375 -0.28125,0.921875 -0.9375,1.046875 -1.296875,1.046875 -0.53125,0 -1.40625,-0.421875 -1.40625,-2.03125 z m 0,0"
               style="stroke:none" />
          </symbol>
          <symbol
             style="overflow:visible"
             id="textext-f0fe2d5c-2"
             overflow="visible">
            <path
               inkscape:connector-curvature="0"
               id="path7900"
               d="m 1.765625,-6.921875 -1.4375,0.109375 0,0.3125 c 0.703125,0 0.78125,0.0625 0.78125,0.5625 l 0,5.1875 c 0,0.4375 -0.109375,0.4375 -0.78125,0.4375 l 0,0.3125 C 0.65625,-0.015625 1.1875,-0.03125 1.4375,-0.03125 c 0.25,0 0.734375,0.015625 1.109375,0.03125 l 0,-0.3125 c -0.671875,0 -0.78125,0 -0.78125,-0.4375 z m 0,0"
               style="stroke:none" />
          </symbol>
          <symbol
             style="overflow:visible"
             id="textext-f0fe2d5c-3"
             overflow="visible">
            <path
               inkscape:connector-curvature="0"
               id="path7903"
               d="m 3.890625,-0.78125 0,0.890625 L 5.328125,0 l 0,-0.3125 C 4.640625,-0.3125 4.5625,-0.375 4.5625,-0.875 l 0,-3.53125 -1.46875,0.109375 0,0.3125 c 0.6875,0 0.78125,0.0625 0.78125,0.5625 l 0,1.765625 c 0,0.875 -0.484375,1.546875 -1.21875,1.546875 -0.828125,0 -0.875,-0.46875 -0.875,-0.984375 l 0,-3.3125 -1.46875,0.109375 0,0.3125 c 0.78125,0 0.78125,0.03125 0.78125,0.90625 l 0,1.5 c 0,0.78125 0,1.6875 1.515625,1.6875 0.5625,0 1,-0.28125 1.28125,-0.890625 z m 0,0"
               style="stroke:none" />
          </symbol>
          <symbol
             style="overflow:visible"
             id="textext-f0fe2d5c-4"
             overflow="visible">
            <path
               inkscape:connector-curvature="0"
               id="path7906"
               d="m 2.078125,-1.9375 c 0.21875,0.046875 1.03125,0.203125 1.03125,0.921875 0,0.5 -0.34375,0.90625 -1.125,0.90625 -0.84375,0 -1.203125,-0.5625 -1.390625,-1.421875 C 0.5625,-1.65625 0.5625,-1.6875 0.453125,-1.6875 c -0.125,0 -0.125,0.0625 -0.125,0.234375 l 0,1.328125 c 0,0.171875 0,0.234375 0.109375,0.234375 0.046875,0 0.0625,-0.015625 0.25,-0.203125 0.015625,-0.015625 0.015625,-0.03125 0.203125,-0.21875 0.4375,0.40625 0.890625,0.421875 1.09375,0.421875 1.140625,0 1.609375,-0.671875 1.609375,-1.390625 0,-0.515625 -0.296875,-0.828125 -0.421875,-0.9375 C 2.84375,-2.546875 2.453125,-2.625 2.03125,-2.703125 1.46875,-2.8125 0.8125,-2.9375 0.8125,-3.515625 c 0,-0.359375 0.25,-0.765625 1.109375,-0.765625 1.09375,0 1.15625,0.90625 1.171875,1.203125 0,0.09375 0.09375,0.09375 0.109375,0.09375 0.140625,0 0.140625,-0.046875 0.140625,-0.234375 l 0,-1.015625 c 0,-0.15625 0,-0.234375 -0.109375,-0.234375 -0.046875,0 -0.078125,0 -0.203125,0.125 -0.03125,0.03125 -0.125,0.125 -0.171875,0.15625 -0.375,-0.28125 -0.78125,-0.28125 -0.9375,-0.28125 -1.21875,0 -1.59375,0.671875 -1.59375,1.234375 0,0.34375 0.15625,0.625 0.421875,0.84375 0.328125,0.25 0.609375,0.3125 1.328125,0.453125 z m 0,0"
               style="stroke:none" />
          </symbol>
          <symbol
             style="overflow:visible"
             id="textext-f0fe2d5c-5"
             overflow="visible">
            <path
               inkscape:connector-curvature="0"
               id="path7909"
               d="m 1.71875,-3.984375 1.4375,0 0,-0.3125 -1.4375,0 0,-1.828125 -0.25,0 c 0,0.8125 -0.296875,1.875 -1.28125,1.921875 l 0,0.21875 0.84375,0 0,2.75 c 0,1.21875 0.9375,1.34375 1.296875,1.34375 0.703125,0 0.984375,-0.703125 0.984375,-1.34375 l 0,-0.5625 -0.25,0 0,0.546875 c 0,0.734375 -0.296875,1.109375 -0.671875,1.109375 -0.671875,0 -0.671875,-0.90625 -0.671875,-1.078125 z m 0,0"
               style="stroke:none" />
          </symbol>
          <symbol
             style="overflow:visible"
             id="textext-f0fe2d5c-6"
             overflow="visible">
            <path
               inkscape:connector-curvature="0"
               id="path7912"
               d="M 1.109375,-2.515625 C 1.171875,-4 2.015625,-4.25 2.359375,-4.25 c 1.015625,0 1.125,1.34375 1.125,1.734375 z m 0,0.21875 2.78125,0 c 0.21875,0 0.25,0 0.25,-0.21875 0,-0.984375 -0.546875,-1.953125 -1.78125,-1.953125 -1.15625,0 -2.078125,1.03125 -2.078125,2.28125 0,1.328125 1.046875,2.296875 2.1875,2.296875 C 3.6875,0.109375 4.140625,-1 4.140625,-1.1875 4.140625,-1.28125 4.0625,-1.3125 4,-1.3125 c -0.078125,0 -0.109375,0.0625 -0.125,0.140625 -0.34375,1.03125 -1.25,1.03125 -1.34375,1.03125 -0.5,0 -0.890625,-0.296875 -1.125,-0.671875 -0.296875,-0.46875 -0.296875,-1.125 -0.296875,-1.484375 z m 0,0"
               style="stroke:none" />
          </symbol>
          <symbol
             style="overflow:visible"
             id="textext-f0fe2d5c-7"
             overflow="visible">
            <path
               inkscape:connector-curvature="0"
               id="path7915"
               d="m 1.671875,-3.3125 0,-1.09375 -1.390625,0.109375 0,0.3125 c 0.703125,0 0.78125,0.0625 0.78125,0.5625 l 0,2.671875 c 0,0.4375 -0.109375,0.4375 -0.78125,0.4375 l 0,0.3125 c 0.390625,-0.015625 0.859375,-0.03125 1.140625,-0.03125 0.390625,0 0.859375,0 1.265625,0.03125 l 0,-0.3125 -0.21875,0 c -0.734375,0 -0.75,-0.109375 -0.75,-0.46875 l 0,-1.53125 c 0,-0.984375 0.421875,-1.875 1.171875,-1.875 0.0625,0 0.09375,0 0.109375,0.015625 -0.03125,0 -0.234375,0.125 -0.234375,0.390625 0,0.265625 0.21875,0.421875 0.4375,0.421875 0.171875,0 0.421875,-0.125 0.421875,-0.4375 0,-0.3125 -0.3125,-0.609375 -0.734375,-0.609375 -0.734375,0 -1.09375,0.671875 -1.21875,1.09375 z m 0,0"
               style="stroke:none" />
          </symbol>
          <symbol
             style="overflow:visible"
             id="textext-f0fe2d5c-8"
             overflow="visible">
            <path
               inkscape:connector-curvature="0"
               id="path7918"
               d="m 2.9375,-6.375 c 0,-0.25 0,-0.265625 -0.234375,-0.265625 C 2.078125,-6 1.203125,-6 0.890625,-6 l 0,0.3125 c 0.203125,0 0.78125,0 1.296875,-0.265625 l 0,5.171875 c 0,0.359375 -0.03125,0.46875 -0.921875,0.46875 l -0.3125,0 0,0.3125 c 0.34375,-0.03125 1.203125,-0.03125 1.609375,-0.03125 0.390625,0 1.265625,0 1.609375,0.03125 l 0,-0.3125 -0.3125,0 c -0.90625,0 -0.921875,-0.109375 -0.921875,-0.46875 z m 0,0"
               style="stroke:none" />
          </symbol>
        </g>
      </defs>
      <g
         id="textext-f0fe2d5c-9">
        <g
           id="g7921"
           style="fill:#000000;fill-opacity:1">
          <use
             height="233.68954"
             width="409.55035"
             id="use7923"
             y="134.765"
             x="223.43201"
             xlink:href="#textext-f0fe2d5c-1" />
          <use
             height="233.68954"
             width="409.55035"
             id="use7925"
             y="134.765"
             x="227.85938"
             xlink:href="#textext-f0fe2d5c-2" />
          <use
             height="233.68954"
             width="409.55035"
             id="use7927"
             y="134.765"
             x="230.62698"
             xlink:href="#textext-f0fe2d5c-3" />
          <use
             height="233.68954"
             width="409.55035"
             id="use7929"
             y="134.765"
             x="236.16222"
             xlink:href="#textext-f0fe2d5c-4" />
          <use
             height="233.68954"
             width="409.55035"
             id="use7931"
             y="134.765"
             x="240.09146"
             xlink:href="#textext-f0fe2d5c-5" />
          <use
             height="233.68954"
             width="409.55035"
             id="use7933"
             y="134.765"
             x="243.96591"
             xlink:href="#textext-f0fe2d5c-6" />
          <use
             height="233.68954"
             width="409.55035"
             id="use7935"
             y="134.765"
             x="248.3933"
             xlink:href="#textext-f0fe2d5c-7" />
        </g>
        <g
           id="g7937"
           style="fill:#000000;fill-opacity:1">
          <use
             height="233.68954"
             width="409.55035"
             id="use7939"
             y="134.765"
             x="255.61319"
             xlink:href="#textext-f0fe2d5c-8" />
        </g>
      </g>
    </g>
    <g
       transform="matrix(1.5,0,0,1.5,-99.991136,286.99191)"
       ns0:text="cluster 2"
       ns0:preamble=""
       id="g8241">
      <defs
         id="defs8243">
        <g
           id="g8245">
          <symbol
             style="overflow:visible"
             overflow="visible"
             id="textext-30cfa9e7-0">
            <path
               inkscape:connector-curvature="0"
               style="stroke:none"
               d=""
               id="path8248" />
          </symbol>
          <symbol
             style="overflow:visible"
             overflow="visible"
             id="textext-30cfa9e7-1">
            <path
               inkscape:connector-curvature="0"
               style="stroke:none"
               d="m 1.171875,-2.171875 c 0,-1.625 0.8125,-2.046875 1.34375,-2.046875 0.09375,0 0.71875,0.015625 1.0625,0.375 -0.40625,0.03125 -0.46875,0.328125 -0.46875,0.453125 0,0.265625 0.1875,0.453125 0.453125,0.453125 0.265625,0 0.46875,-0.15625 0.46875,-0.46875 0,-0.671875 -0.765625,-1.0625 -1.53125,-1.0625 -1.25,0 -2.15625,1.078125 -2.15625,2.3125 0,1.28125 0.984375,2.265625 2.140625,2.265625 1.328125,0 1.65625,-1.203125 1.65625,-1.296875 0,-0.09375 -0.109375,-0.09375 -0.140625,-0.09375 -0.078125,0 -0.109375,0.03125 -0.125,0.09375 -0.28125,0.921875 -0.9375,1.046875 -1.296875,1.046875 -0.53125,0 -1.40625,-0.421875 -1.40625,-2.03125 z m 0,0"
               id="path8251" />
          </symbol>
          <symbol
             style="overflow:visible"
             overflow="visible"
             id="textext-30cfa9e7-2">
            <path
               inkscape:connector-curvature="0"
               style="stroke:none"
               d="m 1.765625,-6.921875 -1.4375,0.109375 0,0.3125 c 0.703125,0 0.78125,0.0625 0.78125,0.5625 l 0,5.1875 c 0,0.4375 -0.109375,0.4375 -0.78125,0.4375 l 0,0.3125 C 0.65625,-0.015625 1.1875,-0.03125 1.4375,-0.03125 c 0.25,0 0.734375,0.015625 1.109375,0.03125 l 0,-0.3125 c -0.671875,0 -0.78125,0 -0.78125,-0.4375 z m 0,0"
               id="path8254" />
          </symbol>
          <symbol
             style="overflow:visible"
             overflow="visible"
             id="textext-30cfa9e7-3">
            <path
               inkscape:connector-curvature="0"
               style="stroke:none"
               d="m 3.890625,-0.78125 0,0.890625 L 5.328125,0 l 0,-0.3125 C 4.640625,-0.3125 4.5625,-0.375 4.5625,-0.875 l 0,-3.53125 -1.46875,0.109375 0,0.3125 c 0.6875,0 0.78125,0.0625 0.78125,0.5625 l 0,1.765625 c 0,0.875 -0.484375,1.546875 -1.21875,1.546875 -0.828125,0 -0.875,-0.46875 -0.875,-0.984375 l 0,-3.3125 -1.46875,0.109375 0,0.3125 c 0.78125,0 0.78125,0.03125 0.78125,0.90625 l 0,1.5 c 0,0.78125 0,1.6875 1.515625,1.6875 0.5625,0 1,-0.28125 1.28125,-0.890625 z m 0,0"
               id="path8257" />
          </symbol>
          <symbol
             style="overflow:visible"
             overflow="visible"
             id="textext-30cfa9e7-4">
            <path
               inkscape:connector-curvature="0"
               style="stroke:none"
               d="m 2.078125,-1.9375 c 0.21875,0.046875 1.03125,0.203125 1.03125,0.921875 0,0.5 -0.34375,0.90625 -1.125,0.90625 -0.84375,0 -1.203125,-0.5625 -1.390625,-1.421875 C 0.5625,-1.65625 0.5625,-1.6875 0.453125,-1.6875 c -0.125,0 -0.125,0.0625 -0.125,0.234375 l 0,1.328125 c 0,0.171875 0,0.234375 0.109375,0.234375 0.046875,0 0.0625,-0.015625 0.25,-0.203125 0.015625,-0.015625 0.015625,-0.03125 0.203125,-0.21875 0.4375,0.40625 0.890625,0.421875 1.09375,0.421875 1.140625,0 1.609375,-0.671875 1.609375,-1.390625 0,-0.515625 -0.296875,-0.828125 -0.421875,-0.9375 C 2.84375,-2.546875 2.453125,-2.625 2.03125,-2.703125 1.46875,-2.8125 0.8125,-2.9375 0.8125,-3.515625 c 0,-0.359375 0.25,-0.765625 1.109375,-0.765625 1.09375,0 1.15625,0.90625 1.171875,1.203125 0,0.09375 0.09375,0.09375 0.109375,0.09375 0.140625,0 0.140625,-0.046875 0.140625,-0.234375 l 0,-1.015625 c 0,-0.15625 0,-0.234375 -0.109375,-0.234375 -0.046875,0 -0.078125,0 -0.203125,0.125 -0.03125,0.03125 -0.125,0.125 -0.171875,0.15625 -0.375,-0.28125 -0.78125,-0.28125 -0.9375,-0.28125 -1.21875,0 -1.59375,0.671875 -1.59375,1.234375 0,0.34375 0.15625,0.625 0.421875,0.84375 0.328125,0.25 0.609375,0.3125 1.328125,0.453125 z m 0,0"
               id="path8260" />
          </symbol>
          <symbol
             style="overflow:visible"
             overflow="visible"
             id="textext-30cfa9e7-5">
            <path
               inkscape:connector-curvature="0"
               style="stroke:none"
               d="m 1.71875,-3.984375 1.4375,0 0,-0.3125 -1.4375,0 0,-1.828125 -0.25,0 c 0,0.8125 -0.296875,1.875 -1.28125,1.921875 l 0,0.21875 0.84375,0 0,2.75 c 0,1.21875 0.9375,1.34375 1.296875,1.34375 0.703125,0 0.984375,-0.703125 0.984375,-1.34375 l 0,-0.5625 -0.25,0 0,0.546875 c 0,0.734375 -0.296875,1.109375 -0.671875,1.109375 -0.671875,0 -0.671875,-0.90625 -0.671875,-1.078125 z m 0,0"
               id="path8263" />
          </symbol>
          <symbol
             style="overflow:visible"
             overflow="visible"
             id="textext-30cfa9e7-6">
            <path
               inkscape:connector-curvature="0"
               style="stroke:none"
               d="M 1.109375,-2.515625 C 1.171875,-4 2.015625,-4.25 2.359375,-4.25 c 1.015625,0 1.125,1.34375 1.125,1.734375 z m 0,0.21875 2.78125,0 c 0.21875,0 0.25,0 0.25,-0.21875 0,-0.984375 -0.546875,-1.953125 -1.78125,-1.953125 -1.15625,0 -2.078125,1.03125 -2.078125,2.28125 0,1.328125 1.046875,2.296875 2.1875,2.296875 C 3.6875,0.109375 4.140625,-1 4.140625,-1.1875 4.140625,-1.28125 4.0625,-1.3125 4,-1.3125 c -0.078125,0 -0.109375,0.0625 -0.125,0.140625 -0.34375,1.03125 -1.25,1.03125 -1.34375,1.03125 -0.5,0 -0.890625,-0.296875 -1.125,-0.671875 -0.296875,-0.46875 -0.296875,-1.125 -0.296875,-1.484375 z m 0,0"
               id="path8266" />
          </symbol>
          <symbol
             style="overflow:visible"
             overflow="visible"
             id="textext-30cfa9e7-7">
            <path
               inkscape:connector-curvature="0"
               style="stroke:none"
               d="m 1.671875,-3.3125 0,-1.09375 -1.390625,0.109375 0,0.3125 c 0.703125,0 0.78125,0.0625 0.78125,0.5625 l 0,2.671875 c 0,0.4375 -0.109375,0.4375 -0.78125,0.4375 l 0,0.3125 c 0.390625,-0.015625 0.859375,-0.03125 1.140625,-0.03125 0.390625,0 0.859375,0 1.265625,0.03125 l 0,-0.3125 -0.21875,0 c -0.734375,0 -0.75,-0.109375 -0.75,-0.46875 l 0,-1.53125 c 0,-0.984375 0.421875,-1.875 1.171875,-1.875 0.0625,0 0.09375,0 0.109375,0.015625 -0.03125,0 -0.234375,0.125 -0.234375,0.390625 0,0.265625 0.21875,0.421875 0.4375,0.421875 0.171875,0 0.421875,-0.125 0.421875,-0.4375 0,-0.3125 -0.3125,-0.609375 -0.734375,-0.609375 -0.734375,0 -1.09375,0.671875 -1.21875,1.09375 z m 0,0"
               id="path8269" />
          </symbol>
          <symbol
             style="overflow:visible"
             overflow="visible"
             id="textext-30cfa9e7-8">
            <path
               inkscape:connector-curvature="0"
               style="stroke:none"
               d="m 1.265625,-0.765625 1.0625,-1.03125 c 1.546875,-1.375 2.140625,-1.90625 2.140625,-2.90625 0,-1.140625 -0.890625,-1.9375 -2.109375,-1.9375 -1.125,0 -1.859375,0.921875 -1.859375,1.8125 0,0.546875 0.5,0.546875 0.53125,0.546875 0.171875,0 0.515625,-0.109375 0.515625,-0.53125 0,-0.25 -0.1875,-0.515625 -0.53125,-0.515625 -0.078125,0 -0.09375,0 -0.125,0.015625 0.21875,-0.65625 0.765625,-1.015625 1.34375,-1.015625 0.90625,0 1.328125,0.8125 1.328125,1.625 C 3.5625,-3.90625 3.078125,-3.125 2.515625,-2.5 l -1.90625,2.125 C 0.5,-0.265625 0.5,-0.234375 0.5,0 l 3.703125,0 0.265625,-1.734375 -0.234375,0 C 4.171875,-1.4375 4.109375,-1 4,-0.84375 3.9375,-0.765625 3.28125,-0.765625 3.0625,-0.765625 z m 0,0"
               id="path8272" />
          </symbol>
        </g>
      </defs>
      <g
         id="textext-30cfa9e7-9">
        <g
           style="fill:#000000;fill-opacity:1"
           id="g8275">
          <use
             height="233.68954"
             width="409.55035"
             xlink:href="#textext-30cfa9e7-1"
             x="223.43201"
             y="134.765"
             id="use8277" />
          <use
             height="233.68954"
             width="409.55035"
             xlink:href="#textext-30cfa9e7-2"
             x="227.85938"
             y="134.765"
             id="use8279" />
          <use
             height="233.68954"
             width="409.55035"
             xlink:href="#textext-30cfa9e7-3"
             x="230.62698"
             y="134.765"
             id="use8281" />
          <use
             height="233.68954"
             width="409.55035"
             xlink:href="#textext-30cfa9e7-4"
             x="236.16222"
             y="134.765"
             id="use8283" />
          <use
             height="233.68954"
             width="409.55035"
             xlink:href="#textext-30cfa9e7-5"
             x="240.09146"
             y="134.765"
             id="use8285" />
          <use
             height="233.68954"
             width="409.55035"
             xlink:href="#textext-30cfa9e7-6"
             x="243.96591"
             y="134.765"
             id="use8287" />
          <use
             height="233.68954"
             width="409.55035"
             xlink:href="#textext-30cfa9e7-7"
             x="248.3933"
             y="134.765"
             id="use8289" />
        </g>
        <g
           style="fill:#000000;fill-opacity:1"
           id="g8291">
          <use
             height="233.68954"
             width="409.55035"
             xlink:href="#textext-30cfa9e7-8"
             x="255.61319"
             y="134.765"
             id="use8293" />
        </g>
      </g>
    </g>
    <g
       id="g8659"
       ns0:preamble=""
       ns0:text="new"
       transform="matrix(1.5,0,0,1.5,0.33176104,359.6967)">
      <defs
         id="defs8661">
        <g
           id="g8663">
          <symbol
             id="textext-d2feb48d-0"
             overflow="visible"
             style="overflow:visible">
            <path
               id="path8666"
               d=""
               style="stroke:none"
               inkscape:connector-curvature="0" />
          </symbol>
          <symbol
             id="textext-d2feb48d-1"
             overflow="visible"
             style="overflow:visible">
            <path
               id="path8669"
               d="m 1.09375,-3.421875 0,2.671875 c 0,0.4375 -0.109375,0.4375 -0.78125,0.4375 l 0,0.3125 c 0.359375,-0.015625 0.859375,-0.03125 1.140625,-0.03125 0.25,0 0.765625,0.015625 1.109375,0.03125 l 0,-0.3125 c -0.671875,0 -0.78125,0 -0.78125,-0.4375 l 0,-1.84375 C 1.78125,-3.625 2.5,-4.1875 3.125,-4.1875 c 0.640625,0 0.75,0.53125 0.75,1.109375 l 0,2.328125 c 0,0.4375 -0.109375,0.4375 -0.78125,0.4375 l 0,0.3125 c 0.34375,-0.015625 0.859375,-0.03125 1.125,-0.03125 0.25,0 0.78125,0.015625 1.109375,0.03125 l 0,-0.3125 c -0.515625,0 -0.765625,0 -0.765625,-0.296875 l 0,-1.90625 c 0,-0.859375 0,-1.15625 -0.3125,-1.515625 -0.140625,-0.171875 -0.46875,-0.375 -1.046875,-0.375 C 2.46875,-4.40625 2,-3.984375 1.71875,-3.359375 l 0,-1.046875 -1.40625,0.109375 0,0.3125 c 0.703125,0 0.78125,0.0625 0.78125,0.5625 z m 0,0"
               style="stroke:none"
               inkscape:connector-curvature="0" />
          </symbol>
          <symbol
             id="textext-d2feb48d-2"
             overflow="visible"
             style="overflow:visible">
            <path
               id="path8672"
               d="M 1.109375,-2.515625 C 1.171875,-4 2.015625,-4.25 2.359375,-4.25 c 1.015625,0 1.125,1.34375 1.125,1.734375 z m 0,0.21875 2.78125,0 c 0.21875,0 0.25,0 0.25,-0.21875 0,-0.984375 -0.546875,-1.953125 -1.78125,-1.953125 -1.15625,0 -2.078125,1.03125 -2.078125,2.28125 0,1.328125 1.046875,2.296875 2.1875,2.296875 C 3.6875,0.109375 4.140625,-1 4.140625,-1.1875 4.140625,-1.28125 4.0625,-1.3125 4,-1.3125 c -0.078125,0 -0.109375,0.0625 -0.125,0.140625 -0.34375,1.03125 -1.25,1.03125 -1.34375,1.03125 -0.5,0 -0.890625,-0.296875 -1.125,-0.671875 -0.296875,-0.46875 -0.296875,-1.125 -0.296875,-1.484375 z m 0,0"
               style="stroke:none"
               inkscape:connector-curvature="0" />
          </symbol>
          <symbol
             id="textext-d2feb48d-3"
             overflow="visible"
             style="overflow:visible">
            <path
               id="path8675"
               d="m 6.171875,-3.34375 c 0.171875,-0.5 0.484375,-0.640625 0.84375,-0.640625 l 0,-0.3125 C 6.78125,-4.28125 6.5,-4.265625 6.28125,-4.265625 c -0.296875,0 -0.734375,-0.015625 -0.921875,-0.03125 l 0,0.3125 c 0.359375,0 0.578125,0.1875 0.578125,0.46875 0,0.0625 0,0.09375 -0.0625,0.21875 L 4.96875,-0.75 3.984375,-3.53125 C 3.953125,-3.65625 3.9375,-3.671875 3.9375,-3.71875 c 0,-0.265625 0.390625,-0.265625 0.59375,-0.265625 l 0,-0.3125 c -0.296875,0.015625 -0.796875,0.03125 -1.046875,0.03125 -0.296875,0 -0.578125,-0.015625 -0.875,-0.03125 l 0,0.3125 c 0.359375,0 0.515625,0.015625 0.625,0.140625 0.046875,0.0625 0.15625,0.359375 0.21875,0.546875 L 2.609375,-0.875 1.65625,-3.53125 C 1.609375,-3.65625 1.609375,-3.671875 1.609375,-3.71875 1.609375,-3.984375 2,-3.984375 2.1875,-3.984375 l 0,-0.3125 c -0.296875,0.015625 -0.859375,0.03125 -1.078125,0.03125 -0.046875,0 -0.578125,-0.015625 -0.9375,-0.03125 l 0,0.3125 c 0.5,0 0.625,0.03125 0.75,0.34375 l 1.25,3.53125 C 2.21875,0.03125 2.25,0.109375 2.375,0.109375 c 0.140625,0 0.15625,-0.0625 0.203125,-0.203125 l 1.015625,-2.8125 1.015625,2.828125 c 0.03125,0.109375 0.0625,0.1875 0.203125,0.1875 0.125,0 0.15625,-0.09375 0.1875,-0.1875 z m 0,0"
               style="stroke:none"
               inkscape:connector-curvature="0" />
          </symbol>
        </g>
      </defs>
      <g
         id="textext-d2feb48d-4">
        <g
           id="g8678"
           style="fill:#000000;fill-opacity:1">
          <use
             id="use8680"
             y="134.765"
             x="223.43201"
             xlink:href="#textext-d2feb48d-1"
             width="409.55035"
             height="233.68954" />
          <use
             id="use8682"
             y="134.765"
             x="228.96722"
             xlink:href="#textext-d2feb48d-2"
             width="409.55035"
             height="233.68954" />
          <use
             id="use8684"
             y="134.765"
             x="233.39461"
             xlink:href="#textext-d2feb48d-3"
             width="409.55035"
             height="233.68954" />
        </g>
      </g>
    </g>
    <path
       id="path4529-6"
       d="m 362.44204,538.09922 0,0 c 0,-4.18341 3.39136,-7.57477 7.57483,-7.57477 l 0,0 c 2.00894,0 3.93564,0.79804 5.35617,2.21857 1.42056,1.42059 2.21863,3.34729 2.21863,5.3562 l 0,0 c 0,4.18347 -3.39136,7.57483 -7.5748,7.57483 l 0,0 c -4.18347,0 -7.57483,-3.39136 -7.57483,-7.57483 z"
       inkscape:connector-curvature="0"
       style="fill-rule:nonzero;stroke:none" />
    <path
       id="path4529-68"
       d="m 382.08491,560.77779 0,0 c 0,-4.18341 3.39136,-7.57477 7.57483,-7.57477 l 0,0 c 2.00894,0 3.93564,0.79804 5.35617,2.21857 1.42056,1.42059 2.21863,3.34729 2.21863,5.3562 l 0,0 c 0,4.18347 -3.39136,7.57483 -7.5748,7.57483 l 0,0 c -4.18347,0 -7.57483,-3.39136 -7.57483,-7.57483 z"
       inkscape:connector-curvature="0"
       style="fill-rule:nonzero;stroke:none" />
    <path
       id="path4529-3"
       d="m 359.76348,572.02779 0,0 c 0,-4.18341 3.39136,-7.57477 7.57483,-7.57477 l 0,0 c 2.00894,0 3.93564,0.79804 5.35617,2.21857 1.42056,1.42059 2.21863,3.34729 2.21863,5.3562 l 0,0 c 0,4.18347 -3.39136,7.57483 -7.5748,7.57483 l 0,0 c -4.18347,0 -7.57483,-3.39136 -7.57483,-7.57483 z"
       inkscape:connector-curvature="0"
       style="fill-rule:nonzero;stroke:none" />
    <path
       id="path4529-1"
       d="m 325.83491,577.5635 0,0 c 0,-4.18341 3.39136,-7.57477 7.57483,-7.57477 l 0,0 c 2.00894,0 3.93564,0.79804 5.35617,2.21857 1.42056,1.42059 2.21863,3.34729 2.21863,5.3562 l 0,0 c 0,4.18347 -3.39136,7.57483 -7.5748,7.57483 l 0,0 c -4.18347,0 -7.57483,-3.39136 -7.57483,-7.57483 z"
       inkscape:connector-curvature="0"
       style="fill-rule:nonzero;stroke:none" />
  </g>
</svg>
