<?xml version="1.0" encoding="UTF-8" standalone="no"?>
<!-- Created with Inkscape (http://www.inkscape.org/) -->

<svg
   xmlns:dc="http://purl.org/dc/elements/1.1/"
   xmlns:cc="http://creativecommons.org/ns#"
   xmlns:rdf="http://www.w3.org/1999/02/22-rdf-syntax-ns#"
   xmlns:svg="http://www.w3.org/2000/svg"
   xmlns="http://www.w3.org/2000/svg"
   xmlns:sodipodi="http://sodipodi.sourceforge.net/DTD/sodipodi-0.dtd"
   xmlns:inkscape="http://www.inkscape.org/namespaces/inkscape"
   width="328.0625"
   height="225.65726"
   id="svg3210"
   version="1.1"
   inkscape:version="0.48.4 r9939"
   sodipodi:docname="New document 2">
  <defs
     id="defs3212" />
  <sodipodi:namedview
     id="base"
     pagecolor="#ffffff"
     bordercolor="#666666"
     borderopacity="1.0"
     inkscape:pageopacity="0.0"
     inkscape:pageshadow="2"
     inkscape:zoom="1.979899"
     inkscape:cx="164.03125"
     inkscape:cy="137.16904"
     inkscape:document-units="px"
     inkscape:current-layer="layer1"
     showgrid="false"
     fit-margin-top="0"
     fit-margin-left="0"
     fit-margin-right="0"
     fit-margin-bottom="0"
     inkscape:window-width="1920"
     inkscape:window-height="1018"
     inkscape:window-x="0"
     inkscape:window-y="27"
     inkscape:window-maximized="1" />
  <metadata
     id="metadata3215">
    <rdf:RDF>
      <cc:Work
         rdf:about="">
        <dc:format>image/svg+xml</dc:format>
        <dc:type
           rdf:resource="http://purl.org/dc/dcmitype/StillImage" />
        <dc:title></dc:title>
      </cc:Work>
    </rdf:RDF>
  </metadata>
  <g
     inkscape:label="Layer 1"
     inkscape:groupmode="layer"
     id="layer1"
     transform="translate(-210.96875,-443.87399)">
    <path
       style="fill:#000000;fill-opacity:0;fill-rule:nonzero"
       inkscape:connector-curvature="0"
       d="m 225.04462,443.87399 0,225.66931"
       id="path82" />
    <path
       style="fill-rule:nonzero;stroke:#5a6065;stroke-width:2;stroke-linecap:butt;stroke-linejoin:round"
       inkscape:connector-curvature="0"
       d="m 225.04462,443.87399 0,225.66931"
       id="path84" />
    <path
       style="fill:#000000;fill-opacity:0;fill-rule:nonzero"
       inkscape:connector-curvature="0"
       d="m 210.9685,655.00257 328.063,0"
       id="path86" />
    <path
       style="fill-rule:nonzero;stroke:#5a6065;stroke-width:2;stroke-linecap:butt;stroke-linejoin:round"
       inkscape:connector-curvature="0"
       d="m 210.9685,655.00257 328.063,0"
       id="path88" />
    <path
       style="fill:#dd6108;fill-rule:nonzero"
       inkscape:connector-curvature="0"
       d="m 459.6378,631.16402 0,0 c 0,-4.18347 3.39136,-7.57483 7.5748,-7.57483 l 0,0 c 2.00894,0 3.93564,0.7981 5.3562,2.21863 1.42053,1.42053 2.2186,3.34723 2.2186,5.3562 l 0,0 c 0,4.18347 -3.39136,7.57483 -7.5748,7.57483 l 0,0 c -4.18344,0 -7.5748,-3.39136 -7.5748,-7.57483 z"
       id="path90" />
    <path
       style="fill:#dd6108;fill-rule:nonzero"
       inkscape:connector-curvature="0"
       d="m 407.05247,566.5577 0,0 c 0,-4.18341 3.39136,-7.57477 7.57483,-7.57477 l 0,0 c 2.00894,0 3.93564,0.79804 5.35617,2.21857 1.42056,1.42059 2.21863,3.34729 2.21863,5.3562 l 0,0 c 0,4.18347 -3.39136,7.57483 -7.5748,7.57483 l 0,0 c -4.18347,0 -7.57483,-3.39136 -7.57483,-7.57483 z"
       id="path92" />
    <path
       style="fill:#dd6108;fill-rule:nonzero"
       inkscape:connector-curvature="0"
       d="m 357.76378,527.38711 0,0 c 0,-4.18344 3.39136,-7.5748 7.5748,-7.5748 l 0,0 c 2.00896,0 3.93564,0.79807 5.3562,2.21863 1.42055,1.42053 2.2186,3.34723 2.2186,5.35617 l 0,0 c 0,4.18347 -3.39135,7.57483 -7.5748,7.57483 l 0,0 c -4.18344,0 -7.5748,-3.39136 -7.5748,-7.57483 z"
       id="path94" />
    <path
       style="fill:#dd6108;fill-rule:nonzero"
       inkscape:connector-curvature="0"
       d="m 437.3412,609.13517 0,0 c 0,-4.18347 3.39136,-7.57483 7.5748,-7.57483 l 0,0 c 2.00897,0 3.93564,0.7981 5.3562,2.21863 1.42056,1.42053 2.2186,3.34723 2.2186,5.3562 l 0,0 c 0,4.18347 -3.39136,7.57483 -7.5748,7.57483 l 0,0 c -4.18344,0 -7.5748,-3.39136 -7.5748,-7.57483 z"
       id="path96" />
    <path
       style="fill:#dd6108;fill-rule:nonzero"
       inkscape:connector-curvature="0"
       d="m 461.97374,600.86483 0,0 c 0,-4.18347 3.39136,-7.57483 7.5748,-7.57483 l 0,0 c 2.00897,0 3.93567,0.79804 5.3562,2.21863 1.42056,1.42053 2.21863,3.34723 2.21863,5.3562 l 0,0 c 0,4.18341 -3.39136,7.57477 -7.57483,7.57477 l 0,0 c -4.18344,0 -7.5748,-3.39136 -7.5748,-7.57477 z"
       id="path98" />
    <path
       style="fill:#dd6108;fill-rule:nonzero"
       inkscape:connector-curvature="0"
       d="m 363.46457,571.27427 0,0 c 0,-4.18347 3.39134,-7.57477 7.5748,-7.57477 l 0,0 c 2.00896,0 3.93564,0.79804 5.35618,2.21857 1.42057,1.42053 2.21862,3.34723 2.21862,5.3562 l 0,0 c 0,4.18347 -3.39136,7.57483 -7.5748,7.57483 l 0,0 c -4.18346,0 -7.5748,-3.39136 -7.5748,-7.57483 z"
       id="path100" />
    <path
       style="fill:#dd6108;fill-rule:nonzero"
       inkscape:connector-curvature="0"
       d="m 384.23622,547.53674 0,0 c 0,-4.18347 3.39136,-7.5748 7.5748,-7.5748 l 0,0 c 2.00897,0 3.93564,0.79804 5.3562,2.2186 1.42053,1.42056 2.2186,3.34723 2.2186,5.3562 l 0,0 c 0,4.18344 -3.39136,7.5748 -7.5748,7.5748 l 0,0 c -4.18344,0 -7.5748,-3.39136 -7.5748,-7.5748 z"
       id="path102" />
    <path
       style="fill:#dd6108;fill-rule:nonzero"
       inkscape:connector-curvature="0"
       d="m 424.54067,588.56297 0,0 c 0,-4.18341 3.39136,-7.57477 7.57483,-7.57477 l 0,0 c 2.00894,0 3.93564,0.79804 5.35617,2.21857 1.42056,1.42059 2.21863,3.34729 2.21863,5.3562 l 0,0 c 0,4.18347 -3.39136,7.57483 -7.5748,7.57483 l 0,0 c -4.18347,0 -7.57483,-3.39136 -7.57483,-7.57483 z"
       id="path104" />
    <path
       style="fill:#b1063a;fill-rule:nonzero"
       inkscape:connector-curvature="0"
       d="m 287.2336,498.2795 6.70865,-7.05511 6.70866,7.05511 -6.70866,7.05511 z"
       id="path106" />
    <path
       style="fill:#b1063a;fill-rule:nonzero"
       inkscape:connector-curvature="0"
       d="m 279,511.64827 6.70866,-7.05511 6.70865,7.05511 -6.70865,7.05511 z"
       id="path108" />
    <path
       style="fill:#b1063a;fill-rule:nonzero"
       inkscape:connector-curvature="0"
       d="m 275.12598,545.24801 6.70866,-7.05511 6.70867,7.05511 -6.70867,7.05511 z"
       id="path110" />
    <path
       style="fill:#b1063a;fill-rule:nonzero"
       inkscape:connector-curvature="0"
       d="m 314.17059,498.2795 6.70866,-7.05511 6.70867,7.05511 -6.70867,7.05511 z"
       id="path112" />
    <path
       style="fill:#b1063a;fill-rule:nonzero"
       inkscape:connector-curvature="0"
       d="m 325.3832,477.65747 6.70866,-7.05511 6.70867,7.05511 -6.70867,7.05511 z"
       id="path114" />
    <path
       style="fill:#b1063a;fill-rule:nonzero"
       inkscape:connector-curvature="0"
       d="m 350.91337,480.49212 6.70866,-7.05515 6.70867,7.05515 -6.70867,7.05511 z"
       id="path116" />
    <path
       style="fill:#b1063a;fill-rule:nonzero"
       inkscape:connector-curvature="0"
       d="m 382.7979,473.0328 6.70865,-7.05511 6.70868,7.05511 -6.70868,7.05511 z"
       id="path118" />
    <path
       style="fill:#b1063a;fill-rule:nonzero"
       inkscape:connector-curvature="0"
       d="m 254.30183,559.87797 6.70867,-7.05515 6.70866,7.05515 -6.70866,7.05511 z"
       id="path120" />
    <path
       style="fill:#b1063a;fill-rule:nonzero"
       inkscape:connector-curvature="0"
       d="m 267.71917,526.50524 6.70865,-7.05511 6.70866,7.05511 -6.70866,7.05511 z"
       id="path122" />
    <path
       style="fill:#b1063a;fill-rule:nonzero"
       inkscape:connector-curvature="0"
       d="m 257.85564,584.01443 6.70866,-7.05511 6.70867,7.05511 -6.70867,7.05511 z"
       id="path124" />
    <path
       style="fill:#b1063a;fill-rule:nonzero"
       inkscape:connector-curvature="0"
       d="m 260.29659,509.37923 6.70866,-7.05511 6.70867,7.05511 -6.70867,7.05511 z"
       id="path126" />
    <path
       style="fill:#b1063a;fill-rule:nonzero"
       inkscape:connector-curvature="0"
       d="m 297.5853,480.49212 6.70866,-7.05515 6.70867,7.05515 -6.70867,7.05511 z"
       id="path128" />
    <path
       style="fill:#b1063a;fill-rule:nonzero"
       inkscape:connector-curvature="0"
       d="m 338.80052,463.54723 6.70866,-7.05511 6.70867,7.05511 -6.70867,7.05511 z"
       id="path130" />
    <path
       style="fill:#b1063a;fill-rule:nonzero"
       inkscape:connector-curvature="0"
       d="m 364.3307,463.54723 6.70866,-7.05511 6.70867,7.05511 -6.70867,7.05511 z"
       id="path132" />
    <path
       style="fill:#dd6108;fill-rule:nonzero"
       inkscape:connector-curvature="0"
       d="m 327.58792,574.55642 0,0 c 0,-4.18347 3.39136,-7.57483 7.5748,-7.57483 l 0,0 c 2.00897,0 3.93565,0.7981 5.3562,2.21863 1.42055,1.42053 2.21861,3.34723 2.21861,5.3562 l 0,0 c 0,4.18341 -3.39136,7.57477 -7.57481,7.57477 l 0,0 c -4.18344,0 -7.5748,-3.39136 -7.5748,-7.57477 z"
       id="path134" />
    <path
       style="fill:#dd6108;fill-rule:nonzero"
       inkscape:connector-curvature="0"
       d="m 434.51442,629.70867 0,0 c 0,-4.18347 3.39136,-7.57483 7.57483,-7.57483 l 0,0 c 2.00894,0 3.93564,0.7981 5.35617,2.21863 1.42056,1.42053 2.21863,3.34723 2.21863,5.3562 l 0,0 c 0,4.18347 -3.39136,7.57483 -7.5748,7.57483 l 0,0 c -4.18347,0 -7.57483,-3.39136 -7.57483,-7.57483 z"
       id="path136" />
    <path
       style="fill:#dd6108;fill-rule:nonzero"
       inkscape:connector-curvature="0"
       d="m 374.95801,595.51047 0,0 c 0,-4.18341 3.39134,-7.57477 7.5748,-7.57477 l 0,0 c 2.00896,0 3.93565,0.79804 5.35618,2.21857 1.42057,1.42059 2.21863,3.34723 2.21863,5.3562 l 0,0 c 0,4.18347 -3.39135,7.57483 -7.57481,7.57483 l 0,0 c -4.18346,0 -7.5748,-3.39136 -7.5748,-7.57483 z"
       id="path138" />
    <path
       style="fill:#dd6108;fill-rule:nonzero"
       inkscape:connector-curvature="0"
       d="m 409.39107,614.06167 0,0 c 0,-4.18347 3.39136,-7.57483 7.5748,-7.57483 l 0,0 c 2.00897,0 3.93564,0.7981 5.3562,2.21863 1.42056,1.42053 2.2186,3.34723 2.2186,5.3562 l 0,0 c 0,4.18341 -3.39133,7.57477 -7.5748,7.57477 l 0,0 c -4.18344,0 -7.5748,-3.39136 -7.5748,-7.57477 z"
       id="path140" />
    <path
       style="fill:#274e13;fill-rule:nonzero"
       inkscape:connector-curvature="0"
       d="m 342.73753,549.85561 6.70866,-14.11023 6.70865,14.11023 z"
       id="path142" />
    <path
       style="fill:#b1063a;fill-rule:nonzero"
       inkscape:connector-curvature="0"
       d="m 306.63593,508.61013 2.86003,-2.86005 3.03816,3.03815 3.03815,-3.03815 2.86005,2.86005 -3.03817,3.03815 3.03817,3.03814 -2.86005,2.86005 -3.03815,-3.03815 -3.03816,3.03815 -2.86003,-2.86005 3.03816,-3.03814 z"
       id="path144" />
    <path
       style="fill:#dd6108;fill-rule:nonzero"
       inkscape:connector-curvature="0"
       d="m 398.43097,582.51277 2.86005,-2.86005 3.03814,3.03815 3.03815,-3.03815 2.86005,2.86005 -3.03815,3.03815 3.03815,3.03814 -2.86005,2.86005 -3.03815,-3.03815 -3.03814,3.03815 -2.86005,-2.86005 3.03815,-3.03814 z"
       id="path146" />
    <path
       style="fill:#000000;fill-opacity:0;fill-rule:nonzero"
       inkscape:connector-curvature="0"
       d="m 210.9685,394.18107 123.49607,0 0,43.08661 -123.49607,0 z"
       id="path162" />
    <path
       style="fill:#000000;fill-opacity:0;fill-rule:nonzero"
       inkscape:connector-curvature="0"
       d="m 242.90791,443.87399 84.8189,0 0,33.13388 -84.8189,0 z"
       id="path166" />
    <path
       style="fill:#000000;fill-rule:nonzero"
       inkscape:connector-curvature="0"
       d="m 252.53291,464.0465 q 0,-0.89063 0.29687,-1.67188 0.3125,-0.78125 0.85938,-1.35937 0.5625,-0.59375 1.32812,-0.92188 0.76563,-0.34375 1.6875,-0.34375 1.18751,0 2.06251,0.54688 0.89063,0.53125 1.32813,1.4375 l -1.04688,0.34375 q -0.35937,-0.64063 -0.98437,-1 -0.62501,-0.35938 -1.39064,-0.35938 -0.64062,0 -1.1875,0.25 -0.54687,0.25 -0.96875,0.70313 -0.40625,0.4375 -0.64062,1.04687 -0.21875,0.60938 -0.21875,1.32813 0,0.70312 0.23437,1.32812 0.23438,0.625 0.65625,1.07813 0.42188,0.45312 0.96875,0.71875 0.54688,0.26562 1.17188,0.26562 0.40625,0 0.79687,-0.10937 0.39064,-0.125 0.71876,-0.3125 0.34375,-0.20313 0.57813,-0.45313 0.25,-0.26562 0.34375,-0.54687 l 1.04687,0.3125 q -0.17187,0.45312 -0.51562,0.82812 -0.32813,0.375 -0.78125,0.65625 -0.45313,0.28125 -1.01563,0.42188 -0.54688,0.15625 -1.14063,0.15625 -0.90625,0 -1.67188,-0.34375 -0.76562,-0.34375 -1.32812,-0.9375 -0.5625,-0.60938 -0.875,-1.39063 -0.3125,-0.78125 -0.3125,-1.67187 z m 9.39378,-7.5 1.07812,0 0,9.79687 q 0,0.46875 0.25,0.73438 0.26563,0.26562 0.73438,0.26562 0.17187,0 0.40625,-0.0469 0.25,-0.0469 0.45312,-0.14063 l 0.20313,0.89063 q -0.3125,0.125 -0.75,0.20312 -0.4375,0.0781 -0.76563,0.0781 -0.75,0 -1.1875,-0.42188 -0.42187,-0.42187 -0.42187,-1.1875 l 0,-10.17187 z m 6.75526,11.84375 q -1.3125,0 -1.98437,-0.89063 -0.67188,-0.90625 -0.67188,-2.70312 l 0,-4.90625 1.07813,0 0,4.71875 q 0,2.82812 1.9375,2.82812 0.48437,0 0.9375,-0.15625 0.46875,-0.17187 0.85937,-0.46875 0.39063,-0.3125 0.70313,-0.71875 0.3125,-0.42187 0.51562,-0.95312 l 0,-5.25 1.07813,0 0,6.9375 q 0,0.45312 0.40625,0.45312 l 0,0.95313 q -0.32813,0.0469 -0.45313,0.0469 -0.35937,0 -0.625,-0.21875 -0.26562,-0.23437 -0.26562,-0.5625 l 0,-1.15625 q -0.5625,0.98438 -1.5,1.51563 -0.92188,0.53125 -2.01563,0.53125 z m 9.72276,0 q -0.98437,0 -1.90625,-0.3125 -0.92187,-0.32813 -1.59375,-0.9375 l 0.48438,-0.73438 q 0.70312,0.57813 1.4375,0.875 0.73437,0.28125 1.5625,0.28125 1,0 1.59375,-0.40625 0.60937,-0.40625 0.60937,-1.15625 0,-0.35937 -0.15625,-0.59375 -0.15625,-0.23437 -0.46875,-0.40625 -0.3125,-0.17187 -0.79687,-0.3125 -0.46875,-0.14062 -1.09375,-0.28125 -0.71875,-0.17187 -1.25,-0.34375 -0.51563,-0.1875 -0.85938,-0.40625 -0.34375,-0.21875 -0.51562,-0.54687 -0.17188,-0.32813 -0.17188,-0.82813 0,-0.625 0.25,-1.09375 0.25,-0.48437 0.67188,-0.79687 0.42187,-0.3125 0.98437,-0.46875 0.57813,-0.17188 1.21875,-0.17188 0.95313,0 1.73438,0.3125 0.79687,0.3125 1.26562,0.82813 l -0.51562,0.64062 q -0.46875,-0.48437 -1.14063,-0.71875 -0.65625,-0.23437 -1.375,-0.23437 -0.4375,0 -0.8125,0.0937 -0.35937,0.0781 -0.64062,0.26562 -0.28125,0.1875 -0.4375,0.48438 -0.15625,0.29687 -0.15625,0.70312 0,0.32813 0.10937,0.54688 0.10938,0.20312 0.35938,0.35937 0.26562,0.14063 0.65625,0.26563 0.39062,0.125 0.95312,0.25 0.79688,0.1875 1.40625,0.39062 0.60938,0.1875 1.01563,0.45313 0.40625,0.25 0.60937,0.625 0.21875,0.35937 0.21875,0.875 0,1.15625 -0.89062,1.82812 -0.875,0.67188 -2.35938,0.67188 z m 9.0264,-0.5625 q -0.0937,0.0469 -0.28125,0.14062 -0.1875,0.0781 -0.4375,0.15625 -0.23437,0.0781 -0.54687,0.14063 -0.29688,0.0625 -0.625,0.0625 -0.35938,0 -0.6875,-0.0937 -0.3125,-0.0937 -0.54688,-0.29688 -0.23437,-0.20312 -0.39062,-0.5 -0.14063,-0.3125 -0.14063,-0.70312 l 0,-5.96875 -1.14062,0 0,-0.875 1.14062,0 0,-2.8125 1.09375,0 0,2.8125 1.92188,0 0,0.875 -1.92188,0 0,5.65625 q 0.0312,0.46875 0.3125,0.6875 0.29688,0.21875 0.6875,0.21875 0.46875,0 0.8125,-0.15625 0.35938,-0.15625 0.45313,-0.21875 l 0.29687,0.875 z m 4.92139,0.5625 q -0.90625,0 -1.67188,-0.34375 -0.76562,-0.34375 -1.32812,-0.9375 -0.5625,-0.60938 -0.875,-1.39063 -0.3125,-0.78125 -0.3125,-1.67187 0,-0.89063 0.3125,-1.65625 0.3125,-0.78125 0.875,-1.35938 0.5625,-0.59375 1.3125,-0.9375 0.76562,-0.34375 1.67187,-0.34375 0.92188,0 1.67188,0.34375 0.76562,0.34375 1.29687,0.9375 0.54688,0.59375 0.84375,1.35938 0.3125,0.76562 0.3125,1.64062 0,0.125 -0.0156,0.25 0,0.125 -0.0156,0.17188 l -7.10937,0 q 0.0469,0.67187 0.3125,1.25 0.26562,0.5625 0.67187,0.98437 0.40625,0.40625 0.9375,0.64063 0.53125,0.23437 1.14063,0.23437 0.42187,0 0.8125,-0.10937 0.40625,-0.10938 0.73437,-0.29688 0.34375,-0.20312 0.60938,-0.48437 0.26562,-0.28125 0.40625,-0.60938 l 0.95312,0.25 q -0.20312,0.46875 -0.5625,0.84375 -0.34375,0.375 -0.8125,0.65625 -0.45312,0.28125 -1.01562,0.42188 -0.5625,0.15625 -1.15625,0.15625 z m 3.07812,-4.76563 q -0.0469,-0.67187 -0.3125,-1.21875 -0.26562,-0.5625 -0.67187,-0.95312 -0.40625,-0.40625 -0.95313,-0.625 -0.54687,-0.21875 -1.15625,-0.21875 -0.60937,0 -1.15625,0.21875 -0.53125,0.21875 -0.95312,0.625 -0.40625,0.39062 -0.65625,0.95312 -0.23438,0.5625 -0.28125,1.21875 l 6.14062,0 z m 6.82952,-2.76562 q -1.10938,0.0312 -1.92188,0.60937 -0.8125,0.57813 -1.15625,1.57813 l 0,5.1875 -1.07812,0 0,-8.34375 1.01562,0 0,2 q 0.4375,-0.875 1.14063,-1.45313 0.70312,-0.59375 1.51562,-0.59375 0.14063,0 0.26563,0 0.14062,0 0.21875,0.0156 l 0,1 z m 10.88389,6.39062 0,0.98438 -5.42187,0 0,-0.98438 2.26562,0 0,-6.85937 q -0.14062,0.20312 -0.45312,0.42187 -0.29688,0.21875 -0.67188,0.42188 -0.375,0.1875 -0.78125,0.3125 -0.39062,0.125 -0.70312,0.125 l 0,-1.04688 q 0.375,0 0.8125,-0.20312 0.4375,-0.21875 0.82812,-0.48438 0.39063,-0.28125 0.65625,-0.51562 0.28125,-0.25 0.3125,-0.32813 l 1.125,0 0,8.15625 2.03125,0 z"
       id="path168" />
    <path
       style="fill:#000000;fill-opacity:0;fill-rule:nonzero"
       inkscape:connector-curvature="0"
       d="m 433.36723,554.95013 84.81888,0 0,33.13382 -84.81888,0 z"
       id="path170" />
    <path
       style="fill:#000000;fill-rule:nonzero"
       inkscape:connector-curvature="0"
       d="m 442.99223,575.12267 q 0,-0.89062 0.29687,-1.67187 0.3125,-0.78125 0.85938,-1.35938 0.5625,-0.59375 1.32812,-0.92187 0.76563,-0.34375 1.6875,-0.34375 1.1875,0 2.0625,0.54687 0.89063,0.53125 1.32813,1.4375 l -1.04688,0.34375 q -0.35937,-0.64062 -0.98437,-1 -0.625,-0.35937 -1.39063,-0.35937 -0.64062,0 -1.1875,0.25 -0.54687,0.25 -0.96875,0.70312 -0.40625,0.4375 -0.64062,1.04688 -0.21875,0.60937 -0.21875,1.32812 0,0.70313 0.23437,1.32813 0.23438,0.625 0.65625,1.07812 0.42188,0.45313 0.96875,0.71875 0.54688,0.26563 1.17188,0.26563 0.40625,0 0.79687,-0.10938 0.39063,-0.125 0.71875,-0.3125 0.34375,-0.20312 0.57813,-0.45312 0.25,-0.26563 0.34375,-0.54688 l 1.04687,0.3125 q -0.17187,0.45313 -0.51562,0.82813 -0.32813,0.375 -0.78125,0.65625 -0.45313,0.28125 -1.01563,0.42187 -0.54687,0.15625 -1.14062,0.15625 -0.90625,0 -1.67188,-0.34375 -0.76562,-0.34375 -1.32812,-0.9375 -0.5625,-0.60937 -0.875,-1.39062 -0.3125,-0.78125 -0.3125,-1.67188 z m 9.39377,-7.5 1.07812,0 0,9.79688 q 0,0.46875 0.25,0.73437 0.26563,0.26563 0.73438,0.26563 0.17187,0 0.40625,-0.0469 0.25,-0.0469 0.45312,-0.14062 l 0.20313,0.89062 q -0.3125,0.125 -0.75,0.20313 -0.4375,0.0781 -0.76563,0.0781 -0.75,0 -1.1875,-0.42187 -0.42187,-0.42188 -0.42187,-1.1875 l 0,-10.17188 z m 6.75525,11.84375 q -1.3125,0 -1.98438,-0.89062 -0.67187,-0.90625 -0.67187,-2.70313 l 0,-4.90625 1.07812,0 0,4.71875 q 0,2.82813 1.9375,2.82813 0.48438,0 0.9375,-0.15625 0.46875,-0.17188 0.85938,-0.46875 0.39062,-0.3125 0.70312,-0.71875 0.3125,-0.42188 0.51563,-0.95313 l 0,-5.25 1.07812,0 0,6.9375 q 0,0.45313 0.40625,0.45313 l 0,0.95312 q -0.32812,0.0469 -0.45312,0.0469 -0.35938,0 -0.625,-0.21875 -0.26563,-0.23438 -0.26563,-0.5625 l 0,-1.15625 q -0.5625,0.98437 -1.5,1.51562 -0.92187,0.53125 -2.01562,0.53125 z m 9.72277,0 q -0.98437,0 -1.90625,-0.3125 -0.92187,-0.32812 -1.59375,-0.9375 l 0.48438,-0.73437 q 0.70312,0.57812 1.4375,0.875 0.73437,0.28125 1.5625,0.28125 1,0 1.59375,-0.40625 0.60937,-0.40625 0.60937,-1.15625 0,-0.35938 -0.15625,-0.59375 -0.15625,-0.23438 -0.46875,-0.40625 -0.3125,-0.17188 -0.79687,-0.3125 -0.46875,-0.14063 -1.09375,-0.28125 -0.71875,-0.17188 -1.25,-0.34375 -0.51563,-0.1875 -0.85938,-0.40625 -0.34375,-0.21875 -0.51562,-0.54688 -0.17188,-0.32812 -0.17188,-0.82812 0,-0.625 0.25,-1.09375 0.25,-0.48438 0.67188,-0.79688 0.42187,-0.3125 0.98437,-0.46875 0.57813,-0.17187 1.21875,-0.17187 0.95313,0 1.73438,0.3125 0.79687,0.3125 1.26562,0.82812 l -0.51562,0.64063 q -0.46875,-0.48438 -1.14063,-0.71875 -0.65625,-0.23438 -1.375,-0.23438 -0.4375,0 -0.8125,0.0937 -0.35937,0.0781 -0.64062,0.26563 -0.28125,0.1875 -0.4375,0.48437 -0.15625,0.29688 -0.15625,0.70313 0,0.32812 0.10937,0.54687 0.10938,0.20313 0.35938,0.35938 0.26562,0.14062 0.65625,0.26562 0.39062,0.125 0.95312,0.25 0.79688,0.1875 1.40625,0.39063 0.60938,0.1875 1.01563,0.45312 0.40625,0.25 0.60937,0.625 0.21875,0.35938 0.21875,0.875 0,1.15625 -0.89062,1.82813 -0.875,0.67187 -2.35938,0.67187 z m 9.0264,-0.5625 q -0.0937,0.0469 -0.28125,0.14063 -0.1875,0.0781 -0.4375,0.15625 -0.23437,0.0781 -0.54687,0.14062 -0.29688,0.0625 -0.625,0.0625 -0.35938,0 -0.6875,-0.0937 -0.3125,-0.0937 -0.54688,-0.29687 -0.23437,-0.20313 -0.39062,-0.5 -0.14063,-0.3125 -0.14063,-0.70313 l 0,-5.96875 -1.14062,0 0,-0.875 1.14062,0 0,-2.8125 1.09375,0 0,2.8125 1.92188,0 0,0.875 -1.92188,0 0,5.65625 q 0.0312,0.46875 0.3125,0.6875 0.29688,0.21875 0.6875,0.21875 0.46875,0 0.8125,-0.15625 0.35938,-0.15625 0.45313,-0.21875 l 0.29687,0.875 z m 4.92139,0.5625 q -0.90625,0 -1.67188,-0.34375 -0.76562,-0.34375 -1.32812,-0.9375 -0.5625,-0.60937 -0.875,-1.39062 -0.3125,-0.78125 -0.3125,-1.67188 0,-0.89062 0.3125,-1.65625 0.3125,-0.78125 0.875,-1.35937 0.5625,-0.59375 1.3125,-0.9375 0.76562,-0.34375 1.67187,-0.34375 0.92188,0 1.67188,0.34375 0.76562,0.34375 1.29687,0.9375 0.54688,0.59375 0.84375,1.35937 0.3125,0.76563 0.3125,1.64063 0,0.125 -0.0156,0.25 0,0.125 -0.0156,0.17187 l -7.10937,0 q 0.0469,0.67188 0.3125,1.25 0.26562,0.5625 0.67187,0.98438 0.40625,0.40625 0.9375,0.64062 0.53125,0.23438 1.14063,0.23438 0.42187,0 0.8125,-0.10938 0.40625,-0.10937 0.73437,-0.29687 0.34375,-0.20313 0.60938,-0.48438 0.26562,-0.28125 0.40625,-0.60937 l 0.95312,0.25 q -0.20312,0.46875 -0.5625,0.84375 -0.34375,0.375 -0.8125,0.65625 -0.45312,0.28125 -1.01562,0.42187 -0.5625,0.15625 -1.15625,0.15625 z m 3.07812,-4.76562 q -0.0469,-0.67188 -0.3125,-1.21875 -0.26562,-0.5625 -0.67187,-0.95313 -0.40625,-0.40625 -0.95313,-0.625 -0.54687,-0.21875 -1.15625,-0.21875 -0.60937,0 -1.15625,0.21875 -0.53125,0.21875 -0.95312,0.625 -0.40625,0.39063 -0.65625,0.95313 -0.23438,0.5625 -0.28125,1.21875 l 6.14062,0 z m 6.8295,-2.76563 q -1.10937,0.0312 -1.92187,0.60938 -0.8125,0.57812 -1.15625,1.57812 l 0,5.1875 -1.07813,0 0,-8.34375 1.01563,0 0,2 q 0.4375,-0.875 1.14062,-1.45312 0.70313,-0.59375 1.51563,-0.59375 0.14062,0 0.26562,0 0.14063,0 0.21875,0.0156 l 0,1 z m 5.19641,7.375 q 0,-0.59375 0.10938,-1.15625 0.10937,-0.57812 0.39062,-1.09375 0.29688,-0.53125 0.8125,-1.01562 0.53125,-0.5 1.34375,-0.92188 0.4375,-0.23437 0.9375,-0.45312 0.5,-0.23438 0.9375,-0.51563 0.4375,-0.29687 0.71875,-0.64062 0.28125,-0.35938 0.28125,-0.84375 0,-0.29688 -0.14062,-0.59375 -0.14063,-0.3125 -0.40625,-0.54688 -0.26563,-0.25 -0.65625,-0.39062 -0.39063,-0.14063 -0.90625,-0.14063 -0.51563,0 -0.95313,0.15625 -0.42187,0.14063 -0.75,0.35938 -0.3125,0.20312 -0.53125,0.4375 -0.20312,0.21875 -0.3125,0.375 l -0.73437,-0.79688 q 0.10937,-0.0937 0.375,-0.34375 0.26562,-0.26562 0.70312,-0.51562 0.45313,-0.25 1.04688,-0.45313 0.60937,-0.20312 1.35937,-0.20312 0.71875,0 1.28125,0.20312 0.5625,0.20313 0.96875,0.5625 0.40625,0.34375 0.60938,0.79688 0.20312,0.45312 0.20312,0.96875 0,0.67187 -0.3125,1.15625 -0.3125,0.48437 -0.76562,0.84375 -0.4375,0.34375 -0.90625,0.57812 -0.46875,0.21875 -0.78125,0.35938 -0.71875,0.32812 -1.20313,0.64062 -0.46875,0.29688 -0.78125,0.625 -0.29687,0.3125 -0.45312,0.70313 -0.15625,0.375 -0.21875,0.875 l 5.60937,0 0,0.98437 -6.875,0 z"
       id="path172" />
    <path
       style="fill:#000000;fill-opacity:0;fill-rule:nonzero"
       inkscape:connector-curvature="0"
       d="m 321.40157,535.25195 56.18898,0 0,33.13388 -56.18898,0 z"
       id="path174" />
    <path
       style="fill:#000000;fill-rule:nonzero"
       inkscape:connector-curvature="0"
       d="m 341.8199,559.61197 -1.07813,0 0,-4.65625 q 0,-1.48438 -0.4375,-2.15625 -0.4375,-0.67188 -1.34375,-0.67188 -0.48437,0 -0.96875,0.17188 -0.46875,0.17187 -0.89062,0.5 -0.40625,0.3125 -0.71875,0.76562 -0.3125,0.4375 -0.48438,0.9375 l 0,5.10938 -1.07812,0 0,-8.34375 0.98437,0 0,1.89062 q 0.26563,-0.4375 0.64063,-0.8125 0.375,-0.375 0.82812,-0.64062 0.46875,-0.28125 0.98438,-0.42188 0.53125,-0.15625 1.09375,-0.15625 0.70312,0 1.17187,0.26563 0.46875,0.25 0.75,0.71875 0.29688,0.45312 0.42188,1.125 0.125,0.67187 0.125,1.5 l 0,4.875 z m 5.90465,0.15625 q -0.90625,0 -1.67188,-0.34375 -0.76562,-0.34375 -1.32812,-0.9375 -0.5625,-0.60938 -0.875,-1.39063 -0.3125,-0.78125 -0.3125,-1.67187 0,-0.89063 0.3125,-1.65625 0.3125,-0.78125 0.875,-1.35938 0.5625,-0.59375 1.3125,-0.9375 0.76562,-0.34375 1.67187,-0.34375 0.92188,0 1.67188,0.34375 0.76562,0.34375 1.29687,0.9375 0.54688,0.59375 0.84375,1.35938 0.3125,0.76562 0.3125,1.64062 0,0.125 -0.0156,0.25 0,0.125 -0.0156,0.17188 l -7.10937,0 q 0.0469,0.67187 0.3125,1.25 0.26562,0.5625 0.67187,0.98437 0.40625,0.40625 0.9375,0.64063 0.53125,0.23437 1.14063,0.23437 0.42187,0 0.8125,-0.10937 0.40625,-0.10938 0.73437,-0.29688 0.34375,-0.20312 0.60938,-0.48437 0.26562,-0.28125 0.40625,-0.60938 l 0.95312,0.25 q -0.20312,0.46875 -0.5625,0.84375 -0.34375,0.375 -0.8125,0.65625 -0.45312,0.28125 -1.01562,0.42188 -0.5625,0.15625 -1.15625,0.15625 z m 3.07812,-4.76563 q -0.0469,-0.67187 -0.3125,-1.21875 -0.26562,-0.5625 -0.67187,-0.95312 -0.40625,-0.40625 -0.95313,-0.625 -0.54687,-0.21875 -1.15625,-0.21875 -0.60937,0 -1.15625,0.21875 -0.53125,0.21875 -0.95312,0.625 -0.40625,0.39062 -0.65625,0.95312 -0.23438,0.5625 -0.28125,1.21875 l 6.14062,0 z m 13.23577,-3.73437 1.04687,0 -3.5625,8.34375 -0.92187,0 -1.76563,-4.25 -1.78125,4.25 -0.90625,0 -3.57812,-8.34375 1.04687,0 3.04688,7.21875 1.57812,-3.79688 -1.42187,-3.39062 0.92187,0 1.09375,2.71875 1.0625,-2.71875 0.9375,0 -1.40625,3.39062 1.57813,3.79688 3.03125,-7.21875 z"
       id="path176" />
  </g>
</svg>
