<?xml version="1.0" encoding="UTF-8" standalone="no"?>
<!-- Created with Inkscape (http://www.inkscape.org/) -->

<svg
   xmlns:ns0="http://www.iki.fi/pav/software/textext/"
   xmlns:dc="http://purl.org/dc/elements/1.1/"
   xmlns:cc="http://creativecommons.org/ns#"
   xmlns:rdf="http://www.w3.org/1999/02/22-rdf-syntax-ns#"
   xmlns:svg="http://www.w3.org/2000/svg"
   xmlns="http://www.w3.org/2000/svg"
   xmlns:xlink="http://www.w3.org/1999/xlink"
   xmlns:sodipodi="http://sodipodi.sourceforge.net/DTD/sodipodi-0.dtd"
   xmlns:inkscape="http://www.inkscape.org/namespaces/inkscape"
   width="381.65649"
   height="228.06232"
   id="svg3196"
   version="1.1"
   inkscape:version="0.48.4 r9939"
   sodipodi:docname="svm.pdf">
  <sodipodi:namedview
     id="base"
     pagecolor="#ffffff"
     bordercolor="#666666"
     borderopacity="1.0"
     inkscape:pageopacity="0.0"
     inkscape:pageshadow="2"
     inkscape:zoom="1.4"
     inkscape:cx="209.65924"
     inkscape:cy="94.1629"
     inkscape:document-units="px"
     inkscape:current-layer="layer1"
     showgrid="false"
     fit-margin-top="0"
     fit-margin-left="0"
     fit-margin-right="0"
     fit-margin-bottom="0"
     inkscape:window-width="1920"
     inkscape:window-height="1014"
     inkscape:window-x="0"
     inkscape:window-y="27"
     inkscape:window-maximized="1" />
  <defs
     id="defs3198" />
  <metadata
     id="metadata3201">
    <rdf:RDF>
      <cc:Work
         rdf:about="">
        <dc:format>image/svg+xml</dc:format>
        <dc:type
           rdf:resource="http://purl.org/dc/dcmitype/StillImage" />
        <dc:title></dc:title>
      </cc:Work>
    </rdf:RDF>
  </metadata>
  <g
     transform="translate(-157.8131,-418.9002)"
     id="layer1"
     inkscape:groupmode="layer"
     inkscape:label="Layer 1">
    <path
       style="fill:#000000;fill-opacity:0;fill-rule:nonzero"
       inkscape:connector-curvature="0"
       id="path64"
       d="m 225.04462,419.52753 0,225.66931" />
    <path
       style="fill:#000000;fill-opacity:0;fill-rule:nonzero"
       inkscape:connector-curvature="0"
       id="path68"
       d="m 210.9685,630.65611 328.063,0" />
    <path
       style="fill:#000000;fill-opacity:0;fill-rule:nonzero"
       inkscape:connector-curvature="0"
       id="path128"
       d="M 302.22572,619.89501 432.49342,426.9186" />
    <path
       style="fill:#000000;fill-opacity:0;fill-rule:nonzero"
       inkscape:connector-curvature="0"
       id="path132"
       d="M 372.75591,619.89501 396.25197,423.98949" />
    <path
       style="fill:#000000;fill-opacity:0;fill-rule:nonzero"
       inkscape:connector-curvature="0"
       id="path136"
       d="m 242.90791,419.52753 84.8189,0 0,33.13388 -84.8189,0 z" />
    <path
       style="fill:#000000;fill-opacity:0;fill-rule:nonzero"
       inkscape:connector-curvature="0"
       id="path140"
       d="m 441.36723,442.60367 84.81888,0 0,33.13385 -84.81888,0 z" />
    <path
       style="fill:#000000;fill-opacity:0;fill-rule:nonzero;stroke:none"
       inkscape:connector-curvature="0"
       id="path144"
       d="m 328.23753,557.49081 56.18896,0 0,33.13385 -56.18896,0 z" />
    <path
       id="path5046"
       d="m 225.48271,418.9002 0,225.66931"
       inkscape:connector-curvature="0"
       style="fill:#000000;fill-opacity:0;fill-rule:nonzero" />
    <path
       id="path5048"
       d="m 225.48271,425.75438 0,218.81512"
       inkscape:connector-curvature="0"
       style="fill-rule:evenodd;stroke:#000000;stroke-width:2;stroke-linecap:butt;stroke-linejoin:round" />
    <path
       id="path5050"
       d="m 225.48271,425.75438 2.24917,2.24918 -2.24917,-6.17954 -2.24917,6.17954 z"
       inkscape:connector-curvature="0"
       style="fill:#000000;fill-rule:evenodd;stroke:#000000;stroke-width:2;stroke-linecap:butt" />
    <path
       id="path5052"
       d="m 211.40659,630.02878 328.063,0"
       inkscape:connector-curvature="0"
       style="fill:#000000;fill-opacity:0;fill-rule:nonzero" />
    <path
       id="path5054"
       d="m 211.40659,630.02878 321.20883,0"
       inkscape:connector-curvature="0"
       style="fill-rule:evenodd;stroke:#000000;stroke-width:2;stroke-linecap:butt;stroke-linejoin:round" />
    <path
       id="path5056"
       d="m 532.61541,630.02878 -2.24918,2.24921 6.17954,-2.24921 -6.17954,-2.24915 z"
       inkscape:connector-curvature="0"
       style="fill:#000000;fill-rule:evenodd;stroke:none" />
    <path
       id="path5094"
       d="m 287.67169,473.30571 6.70865,-7.05511 6.70866,7.05511 -6.70866,7.05511 z"
       inkscape:connector-curvature="0"
       style="fill:#999999;fill-rule:nonzero;stroke:none" />
    <path
       id="path5096"
       d="m 279.43809,486.67448 6.70866,-7.05511 6.70865,7.05511 -6.70865,7.05511 z"
       inkscape:connector-curvature="0"
       style="fill:#999999;fill-rule:nonzero" />
    <path
       id="path5098"
       d="m 275.56407,520.27422 6.70866,-7.05511 6.70867,7.05511 -6.70867,7.05511 z"
       inkscape:connector-curvature="0"
       style="fill:#999999;fill-rule:nonzero" />
    <path
       id="path5100"
       d="m 314.60868,473.30571 6.70866,-7.05511 6.70867,7.05511 -6.70867,7.05511 z"
       inkscape:connector-curvature="0"
       style="fill:#999999;fill-rule:nonzero;stroke:none" />
    <path
       id="path5102"
       d="m 325.82129,452.68368 6.70866,-7.05511 6.70867,7.05511 -6.70867,7.05511 z"
       inkscape:connector-curvature="0"
       style="fill:#999999;fill-rule:nonzero;stroke:none" />
    <path
       id="path5104"
       d="m 351.35146,455.51833 6.70866,-7.05515 6.70867,7.05515 -6.70867,7.05511 z"
       inkscape:connector-curvature="0"
       style="fill:#999999;fill-rule:nonzero;stroke:none" />
    <path
       id="path5106"
       d="m 368.72943,455.51833 6.70866,-7.05515 6.70867,7.05515 -6.70867,7.05511 z"
       inkscape:connector-curvature="0"
       style="fill:#999999;fill-rule:nonzero;stroke:none" />
    <path
       id="path5108"
       d="m 254.73992,534.90418 6.70867,-7.05511 6.70866,7.05511 -6.70866,7.05511 z"
       inkscape:connector-curvature="0"
       style="fill:#999999;fill-rule:nonzero" />
    <path
       id="path5110"
       d="m 287.67169,541.37398 6.70865,-7.05511 6.70866,7.05511 -6.70866,7.05511 z"
       inkscape:connector-curvature="0"
       style="fill:#999999;fill-rule:nonzero;stroke:none" />
    <path
       id="path5112"
       d="m 258.29373,559.04064 6.70866,-7.05511 6.70867,7.05511 -6.70867,7.05511 z"
       inkscape:connector-curvature="0"
       style="fill:#999999;fill-rule:nonzero" />
    <path
       id="path5114"
       d="m 260.73468,484.40544 6.70866,-7.05511 6.70867,7.05511 -6.70867,7.05511 z"
       inkscape:connector-curvature="0"
       style="fill:#999999;fill-rule:nonzero" />
    <path
       id="path5116"
       d="m 298.02339,455.51833 6.70866,-7.05515 6.70867,7.05515 -6.70867,7.05511 z"
       inkscape:connector-curvature="0"
       style="fill:#999999;fill-rule:nonzero;stroke:none" />
    <path
       id="path5118"
       d="m 339.23861,438.57344 6.70866,-7.05511 6.70867,7.05511 -6.70867,7.05511 z"
       inkscape:connector-curvature="0"
       style="fill:#999999;fill-rule:nonzero" />
    <path
       id="path5120"
       d="m 364.76879,438.57344 6.70866,-7.05511 6.70867,7.05511 -6.70867,7.05511 z"
       inkscape:connector-curvature="0"
       style="fill:#999999;fill-rule:nonzero" />
    <path
       id="path5122"
       d="M 302.66381,618.28808 432.93151,425.3117"
       inkscape:connector-curvature="0"
       style="fill:#000000;fill-opacity:0;fill-rule:nonzero" />
    <path
       id="path5124"
       d="M 302.66381,618.28808 432.93151,425.3117"
       inkscape:connector-curvature="0"
       style="fill:none;stroke:#000000;stroke-width:2;stroke-linecap:butt;stroke-linejoin:round;stroke-opacity:1;stroke-dasharray:8, 6" />
    <path
       id="path5126"
       d="m 460.07589,606.19023 0,0 c 0,-4.18347 3.39136,-7.57483 7.5748,-7.57483 l 0,0 c 2.00894,0 3.93564,0.7981 5.3562,2.21863 1.42053,1.42053 2.2186,3.34723 2.2186,5.3562 l 0,0 c 0,4.18347 -3.39136,7.57483 -7.5748,7.57483 l 0,0 c -4.18344,0 -7.5748,-3.39136 -7.5748,-7.57483 z"
       inkscape:connector-curvature="0"
       style="fill:#000000;fill-opacity:0;fill-rule:nonzero;stroke:none" />
    <path
       id="path5128"
       d="m 460.07589,606.19023 0,0 c 0,-4.18347 3.39136,-7.57483 7.5748,-7.57483 l 0,0 c 2.00894,0 3.93564,0.7981 5.3562,2.21863 1.42053,1.42053 2.2186,3.34723 2.2186,5.3562 l 0,0 c 0,4.18347 -3.39136,7.57483 -7.5748,7.57483 l 0,0 c -4.18344,0 -7.5748,-3.39136 -7.5748,-7.57483 z"
       inkscape:connector-curvature="0"
       style="fill-rule:nonzero;stroke:none" />
    <path
       id="path5130"
       d="m 407.49056,541.58391 0,0 c 0,-4.18341 3.39136,-7.57477 7.57483,-7.57477 l 0,0 c 2.00894,0 3.93564,0.79804 5.35617,2.21857 1.42056,1.42059 2.21863,3.34729 2.21863,5.3562 l 0,0 c 0,4.18347 -3.39136,7.57483 -7.5748,7.57483 l 0,0 c -4.18347,0 -7.57483,-3.39136 -7.57483,-7.57483 z"
       inkscape:connector-curvature="0"
       style="fill:#000000;fill-opacity:0;fill-rule:nonzero;stroke:none" />
    <path
       id="path5132"
       d="m 407.49056,541.58391 0,0 c 0,-4.18341 3.39136,-7.57477 7.57483,-7.57477 l 0,0 c 2.00894,0 3.93564,0.79804 5.35617,2.21857 1.42056,1.42059 2.21863,3.34729 2.21863,5.3562 l 0,0 c 0,4.18347 -3.39136,7.57483 -7.5748,7.57483 l 0,0 c -4.18347,0 -7.57483,-3.39136 -7.57483,-7.57483 z"
       inkscape:connector-curvature="0"
       style="fill-rule:nonzero;stroke:none" />
    <path
       id="path5134"
       d="m 452.92889,487.19286 0,0 c 0,-4.18344 3.39136,-7.5748 7.5748,-7.5748 l 0,0 c 2.00897,0 3.93567,0.79807 5.3562,2.2186 1.42056,1.42056 2.21863,3.34723 2.21863,5.3562 l 0,0 c 0,4.18344 -3.39136,7.5748 -7.57483,7.5748 l 0,0 c -4.18344,0 -7.5748,-3.39136 -7.5748,-7.5748 z"
       inkscape:connector-curvature="0"
       style="fill:#000000;fill-opacity:0;fill-rule:nonzero;stroke:none" />
    <path
       id="path5136"
       d="m 452.92889,487.19286 0,0 c 0,-4.18344 3.39136,-7.5748 7.5748,-7.5748 l 0,0 c 2.00897,0 3.93567,0.79807 5.3562,2.2186 1.42056,1.42056 2.21863,3.34723 2.21863,5.3562 l 0,0 c 0,4.18344 -3.39136,7.5748 -7.57483,7.5748 l 0,0 c -4.18344,0 -7.5748,-3.39136 -7.5748,-7.5748 z"
       inkscape:connector-curvature="0"
       style="fill-rule:nonzero;stroke:none" />
    <path
       id="path5138"
       d="m 437.77929,584.16138 0,0 c 0,-4.18347 3.39136,-7.57483 7.5748,-7.57483 l 0,0 c 2.00897,0 3.93564,0.7981 5.3562,2.21863 1.42056,1.42053 2.2186,3.34723 2.2186,5.3562 l 0,0 c 0,4.18347 -3.39136,7.57483 -7.5748,7.57483 l 0,0 c -4.18344,0 -7.5748,-3.39136 -7.5748,-7.57483 z"
       inkscape:connector-curvature="0"
       style="fill:#000000;fill-opacity:0;fill-rule:nonzero;stroke:none" />
    <path
       id="path5140"
       d="m 437.77929,584.16138 0,0 c 0,-4.18347 3.39136,-7.57483 7.5748,-7.57483 l 0,0 c 2.00897,0 3.93564,0.7981 5.3562,2.21863 1.42056,1.42053 2.2186,3.34723 2.2186,5.3562 l 0,0 c 0,4.18347 -3.39136,7.57483 -7.5748,7.57483 l 0,0 c -4.18344,0 -7.5748,-3.39136 -7.5748,-7.57483 z"
       inkscape:connector-curvature="0"
       style="fill-rule:nonzero;stroke:none" />
    <path
       id="path5142"
       d="m 381.87902,584.16138 0,0 c 0,-4.18347 3.39136,-7.57483 7.5748,-7.57483 l 0,0 c 2.00897,0 3.93567,0.7981 5.3562,2.21863 1.42056,1.42053 2.21863,3.34723 2.21863,5.3562 l 0,0 c 0,4.18347 -3.39136,7.57483 -7.57483,7.57483 l 0,0 c -4.18344,0 -7.5748,-3.39136 -7.5748,-7.57483 z"
       inkscape:connector-curvature="0"
       style="fill:#000000;fill-opacity:0;fill-rule:nonzero;stroke:none" />
    <path
       id="path5144"
       d="m 381.87902,584.16138 0,0 c 0,-4.18347 3.39136,-7.57483 7.5748,-7.57483 l 0,0 c 2.00897,0 3.93567,0.7981 5.3562,2.21863 1.42056,1.42053 2.21863,3.34723 2.21863,5.3562 l 0,0 c 0,4.18347 -3.39136,7.57483 -7.57483,7.57483 l 0,0 c -4.18344,0 -7.5748,-3.39136 -7.5748,-7.57483 z"
       inkscape:connector-curvature="0"
       style="fill-rule:nonzero;stroke:none" />
    <path
       id="path5146"
       d="m 450.10214,541.58391 0,0 c 0,-4.18341 3.39136,-7.57477 7.5748,-7.57477 l 0,0 c 2.00897,0 3.93564,0.79804 5.3562,2.21857 1.42053,1.42059 2.2186,3.34729 2.2186,5.3562 l 0,0 c 0,4.18347 -3.39136,7.57483 -7.5748,7.57483 l 0,0 c -4.18344,0 -7.5748,-3.39136 -7.5748,-7.57483 z"
       inkscape:connector-curvature="0"
       style="fill:#000000;fill-opacity:0;fill-rule:nonzero;stroke:none" />
    <path
       id="path5148"
       d="m 450.10214,541.58391 0,0 c 0,-4.18341 3.39136,-7.57477 7.5748,-7.57477 l 0,0 c 2.00897,0 3.93564,0.79804 5.3562,2.21857 1.42053,1.42059 2.2186,3.34729 2.2186,5.3562 l 0,0 c 0,4.18347 -3.39136,7.57483 -7.5748,7.57483 l 0,0 c -4.18344,0 -7.5748,-3.39136 -7.5748,-7.57483 z"
       inkscape:connector-curvature="0"
       style="fill-rule:nonzero;stroke:none" />
    <path
       id="path5150"
       d="m 428.79636,532.56028 0,0 c 0,-4.18341 3.39136,-7.57477 7.5748,-7.57477 l 0,0 c 2.00897,0 3.93564,0.79804 5.3562,2.21857 1.42056,1.42059 2.2186,3.34723 2.2186,5.3562 l 0,0 c 0,4.18347 -3.39136,7.57483 -7.5748,7.57483 l 0,0 c -4.18344,0 -7.5748,-3.39136 -7.5748,-7.57483 z"
       inkscape:connector-curvature="0"
       style="fill:#000000;fill-opacity:0;fill-rule:nonzero;stroke:none" />
    <path
       id="path5152"
       d="m 428.79636,532.56028 0,0 c 0,-4.18341 3.39136,-7.57477 7.5748,-7.57477 l 0,0 c 2.00897,0 3.93564,0.79804 5.3562,2.21857 1.42056,1.42059 2.2186,3.34723 2.2186,5.3562 l 0,0 c 0,4.18347 -3.39136,7.57483 -7.5748,7.57483 l 0,0 c -4.18344,0 -7.5748,-3.39136 -7.5748,-7.57483 z"
       inkscape:connector-curvature="0"
       style="fill-rule:nonzero;stroke:none" />
    <path
       id="path5154"
       d="m 424.97876,563.58918 0,0 c 0,-4.18341 3.39136,-7.57477 7.57483,-7.57477 l 0,0 c 2.00894,0 3.93564,0.79804 5.35617,2.21857 1.42056,1.42059 2.21863,3.34729 2.21863,5.3562 l 0,0 c 0,4.18347 -3.39136,7.57483 -7.5748,7.57483 l 0,0 c -4.18347,0 -7.57483,-3.39136 -7.57483,-7.57483 z"
       inkscape:connector-curvature="0"
       style="fill:#000000;fill-opacity:0;fill-rule:nonzero;stroke:none" />
    <path
       id="path5156"
       d="m 424.97876,563.58918 0,0 c 0,-4.18341 3.39136,-7.57477 7.57483,-7.57477 l 0,0 c 2.00894,0 3.93564,0.79804 5.35617,2.21857 1.42056,1.42059 2.21863,3.34729 2.21863,5.3562 l 0,0 c 0,4.18347 -3.39136,7.57483 -7.5748,7.57483 l 0,0 c -4.18347,0 -7.57483,-3.39136 -7.57483,-7.57483 z"
       inkscape:connector-curvature="0"
       style="fill-rule:nonzero;stroke:none" />
    <path
       id="path5158"
       d="m 450.10214,522.56428 0,0 c 0,-4.18347 3.39136,-7.57483 7.5748,-7.57483 l 0,0 c 2.00897,0 3.93564,0.7981 5.3562,2.21863 1.42053,1.42053 2.2186,3.34723 2.2186,5.3562 l 0,0 c 0,4.18341 -3.39136,7.57477 -7.5748,7.57477 l 0,0 c -4.18344,0 -7.5748,-3.39136 -7.5748,-7.57477 z"
       inkscape:connector-curvature="0"
       style="fill:#000000;fill-opacity:0;fill-rule:nonzero;stroke:none" />
    <path
       id="path5160"
       d="m 450.10214,522.56428 0,0 c 0,-4.18347 3.39136,-7.57483 7.5748,-7.57483 l 0,0 c 2.00897,0 3.93564,0.7981 5.3562,2.21863 1.42053,1.42053 2.2186,3.34723 2.2186,5.3562 l 0,0 c 0,4.18341 -3.39136,7.57477 -7.5748,7.57477 l 0,0 c -4.18344,0 -7.5748,-3.39136 -7.5748,-7.57477 z"
       inkscape:connector-curvature="0"
       style="fill-rule:nonzero;stroke:none" />
    <path
       id="path5162"
       d="m 434.95251,604.73488 0,0 c 0,-4.18347 3.39136,-7.57483 7.57483,-7.57483 l 0,0 c 2.00894,0 3.93564,0.7981 5.35617,2.21863 1.42056,1.42053 2.21863,3.34723 2.21863,5.3562 l 0,0 c 0,4.18347 -3.39136,7.57483 -7.5748,7.57483 l 0,0 c -4.18347,0 -7.57483,-3.39136 -7.57483,-7.57483 z"
       inkscape:connector-curvature="0"
       style="fill:#000000;fill-opacity:0;fill-rule:nonzero;stroke:none" />
    <path
       id="path5164"
       d="m 434.95251,604.73488 0,0 c 0,-4.18347 3.39136,-7.57483 7.57483,-7.57483 l 0,0 c 2.00894,0 3.93564,0.7981 5.35617,2.21863 1.42056,1.42053 2.21863,3.34723 2.21863,5.3562 l 0,0 c 0,4.18347 -3.39136,7.57483 -7.5748,7.57483 l 0,0 c -4.18347,0 -7.57483,-3.39136 -7.57483,-7.57483 z"
       inkscape:connector-curvature="0"
       style="fill-rule:nonzero;stroke:none" />
    <path
       id="path5166"
       d="m 422.64019,494.08001 0,0 c 0,-4.18347 3.39136,-7.5748 7.5748,-7.5748 l 0,0 c 2.00897,0 3.93564,0.79804 5.3562,2.2186 1.42053,1.42056 2.2186,3.34723 2.2186,5.3562 l 0,0 c 0,4.18344 -3.39136,7.5748 -7.5748,7.5748 l 0,0 c -4.18344,0 -7.5748,-3.39136 -7.5748,-7.5748 z"
       inkscape:connector-curvature="0"
       style="fill:#000000;fill-opacity:0;fill-rule:nonzero;stroke:none" />
    <path
       id="path5168"
       d="m 422.64019,494.08001 0,0 c 0,-4.18347 3.39136,-7.5748 7.5748,-7.5748 l 0,0 c 2.00897,0 3.93564,0.79804 5.3562,2.2186 1.42053,1.42056 2.2186,3.34723 2.2186,5.3562 l 0,0 c 0,4.18344 -3.39136,7.5748 -7.5748,7.5748 l 0,0 c -4.18344,0 -7.5748,-3.39136 -7.5748,-7.5748 z"
       inkscape:connector-curvature="0"
       style="fill-rule:nonzero;stroke:none" />
    <path
       id="path5170"
       d="m 409.82916,589.08788 0,0 c 0,-4.18347 3.39136,-7.57483 7.5748,-7.57483 l 0,0 c 2.00897,0 3.93564,0.7981 5.3562,2.21863 1.42056,1.42053 2.2186,3.34723 2.2186,5.3562 l 0,0 c 0,4.18341 -3.39133,7.57477 -7.5748,7.57477 l 0,0 c -4.18344,0 -7.5748,-3.39136 -7.5748,-7.57477 z"
       inkscape:connector-curvature="0"
       style="fill:#000000;fill-opacity:0;fill-rule:nonzero;stroke:none" />
    <path
       id="path5172"
       d="m 409.82916,589.08788 0,0 c 0,-4.18347 3.39136,-7.57483 7.5748,-7.57483 l 0,0 c 2.00897,0 3.93564,0.7981 5.3562,2.21863 1.42056,1.42053 2.2186,3.34723 2.2186,5.3562 l 0,0 c 0,4.18341 -3.39133,7.57477 -7.5748,7.57477 l 0,0 c -4.18344,0 -7.5748,-3.39136 -7.5748,-7.57477 z"
       inkscape:connector-curvature="0"
       style="fill-rule:nonzero;stroke:none" />
    <path
       id="path5178"
       d="M 373.194,619.26768 396.69006,423.36216"
       inkscape:connector-curvature="0"
       style="fill:#000000;fill-opacity:0;fill-rule:nonzero" />
    <path
       id="path5180"
       d="M 373.194,619.26768 396.69006,423.36216"
       inkscape:connector-curvature="0"
       style="fill-rule:nonzero;stroke:#000000;stroke-width:2;stroke-linecap:butt;stroke-linejoin:round;stroke-dasharray:2, 6" />
    <path
       id="path5182"
       d="m 350.06144,570.12588 6.70866,-14.11023 6.70867,14.11023 z"
       inkscape:connector-curvature="0"
       style="fill:#999999;fill-rule:nonzero;stroke:none" />
    <path
       id="path5184"
       d="m 349.25402,570.12588 6.70866,-14.11023 6.70867,14.11023 z"
       inkscape:connector-curvature="0"
       style="fill-rule:nonzero;stroke:none" />
    <g
       id="g9753"
       ns0:preamble=""
       ns0:text="cluster 1"
       transform="matrix(1.5,0,0,1.5,-100.54607,261.77308)">
      <defs
         id="defs9755">
        <g
           id="g9757">
          <symbol
             style="overflow:visible"
             id="textext-f0fe2d5c-0"
             overflow="visible">
            <path
               inkscape:connector-curvature="0"
               id="path9760"
               d=""
               style="stroke:none" />
          </symbol>
          <symbol
             style="overflow:visible"
             id="textext-f0fe2d5c-1"
             overflow="visible">
            <path
               inkscape:connector-curvature="0"
               id="path9763"
               d="m 1.171875,-2.171875 c 0,-1.625 0.8125,-2.046875 1.34375,-2.046875 0.09375,0 0.71875,0.015625 1.0625,0.375 -0.40625,0.03125 -0.46875,0.328125 -0.46875,0.453125 0,0.265625 0.1875,0.453125 0.453125,0.453125 0.265625,0 0.46875,-0.15625 0.46875,-0.46875 0,-0.671875 -0.765625,-1.0625 -1.53125,-1.0625 -1.25,0 -2.15625,1.078125 -2.15625,2.3125 0,1.28125 0.984375,2.265625 2.140625,2.265625 1.328125,0 1.65625,-1.203125 1.65625,-1.296875 0,-0.09375 -0.109375,-0.09375 -0.140625,-0.09375 -0.078125,0 -0.109375,0.03125 -0.125,0.09375 -0.28125,0.921875 -0.9375,1.046875 -1.296875,1.046875 -0.53125,0 -1.40625,-0.421875 -1.40625,-2.03125 z m 0,0"
               style="stroke:none" />
          </symbol>
          <symbol
             style="overflow:visible"
             id="textext-f0fe2d5c-2"
             overflow="visible">
            <path
               inkscape:connector-curvature="0"
               id="path9766"
               d="m 1.765625,-6.921875 -1.4375,0.109375 0,0.3125 c 0.703125,0 0.78125,0.0625 0.78125,0.5625 l 0,5.1875 c 0,0.4375 -0.109375,0.4375 -0.78125,0.4375 l 0,0.3125 C 0.65625,-0.015625 1.1875,-0.03125 1.4375,-0.03125 c 0.25,0 0.734375,0.015625 1.109375,0.03125 l 0,-0.3125 c -0.671875,0 -0.78125,0 -0.78125,-0.4375 z m 0,0"
               style="stroke:none" />
          </symbol>
          <symbol
             style="overflow:visible"
             id="textext-f0fe2d5c-3"
             overflow="visible">
            <path
               inkscape:connector-curvature="0"
               id="path9769"
               d="m 3.890625,-0.78125 0,0.890625 L 5.328125,0 l 0,-0.3125 C 4.640625,-0.3125 4.5625,-0.375 4.5625,-0.875 l 0,-3.53125 -1.46875,0.109375 0,0.3125 c 0.6875,0 0.78125,0.0625 0.78125,0.5625 l 0,1.765625 c 0,0.875 -0.484375,1.546875 -1.21875,1.546875 -0.828125,0 -0.875,-0.46875 -0.875,-0.984375 l 0,-3.3125 -1.46875,0.109375 0,0.3125 c 0.78125,0 0.78125,0.03125 0.78125,0.90625 l 0,1.5 c 0,0.78125 0,1.6875 1.515625,1.6875 0.5625,0 1,-0.28125 1.28125,-0.890625 z m 0,0"
               style="stroke:none" />
          </symbol>
          <symbol
             style="overflow:visible"
             id="textext-f0fe2d5c-4"
             overflow="visible">
            <path
               inkscape:connector-curvature="0"
               id="path9772"
               d="m 2.078125,-1.9375 c 0.21875,0.046875 1.03125,0.203125 1.03125,0.921875 0,0.5 -0.34375,0.90625 -1.125,0.90625 -0.84375,0 -1.203125,-0.5625 -1.390625,-1.421875 C 0.5625,-1.65625 0.5625,-1.6875 0.453125,-1.6875 c -0.125,0 -0.125,0.0625 -0.125,0.234375 l 0,1.328125 c 0,0.171875 0,0.234375 0.109375,0.234375 0.046875,0 0.0625,-0.015625 0.25,-0.203125 0.015625,-0.015625 0.015625,-0.03125 0.203125,-0.21875 0.4375,0.40625 0.890625,0.421875 1.09375,0.421875 1.140625,0 1.609375,-0.671875 1.609375,-1.390625 0,-0.515625 -0.296875,-0.828125 -0.421875,-0.9375 C 2.84375,-2.546875 2.453125,-2.625 2.03125,-2.703125 1.46875,-2.8125 0.8125,-2.9375 0.8125,-3.515625 c 0,-0.359375 0.25,-0.765625 1.109375,-0.765625 1.09375,0 1.15625,0.90625 1.171875,1.203125 0,0.09375 0.09375,0.09375 0.109375,0.09375 0.140625,0 0.140625,-0.046875 0.140625,-0.234375 l 0,-1.015625 c 0,-0.15625 0,-0.234375 -0.109375,-0.234375 -0.046875,0 -0.078125,0 -0.203125,0.125 -0.03125,0.03125 -0.125,0.125 -0.171875,0.15625 -0.375,-0.28125 -0.78125,-0.28125 -0.9375,-0.28125 -1.21875,0 -1.59375,0.671875 -1.59375,1.234375 0,0.34375 0.15625,0.625 0.421875,0.84375 0.328125,0.25 0.609375,0.3125 1.328125,0.453125 z m 0,0"
               style="stroke:none" />
          </symbol>
          <symbol
             style="overflow:visible"
             id="textext-f0fe2d5c-5"
             overflow="visible">
            <path
               inkscape:connector-curvature="0"
               id="path9775"
               d="m 1.71875,-3.984375 1.4375,0 0,-0.3125 -1.4375,0 0,-1.828125 -0.25,0 c 0,0.8125 -0.296875,1.875 -1.28125,1.921875 l 0,0.21875 0.84375,0 0,2.75 c 0,1.21875 0.9375,1.34375 1.296875,1.34375 0.703125,0 0.984375,-0.703125 0.984375,-1.34375 l 0,-0.5625 -0.25,0 0,0.546875 c 0,0.734375 -0.296875,1.109375 -0.671875,1.109375 -0.671875,0 -0.671875,-0.90625 -0.671875,-1.078125 z m 0,0"
               style="stroke:none" />
          </symbol>
          <symbol
             style="overflow:visible"
             id="textext-f0fe2d5c-6"
             overflow="visible">
            <path
               inkscape:connector-curvature="0"
               id="path9778"
               d="M 1.109375,-2.515625 C 1.171875,-4 2.015625,-4.25 2.359375,-4.25 c 1.015625,0 1.125,1.34375 1.125,1.734375 z m 0,0.21875 2.78125,0 c 0.21875,0 0.25,0 0.25,-0.21875 0,-0.984375 -0.546875,-1.953125 -1.78125,-1.953125 -1.15625,0 -2.078125,1.03125 -2.078125,2.28125 0,1.328125 1.046875,2.296875 2.1875,2.296875 C 3.6875,0.109375 4.140625,-1 4.140625,-1.1875 4.140625,-1.28125 4.0625,-1.3125 4,-1.3125 c -0.078125,0 -0.109375,0.0625 -0.125,0.140625 -0.34375,1.03125 -1.25,1.03125 -1.34375,1.03125 -0.5,0 -0.890625,-0.296875 -1.125,-0.671875 -0.296875,-0.46875 -0.296875,-1.125 -0.296875,-1.484375 z m 0,0"
               style="stroke:none" />
          </symbol>
          <symbol
             style="overflow:visible"
             id="textext-f0fe2d5c-7"
             overflow="visible">
            <path
               inkscape:connector-curvature="0"
               id="path9781"
               d="m 1.671875,-3.3125 0,-1.09375 -1.390625,0.109375 0,0.3125 c 0.703125,0 0.78125,0.0625 0.78125,0.5625 l 0,2.671875 c 0,0.4375 -0.109375,0.4375 -0.78125,0.4375 l 0,0.3125 c 0.390625,-0.015625 0.859375,-0.03125 1.140625,-0.03125 0.390625,0 0.859375,0 1.265625,0.03125 l 0,-0.3125 -0.21875,0 c -0.734375,0 -0.75,-0.109375 -0.75,-0.46875 l 0,-1.53125 c 0,-0.984375 0.421875,-1.875 1.171875,-1.875 0.0625,0 0.09375,0 0.109375,0.015625 -0.03125,0 -0.234375,0.125 -0.234375,0.390625 0,0.265625 0.21875,0.421875 0.4375,0.421875 0.171875,0 0.421875,-0.125 0.421875,-0.4375 0,-0.3125 -0.3125,-0.609375 -0.734375,-0.609375 -0.734375,0 -1.09375,0.671875 -1.21875,1.09375 z m 0,0"
               style="stroke:none" />
          </symbol>
          <symbol
             style="overflow:visible"
             id="textext-f0fe2d5c-8"
             overflow="visible">
            <path
               inkscape:connector-curvature="0"
               id="path9784"
               d="m 2.9375,-6.375 c 0,-0.25 0,-0.265625 -0.234375,-0.265625 C 2.078125,-6 1.203125,-6 0.890625,-6 l 0,0.3125 c 0.203125,0 0.78125,0 1.296875,-0.265625 l 0,5.171875 c 0,0.359375 -0.03125,0.46875 -0.921875,0.46875 l -0.3125,0 0,0.3125 c 0.34375,-0.03125 1.203125,-0.03125 1.609375,-0.03125 0.390625,0 1.265625,0 1.609375,0.03125 l 0,-0.3125 -0.3125,0 c -0.90625,0 -0.921875,-0.109375 -0.921875,-0.46875 z m 0,0"
               style="stroke:none" />
          </symbol>
        </g>
      </defs>
      <g
         id="textext-f0fe2d5c-9">
        <g
           id="g9787"
           style="fill:#000000;fill-opacity:1">
          <use
             height="234.43994"
             width="408.83246"
             id="use9789"
             y="134.765"
             x="223.43201"
             xlink:href="#textext-f0fe2d5c-1" />
          <use
             height="234.43994"
             width="408.83246"
             id="use9791"
             y="134.765"
             x="227.85938"
             xlink:href="#textext-f0fe2d5c-2" />
          <use
             height="234.43994"
             width="408.83246"
             id="use9793"
             y="134.765"
             x="230.62698"
             xlink:href="#textext-f0fe2d5c-3" />
          <use
             height="234.43994"
             width="408.83246"
             id="use9795"
             y="134.765"
             x="236.16222"
             xlink:href="#textext-f0fe2d5c-4" />
          <use
             height="234.43994"
             width="408.83246"
             id="use9797"
             y="134.765"
             x="240.09146"
             xlink:href="#textext-f0fe2d5c-5" />
          <use
             height="234.43994"
             width="408.83246"
             id="use9799"
             y="134.765"
             x="243.96591"
             xlink:href="#textext-f0fe2d5c-6" />
          <use
             height="234.43994"
             width="408.83246"
             id="use9801"
             y="134.765"
             x="248.3933"
             xlink:href="#textext-f0fe2d5c-7" />
        </g>
        <g
           id="g9803"
           style="fill:#000000;fill-opacity:1">
          <use
             height="234.43994"
             width="408.83246"
             id="use9805"
             y="134.765"
             x="255.61319"
             xlink:href="#textext-f0fe2d5c-8" />
        </g>
      </g>
    </g>
    <g
       transform="matrix(1.5,0,0,1.5,120.95217,368.34854)"
       ns0:text="cluster 2"
       ns0:preamble=""
       id="g9993">
      <defs
         id="defs9995">
        <g
           id="g9997">
          <symbol
             style="overflow:visible"
             overflow="visible"
             id="textext-30cfa9e7-0">
            <path
               inkscape:connector-curvature="0"
               style="stroke:none"
               d=""
               id="path10000" />
          </symbol>
          <symbol
             style="overflow:visible"
             overflow="visible"
             id="textext-30cfa9e7-1">
            <path
               inkscape:connector-curvature="0"
               style="stroke:none"
               d="m 1.171875,-2.171875 c 0,-1.625 0.8125,-2.046875 1.34375,-2.046875 0.09375,0 0.71875,0.015625 1.0625,0.375 -0.40625,0.03125 -0.46875,0.328125 -0.46875,0.453125 0,0.265625 0.1875,0.453125 0.453125,0.453125 0.265625,0 0.46875,-0.15625 0.46875,-0.46875 0,-0.671875 -0.765625,-1.0625 -1.53125,-1.0625 -1.25,0 -2.15625,1.078125 -2.15625,2.3125 0,1.28125 0.984375,2.265625 2.140625,2.265625 1.328125,0 1.65625,-1.203125 1.65625,-1.296875 0,-0.09375 -0.109375,-0.09375 -0.140625,-0.09375 -0.078125,0 -0.109375,0.03125 -0.125,0.09375 -0.28125,0.921875 -0.9375,1.046875 -1.296875,1.046875 -0.53125,0 -1.40625,-0.421875 -1.40625,-2.03125 z m 0,0"
               id="path10003" />
          </symbol>
          <symbol
             style="overflow:visible"
             overflow="visible"
             id="textext-30cfa9e7-2">
            <path
               inkscape:connector-curvature="0"
               style="stroke:none"
               d="m 1.765625,-6.921875 -1.4375,0.109375 0,0.3125 c 0.703125,0 0.78125,0.0625 0.78125,0.5625 l 0,5.1875 c 0,0.4375 -0.109375,0.4375 -0.78125,0.4375 l 0,0.3125 C 0.65625,-0.015625 1.1875,-0.03125 1.4375,-0.03125 c 0.25,0 0.734375,0.015625 1.109375,0.03125 l 0,-0.3125 c -0.671875,0 -0.78125,0 -0.78125,-0.4375 z m 0,0"
               id="path10006" />
          </symbol>
          <symbol
             style="overflow:visible"
             overflow="visible"
             id="textext-30cfa9e7-3">
            <path
               inkscape:connector-curvature="0"
               style="stroke:none"
               d="m 3.890625,-0.78125 0,0.890625 L 5.328125,0 l 0,-0.3125 C 4.640625,-0.3125 4.5625,-0.375 4.5625,-0.875 l 0,-3.53125 -1.46875,0.109375 0,0.3125 c 0.6875,0 0.78125,0.0625 0.78125,0.5625 l 0,1.765625 c 0,0.875 -0.484375,1.546875 -1.21875,1.546875 -0.828125,0 -0.875,-0.46875 -0.875,-0.984375 l 0,-3.3125 -1.46875,0.109375 0,0.3125 c 0.78125,0 0.78125,0.03125 0.78125,0.90625 l 0,1.5 c 0,0.78125 0,1.6875 1.515625,1.6875 0.5625,0 1,-0.28125 1.28125,-0.890625 z m 0,0"
               id="path10009" />
          </symbol>
          <symbol
             style="overflow:visible"
             overflow="visible"
             id="textext-30cfa9e7-4">
            <path
               inkscape:connector-curvature="0"
               style="stroke:none"
               d="m 2.078125,-1.9375 c 0.21875,0.046875 1.03125,0.203125 1.03125,0.921875 0,0.5 -0.34375,0.90625 -1.125,0.90625 -0.84375,0 -1.203125,-0.5625 -1.390625,-1.421875 C 0.5625,-1.65625 0.5625,-1.6875 0.453125,-1.6875 c -0.125,0 -0.125,0.0625 -0.125,0.234375 l 0,1.328125 c 0,0.171875 0,0.234375 0.109375,0.234375 0.046875,0 0.0625,-0.015625 0.25,-0.203125 0.015625,-0.015625 0.015625,-0.03125 0.203125,-0.21875 0.4375,0.40625 0.890625,0.421875 1.09375,0.421875 1.140625,0 1.609375,-0.671875 1.609375,-1.390625 0,-0.515625 -0.296875,-0.828125 -0.421875,-0.9375 C 2.84375,-2.546875 2.453125,-2.625 2.03125,-2.703125 1.46875,-2.8125 0.8125,-2.9375 0.8125,-3.515625 c 0,-0.359375 0.25,-0.765625 1.109375,-0.765625 1.09375,0 1.15625,0.90625 1.171875,1.203125 0,0.09375 0.09375,0.09375 0.109375,0.09375 0.140625,0 0.140625,-0.046875 0.140625,-0.234375 l 0,-1.015625 c 0,-0.15625 0,-0.234375 -0.109375,-0.234375 -0.046875,0 -0.078125,0 -0.203125,0.125 -0.03125,0.03125 -0.125,0.125 -0.171875,0.15625 -0.375,-0.28125 -0.78125,-0.28125 -0.9375,-0.28125 -1.21875,0 -1.59375,0.671875 -1.59375,1.234375 0,0.34375 0.15625,0.625 0.421875,0.84375 0.328125,0.25 0.609375,0.3125 1.328125,0.453125 z m 0,0"
               id="path10012" />
          </symbol>
          <symbol
             style="overflow:visible"
             overflow="visible"
             id="textext-30cfa9e7-5">
            <path
               inkscape:connector-curvature="0"
               style="stroke:none"
               d="m 1.71875,-3.984375 1.4375,0 0,-0.3125 -1.4375,0 0,-1.828125 -0.25,0 c 0,0.8125 -0.296875,1.875 -1.28125,1.921875 l 0,0.21875 0.84375,0 0,2.75 c 0,1.21875 0.9375,1.34375 1.296875,1.34375 0.703125,0 0.984375,-0.703125 0.984375,-1.34375 l 0,-0.5625 -0.25,0 0,0.546875 c 0,0.734375 -0.296875,1.109375 -0.671875,1.109375 -0.671875,0 -0.671875,-0.90625 -0.671875,-1.078125 z m 0,0"
               id="path10015" />
          </symbol>
          <symbol
             style="overflow:visible"
             overflow="visible"
             id="textext-30cfa9e7-6">
            <path
               inkscape:connector-curvature="0"
               style="stroke:none"
               d="M 1.109375,-2.515625 C 1.171875,-4 2.015625,-4.25 2.359375,-4.25 c 1.015625,0 1.125,1.34375 1.125,1.734375 z m 0,0.21875 2.78125,0 c 0.21875,0 0.25,0 0.25,-0.21875 0,-0.984375 -0.546875,-1.953125 -1.78125,-1.953125 -1.15625,0 -2.078125,1.03125 -2.078125,2.28125 0,1.328125 1.046875,2.296875 2.1875,2.296875 C 3.6875,0.109375 4.140625,-1 4.140625,-1.1875 4.140625,-1.28125 4.0625,-1.3125 4,-1.3125 c -0.078125,0 -0.109375,0.0625 -0.125,0.140625 -0.34375,1.03125 -1.25,1.03125 -1.34375,1.03125 -0.5,0 -0.890625,-0.296875 -1.125,-0.671875 -0.296875,-0.46875 -0.296875,-1.125 -0.296875,-1.484375 z m 0,0"
               id="path10018" />
          </symbol>
          <symbol
             style="overflow:visible"
             overflow="visible"
             id="textext-30cfa9e7-7">
            <path
               inkscape:connector-curvature="0"
               style="stroke:none"
               d="m 1.671875,-3.3125 0,-1.09375 -1.390625,0.109375 0,0.3125 c 0.703125,0 0.78125,0.0625 0.78125,0.5625 l 0,2.671875 c 0,0.4375 -0.109375,0.4375 -0.78125,0.4375 l 0,0.3125 c 0.390625,-0.015625 0.859375,-0.03125 1.140625,-0.03125 0.390625,0 0.859375,0 1.265625,0.03125 l 0,-0.3125 -0.21875,0 c -0.734375,0 -0.75,-0.109375 -0.75,-0.46875 l 0,-1.53125 c 0,-0.984375 0.421875,-1.875 1.171875,-1.875 0.0625,0 0.09375,0 0.109375,0.015625 -0.03125,0 -0.234375,0.125 -0.234375,0.390625 0,0.265625 0.21875,0.421875 0.4375,0.421875 0.171875,0 0.421875,-0.125 0.421875,-0.4375 0,-0.3125 -0.3125,-0.609375 -0.734375,-0.609375 -0.734375,0 -1.09375,0.671875 -1.21875,1.09375 z m 0,0"
               id="path10021" />
          </symbol>
          <symbol
             style="overflow:visible"
             overflow="visible"
             id="textext-30cfa9e7-8">
            <path
               inkscape:connector-curvature="0"
               style="stroke:none"
               d="m 1.265625,-0.765625 1.0625,-1.03125 c 1.546875,-1.375 2.140625,-1.90625 2.140625,-2.90625 0,-1.140625 -0.890625,-1.9375 -2.109375,-1.9375 -1.125,0 -1.859375,0.921875 -1.859375,1.8125 0,0.546875 0.5,0.546875 0.53125,0.546875 0.171875,0 0.515625,-0.109375 0.515625,-0.53125 0,-0.25 -0.1875,-0.515625 -0.53125,-0.515625 -0.078125,0 -0.09375,0 -0.125,0.015625 0.21875,-0.65625 0.765625,-1.015625 1.34375,-1.015625 0.90625,0 1.328125,0.8125 1.328125,1.625 C 3.5625,-3.90625 3.078125,-3.125 2.515625,-2.5 l -1.90625,2.125 C 0.5,-0.265625 0.5,-0.234375 0.5,0 l 3.703125,0 0.265625,-1.734375 -0.234375,0 C 4.171875,-1.4375 4.109375,-1 4,-0.84375 3.9375,-0.765625 3.28125,-0.765625 3.0625,-0.765625 z m 0,0"
               id="path10024" />
          </symbol>
        </g>
      </defs>
      <g
         id="textext-30cfa9e7-9">
        <g
           style="fill:#000000;fill-opacity:1"
           id="g10027">
          <use
             height="234.43994"
             width="408.83246"
             xlink:href="#textext-30cfa9e7-1"
             x="223.43201"
             y="134.765"
             id="use10029" />
          <use
             height="234.43994"
             width="408.83246"
             xlink:href="#textext-30cfa9e7-2"
             x="227.85938"
             y="134.765"
             id="use10031" />
          <use
             height="234.43994"
             width="408.83246"
             xlink:href="#textext-30cfa9e7-3"
             x="230.62698"
             y="134.765"
             id="use10033" />
          <use
             height="234.43994"
             width="408.83246"
             xlink:href="#textext-30cfa9e7-4"
             x="236.16222"
             y="134.765"
             id="use10035" />
          <use
             height="234.43994"
             width="408.83246"
             xlink:href="#textext-30cfa9e7-5"
             x="240.09146"
             y="134.765"
             id="use10037" />
          <use
             height="234.43994"
             width="408.83246"
             xlink:href="#textext-30cfa9e7-6"
             x="243.96591"
             y="134.765"
             id="use10039" />
          <use
             height="234.43994"
             width="408.83246"
             xlink:href="#textext-30cfa9e7-7"
             x="248.3933"
             y="134.765"
             id="use10041" />
        </g>
        <g
           style="fill:#000000;fill-opacity:1"
           id="g10043">
          <use
             height="234.43994"
             width="408.83246"
             xlink:href="#textext-30cfa9e7-8"
             x="255.61319"
             y="134.765"
             id="use10045" />
        </g>
      </g>
    </g>
    <g
       id="g11052"
       transform="matrix(1.5,0,0,1.5,-177.8271,243.6306)"
       ns0:preamble=""
       ns0:text="feature B">
      <defs
         id="defs11054">
        <g
           id="g11056">
          <symbol
             id="textext-e645fd6d-0"
             overflow="visible"
             style="overflow:visible">
            <path
               id="path11059"
               d=""
               style="stroke:none"
               inkscape:connector-curvature="0" />
          </symbol>
          <symbol
             id="textext-e645fd6d-1"
             overflow="visible"
             style="overflow:visible">
            <path
               id="path11062"
               d="m 1.75,-4.296875 0,-1.15625 c 0,-0.875 0.46875,-1.359375 0.90625,-1.359375 0.03125,0 0.1875,0 0.328125,0.078125 C 2.875,-6.703125 2.6875,-6.5625 2.6875,-6.3125 c 0,0.21875 0.15625,0.421875 0.4375,0.421875 0.28125,0 0.4375,-0.203125 0.4375,-0.4375 0,-0.375 -0.375,-0.703125 -0.90625,-0.703125 -0.6875,0 -1.546875,0.53125 -1.546875,1.59375 l 0,1.140625 -0.78125,0 0,0.3125 0.78125,0 0,3.234375 c 0,0.4375 -0.109375,0.4375 -0.765625,0.4375 l 0,0.3125 c 0.390625,-0.015625 0.859375,-0.03125 1.125,-0.03125 0.40625,0 0.875,0 1.265625,0.03125 l 0,-0.3125 -0.203125,0 c -0.734375,0 -0.75,-0.109375 -0.75,-0.46875 l 0,-3.203125 1.125,0 0,-0.3125 z m 0,0"
               style="stroke:none"
               inkscape:connector-curvature="0" />
          </symbol>
          <symbol
             id="textext-e645fd6d-2"
             overflow="visible"
             style="overflow:visible">
            <path
               id="path11065"
               d="M 1.109375,-2.515625 C 1.171875,-4 2.015625,-4.25 2.359375,-4.25 c 1.015625,0 1.125,1.34375 1.125,1.734375 z m 0,0.21875 2.78125,0 c 0.21875,0 0.25,0 0.25,-0.21875 0,-0.984375 -0.546875,-1.953125 -1.78125,-1.953125 -1.15625,0 -2.078125,1.03125 -2.078125,2.28125 0,1.328125 1.046875,2.296875 2.1875,2.296875 C 3.6875,0.109375 4.140625,-1 4.140625,-1.1875 4.140625,-1.28125 4.0625,-1.3125 4,-1.3125 c -0.078125,0 -0.109375,0.0625 -0.125,0.140625 -0.34375,1.03125 -1.25,1.03125 -1.34375,1.03125 -0.5,0 -0.890625,-0.296875 -1.125,-0.671875 -0.296875,-0.46875 -0.296875,-1.125 -0.296875,-1.484375 z m 0,0"
               style="stroke:none"
               inkscape:connector-curvature="0" />
          </symbol>
          <symbol
             id="textext-e645fd6d-3"
             overflow="visible"
             style="overflow:visible">
            <path
               id="path11068"
               d="m 3.3125,-0.75 c 0.046875,0.390625 0.3125,0.8125 0.78125,0.8125 0.21875,0 0.828125,-0.140625 0.828125,-0.953125 l 0,-0.5625 -0.25,0 0,0.5625 c 0,0.578125 -0.25,0.640625 -0.359375,0.640625 -0.328125,0 -0.375,-0.453125 -0.375,-0.5 l 0,-1.984375 c 0,-0.421875 0,-0.8125 -0.359375,-1.1875 C 3.1875,-4.3125 2.6875,-4.46875 2.21875,-4.46875 c -0.828125,0 -1.515625,0.46875 -1.515625,1.125 0,0.296875 0.203125,0.46875 0.46875,0.46875 0.28125,0 0.453125,-0.203125 0.453125,-0.453125 0,-0.125 -0.046875,-0.453125 -0.515625,-0.453125 C 1.390625,-4.140625 1.875,-4.25 2.1875,-4.25 c 0.5,0 1.0625,0.390625 1.0625,1.28125 l 0,0.359375 c -0.515625,0.03125 -1.203125,0.0625 -1.828125,0.359375 -0.75,0.34375 -1,0.859375 -1,1.296875 0,0.8125 0.96875,1.0625 1.59375,1.0625 0.65625,0 1.109375,-0.40625 1.296875,-0.859375 z M 3.25,-2.390625 l 0,1 c 0,0.9375 -0.71875,1.28125 -1.171875,1.28125 -0.484375,0 -0.890625,-0.34375 -0.890625,-0.84375 0,-0.546875 0.421875,-1.375 2.0625,-1.4375 z m 0,0"
               style="stroke:none"
               inkscape:connector-curvature="0" />
          </symbol>
          <symbol
             id="textext-e645fd6d-4"
             overflow="visible"
             style="overflow:visible">
            <path
               id="path11071"
               d="m 1.71875,-3.984375 1.4375,0 0,-0.3125 -1.4375,0 0,-1.828125 -0.25,0 c 0,0.8125 -0.296875,1.875 -1.28125,1.921875 l 0,0.21875 0.84375,0 0,2.75 c 0,1.21875 0.9375,1.34375 1.296875,1.34375 0.703125,0 0.984375,-0.703125 0.984375,-1.34375 l 0,-0.5625 -0.25,0 0,0.546875 c 0,0.734375 -0.296875,1.109375 -0.671875,1.109375 -0.671875,0 -0.671875,-0.90625 -0.671875,-1.078125 z m 0,0"
               style="stroke:none"
               inkscape:connector-curvature="0" />
          </symbol>
          <symbol
             id="textext-e645fd6d-5"
             overflow="visible"
             style="overflow:visible">
            <path
               id="path11074"
               d="m 3.890625,-0.78125 0,0.890625 L 5.328125,0 l 0,-0.3125 C 4.640625,-0.3125 4.5625,-0.375 4.5625,-0.875 l 0,-3.53125 -1.46875,0.109375 0,0.3125 c 0.6875,0 0.78125,0.0625 0.78125,0.5625 l 0,1.765625 c 0,0.875 -0.484375,1.546875 -1.21875,1.546875 -0.828125,0 -0.875,-0.46875 -0.875,-0.984375 l 0,-3.3125 -1.46875,0.109375 0,0.3125 c 0.78125,0 0.78125,0.03125 0.78125,0.90625 l 0,1.5 c 0,0.78125 0,1.6875 1.515625,1.6875 0.5625,0 1,-0.28125 1.28125,-0.890625 z m 0,0"
               style="stroke:none"
               inkscape:connector-curvature="0" />
          </symbol>
          <symbol
             id="textext-e645fd6d-6"
             overflow="visible"
             style="overflow:visible">
            <path
               id="path11077"
               d="m 1.671875,-3.3125 0,-1.09375 -1.390625,0.109375 0,0.3125 c 0.703125,0 0.78125,0.0625 0.78125,0.5625 l 0,2.671875 c 0,0.4375 -0.109375,0.4375 -0.78125,0.4375 l 0,0.3125 c 0.390625,-0.015625 0.859375,-0.03125 1.140625,-0.03125 0.390625,0 0.859375,0 1.265625,0.03125 l 0,-0.3125 -0.21875,0 c -0.734375,0 -0.75,-0.109375 -0.75,-0.46875 l 0,-1.53125 c 0,-0.984375 0.421875,-1.875 1.171875,-1.875 0.0625,0 0.09375,0 0.109375,0.015625 -0.03125,0 -0.234375,0.125 -0.234375,0.390625 0,0.265625 0.21875,0.421875 0.4375,0.421875 0.171875,0 0.421875,-0.125 0.421875,-0.4375 0,-0.3125 -0.3125,-0.609375 -0.734375,-0.609375 -0.734375,0 -1.09375,0.671875 -1.21875,1.09375 z m 0,0"
               style="stroke:none"
               inkscape:connector-curvature="0" />
          </symbol>
          <symbol
             id="textext-e645fd6d-7"
             overflow="visible"
             style="overflow:visible">
            <path
               id="path11080"
               d="m 2.21875,-3.65625 0,-2.4375 C 2.21875,-6.4375 2.234375,-6.5 2.703125,-6.5 l 1.234375,0 c 0.96875,0 1.3125,0.84375 1.3125,1.375 0,0.640625 -0.484375,1.46875 -1.59375,1.46875 z M 4.5625,-3.5625 C 5.53125,-3.75 6.21875,-4.390625 6.21875,-5.125 6.21875,-5.984375 5.296875,-6.8125 4,-6.8125 l -3.640625,0 0,0.3125 0.234375,0 c 0.765625,0 0.796875,0.109375 0.796875,0.46875 l 0,5.25 c 0,0.359375 -0.03125,0.46875 -0.796875,0.46875 l -0.234375,0 0,0.3125 3.90625,0 c 1.328125,0 2.21875,-0.890625 2.21875,-1.828125 0,-0.859375 -0.8125,-1.609375 -1.921875,-1.734375 z m -0.609375,3.25 -1.25,0 c -0.46875,0 -0.484375,-0.0625 -0.484375,-0.390625 l 0,-2.71875 1.875,0 C 5.078125,-3.421875 5.5,-2.5 5.5,-1.828125 5.5,-1.125 4.96875,-0.3125 3.953125,-0.3125 z m 0,0"
               style="stroke:none"
               inkscape:connector-curvature="0" />
          </symbol>
        </g>
      </defs>
      <g
         id="textext-e645fd6d-8">
        <g
           id="g11083"
           style="fill:#000000;fill-opacity:1">
          <use
             id="use11085"
             y="134.765"
             x="223.43201"
             xlink:href="#textext-e645fd6d-1"
             width="408.83246"
             height="234.43994" />
          <use
             id="use11087"
             y="134.765"
             x="226.47658"
             xlink:href="#textext-e645fd6d-2"
             width="408.83246"
             height="234.43994" />
          <use
             id="use11089"
             y="134.765"
             x="230.90395"
             xlink:href="#textext-e645fd6d-3"
             width="408.83246"
             height="234.43994" />
          <use
             id="use11091"
             y="134.765"
             x="235.88525"
             xlink:href="#textext-e645fd6d-4"
             width="408.83246"
             height="234.43994" />
          <use
             id="use11093"
             y="134.765"
             x="239.7597"
             xlink:href="#textext-e645fd6d-5"
             width="408.83246"
             height="234.43994" />
          <use
             id="use11095"
             y="134.765"
             x="245.29492"
             xlink:href="#textext-e645fd6d-6"
             width="408.83246"
             height="234.43994" />
          <use
             id="use11097"
             y="134.765"
             x="249.19728"
             xlink:href="#textext-e645fd6d-2"
             width="408.83246"
             height="234.43994" />
        </g>
        <g
           id="g11099"
           style="fill:#000000;fill-opacity:1">
          <use
             id="use11101"
             y="134.765"
             x="256.9422"
             xlink:href="#textext-e645fd6d-7"
             width="408.83246"
             height="234.43994" />
        </g>
      </g>
    </g>
    <g
       ns0:text="feature A"
       ns0:preamble=""
       transform="matrix(1.5,0,0,1.5,130.84014,444.65095)"
       id="g11443">
      <defs
         id="defs11445">
        <g
           id="g11447">
          <symbol
             overflow="visible"
             id="textext-83244d17-0"
             style="overflow:visible">
            <path
               style="stroke:none"
               d=""
               id="path11450"
               inkscape:connector-curvature="0" />
          </symbol>
          <symbol
             overflow="visible"
             id="textext-83244d17-1"
             style="overflow:visible">
            <path
               style="stroke:none"
               d="m 1.75,-4.296875 0,-1.15625 c 0,-0.875 0.46875,-1.359375 0.90625,-1.359375 0.03125,0 0.1875,0 0.328125,0.078125 C 2.875,-6.703125 2.6875,-6.5625 2.6875,-6.3125 c 0,0.21875 0.15625,0.421875 0.4375,0.421875 0.28125,0 0.4375,-0.203125 0.4375,-0.4375 0,-0.375 -0.375,-0.703125 -0.90625,-0.703125 -0.6875,0 -1.546875,0.53125 -1.546875,1.59375 l 0,1.140625 -0.78125,0 0,0.3125 0.78125,0 0,3.234375 c 0,0.4375 -0.109375,0.4375 -0.765625,0.4375 l 0,0.3125 c 0.390625,-0.015625 0.859375,-0.03125 1.125,-0.03125 0.40625,0 0.875,0 1.265625,0.03125 l 0,-0.3125 -0.203125,0 c -0.734375,0 -0.75,-0.109375 -0.75,-0.46875 l 0,-3.203125 1.125,0 0,-0.3125 z m 0,0"
               id="path11453"
               inkscape:connector-curvature="0" />
          </symbol>
          <symbol
             overflow="visible"
             id="textext-83244d17-2"
             style="overflow:visible">
            <path
               style="stroke:none"
               d="M 1.109375,-2.515625 C 1.171875,-4 2.015625,-4.25 2.359375,-4.25 c 1.015625,0 1.125,1.34375 1.125,1.734375 z m 0,0.21875 2.78125,0 c 0.21875,0 0.25,0 0.25,-0.21875 0,-0.984375 -0.546875,-1.953125 -1.78125,-1.953125 -1.15625,0 -2.078125,1.03125 -2.078125,2.28125 0,1.328125 1.046875,2.296875 2.1875,2.296875 C 3.6875,0.109375 4.140625,-1 4.140625,-1.1875 4.140625,-1.28125 4.0625,-1.3125 4,-1.3125 c -0.078125,0 -0.109375,0.0625 -0.125,0.140625 -0.34375,1.03125 -1.25,1.03125 -1.34375,1.03125 -0.5,0 -0.890625,-0.296875 -1.125,-0.671875 -0.296875,-0.46875 -0.296875,-1.125 -0.296875,-1.484375 z m 0,0"
               id="path11456"
               inkscape:connector-curvature="0" />
          </symbol>
          <symbol
             overflow="visible"
             id="textext-83244d17-3"
             style="overflow:visible">
            <path
               style="stroke:none"
               d="m 3.3125,-0.75 c 0.046875,0.390625 0.3125,0.8125 0.78125,0.8125 0.21875,0 0.828125,-0.140625 0.828125,-0.953125 l 0,-0.5625 -0.25,0 0,0.5625 c 0,0.578125 -0.25,0.640625 -0.359375,0.640625 -0.328125,0 -0.375,-0.453125 -0.375,-0.5 l 0,-1.984375 c 0,-0.421875 0,-0.8125 -0.359375,-1.1875 C 3.1875,-4.3125 2.6875,-4.46875 2.21875,-4.46875 c -0.828125,0 -1.515625,0.46875 -1.515625,1.125 0,0.296875 0.203125,0.46875 0.46875,0.46875 0.28125,0 0.453125,-0.203125 0.453125,-0.453125 0,-0.125 -0.046875,-0.453125 -0.515625,-0.453125 C 1.390625,-4.140625 1.875,-4.25 2.1875,-4.25 c 0.5,0 1.0625,0.390625 1.0625,1.28125 l 0,0.359375 c -0.515625,0.03125 -1.203125,0.0625 -1.828125,0.359375 -0.75,0.34375 -1,0.859375 -1,1.296875 0,0.8125 0.96875,1.0625 1.59375,1.0625 0.65625,0 1.109375,-0.40625 1.296875,-0.859375 z M 3.25,-2.390625 l 0,1 c 0,0.9375 -0.71875,1.28125 -1.171875,1.28125 -0.484375,0 -0.890625,-0.34375 -0.890625,-0.84375 0,-0.546875 0.421875,-1.375 2.0625,-1.4375 z m 0,0"
               id="path11459"
               inkscape:connector-curvature="0" />
          </symbol>
          <symbol
             overflow="visible"
             id="textext-83244d17-4"
             style="overflow:visible">
            <path
               style="stroke:none"
               d="m 1.71875,-3.984375 1.4375,0 0,-0.3125 -1.4375,0 0,-1.828125 -0.25,0 c 0,0.8125 -0.296875,1.875 -1.28125,1.921875 l 0,0.21875 0.84375,0 0,2.75 c 0,1.21875 0.9375,1.34375 1.296875,1.34375 0.703125,0 0.984375,-0.703125 0.984375,-1.34375 l 0,-0.5625 -0.25,0 0,0.546875 c 0,0.734375 -0.296875,1.109375 -0.671875,1.109375 -0.671875,0 -0.671875,-0.90625 -0.671875,-1.078125 z m 0,0"
               id="path11462"
               inkscape:connector-curvature="0" />
          </symbol>
          <symbol
             overflow="visible"
             id="textext-83244d17-5"
             style="overflow:visible">
            <path
               style="stroke:none"
               d="m 3.890625,-0.78125 0,0.890625 L 5.328125,0 l 0,-0.3125 C 4.640625,-0.3125 4.5625,-0.375 4.5625,-0.875 l 0,-3.53125 -1.46875,0.109375 0,0.3125 c 0.6875,0 0.78125,0.0625 0.78125,0.5625 l 0,1.765625 c 0,0.875 -0.484375,1.546875 -1.21875,1.546875 -0.828125,0 -0.875,-0.46875 -0.875,-0.984375 l 0,-3.3125 -1.46875,0.109375 0,0.3125 c 0.78125,0 0.78125,0.03125 0.78125,0.90625 l 0,1.5 c 0,0.78125 0,1.6875 1.515625,1.6875 0.5625,0 1,-0.28125 1.28125,-0.890625 z m 0,0"
               id="path11465"
               inkscape:connector-curvature="0" />
          </symbol>
          <symbol
             overflow="visible"
             id="textext-83244d17-6"
             style="overflow:visible">
            <path
               style="stroke:none"
               d="m 1.671875,-3.3125 0,-1.09375 -1.390625,0.109375 0,0.3125 c 0.703125,0 0.78125,0.0625 0.78125,0.5625 l 0,2.671875 c 0,0.4375 -0.109375,0.4375 -0.78125,0.4375 l 0,0.3125 c 0.390625,-0.015625 0.859375,-0.03125 1.140625,-0.03125 0.390625,0 0.859375,0 1.265625,0.03125 l 0,-0.3125 -0.21875,0 c -0.734375,0 -0.75,-0.109375 -0.75,-0.46875 l 0,-1.53125 c 0,-0.984375 0.421875,-1.875 1.171875,-1.875 0.0625,0 0.09375,0 0.109375,0.015625 -0.03125,0 -0.234375,0.125 -0.234375,0.390625 0,0.265625 0.21875,0.421875 0.4375,0.421875 0.171875,0 0.421875,-0.125 0.421875,-0.4375 0,-0.3125 -0.3125,-0.609375 -0.734375,-0.609375 -0.734375,0 -1.09375,0.671875 -1.21875,1.09375 z m 0,0"
               id="path11468"
               inkscape:connector-curvature="0" />
          </symbol>
          <symbol
             overflow="visible"
             id="textext-83244d17-7"
             style="overflow:visible">
            <path
               style="stroke:none"
               d="m 3.96875,-6.9375 c -0.046875,-0.125 -0.078125,-0.203125 -0.234375,-0.203125 -0.15625,0 -0.1875,0.0625 -0.234375,0.203125 L 1.4375,-0.984375 C 1.25,-0.46875 0.859375,-0.3125 0.3125,-0.3125 l 0,0.3125 c 0.234375,-0.015625 0.671875,-0.03125 1.015625,-0.03125 0.3125,0 0.828125,0.015625 1.15625,0.03125 l 0,-0.3125 c -0.5,0 -0.75,-0.25 -0.75,-0.5 0,-0.03125 0.015625,-0.140625 0.015625,-0.15625 l 0.46875,-1.296875 2.453125,0 0.53125,1.515625 c 0.015625,0.046875 0.03125,0.109375 0.03125,0.140625 0,0.296875 -0.5625,0.296875 -0.828125,0.296875 l 0,0.3125 c 0.359375,-0.03125 1.0625,-0.03125 1.4375,-0.03125 0.421875,0 0.890625,0.015625 1.296875,0.03125 l 0,-0.3125 -0.171875,0 C 6.375,-0.3125 6.234375,-0.375 6.125,-0.703125 z m -0.53125,1.109375 1.125,3.25 -2.234375,0 z m 0,0"
               id="path11471"
               inkscape:connector-curvature="0" />
          </symbol>
        </g>
      </defs>
      <g
         id="textext-83244d17-8">
        <g
           style="fill:#000000;fill-opacity:1"
           id="g11474">
          <use
             xlink:href="#textext-83244d17-1"
             x="223.43201"
             y="134.765"
             id="use11476"
             width="408.83246"
             height="234.43994" />
          <use
             xlink:href="#textext-83244d17-2"
             x="226.47658"
             y="134.765"
             id="use11478"
             width="408.83246"
             height="234.43994" />
          <use
             xlink:href="#textext-83244d17-3"
             x="230.90395"
             y="134.765"
             id="use11480"
             width="408.83246"
             height="234.43994" />
          <use
             xlink:href="#textext-83244d17-4"
             x="235.88525"
             y="134.765"
             id="use11482"
             width="408.83246"
             height="234.43994" />
          <use
             xlink:href="#textext-83244d17-5"
             x="239.7597"
             y="134.765"
             id="use11484"
             width="408.83246"
             height="234.43994" />
          <use
             xlink:href="#textext-83244d17-6"
             x="245.29492"
             y="134.765"
             id="use11486"
             width="408.83246"
             height="234.43994" />
          <use
             xlink:href="#textext-83244d17-2"
             x="249.19728"
             y="134.765"
             id="use11488"
             width="408.83246"
             height="234.43994" />
        </g>
        <g
           style="fill:#000000;fill-opacity:1"
           id="g11490">
          <use
             xlink:href="#textext-83244d17-7"
             x="256.9422"
             y="134.765"
             id="use11492"
             width="408.83246"
             height="234.43994" />
        </g>
      </g>
    </g>
    <g
       id="g11864"
       ns0:preamble=""
       ns0:text="new"
       transform="matrix(1.5,0,0,1.5,7.8466296,379.56174)">
      <defs
         id="defs11866">
        <g
           id="g11868">
          <symbol
             id="textext-d2feb48d-0"
             overflow="visible"
             style="overflow:visible">
            <path
               id="path11871"
               d=""
               style="stroke:none"
               inkscape:connector-curvature="0" />
          </symbol>
          <symbol
             id="textext-d2feb48d-1"
             overflow="visible"
             style="overflow:visible">
            <path
               id="path11874"
               d="m 1.09375,-3.421875 0,2.671875 c 0,0.4375 -0.109375,0.4375 -0.78125,0.4375 l 0,0.3125 c 0.359375,-0.015625 0.859375,-0.03125 1.140625,-0.03125 0.25,0 0.765625,0.015625 1.109375,0.03125 l 0,-0.3125 c -0.671875,0 -0.78125,0 -0.78125,-0.4375 l 0,-1.84375 C 1.78125,-3.625 2.5,-4.1875 3.125,-4.1875 c 0.640625,0 0.75,0.53125 0.75,1.109375 l 0,2.328125 c 0,0.4375 -0.109375,0.4375 -0.78125,0.4375 l 0,0.3125 c 0.34375,-0.015625 0.859375,-0.03125 1.125,-0.03125 0.25,0 0.78125,0.015625 1.109375,0.03125 l 0,-0.3125 c -0.515625,0 -0.765625,0 -0.765625,-0.296875 l 0,-1.90625 c 0,-0.859375 0,-1.15625 -0.3125,-1.515625 -0.140625,-0.171875 -0.46875,-0.375 -1.046875,-0.375 C 2.46875,-4.40625 2,-3.984375 1.71875,-3.359375 l 0,-1.046875 -1.40625,0.109375 0,0.3125 c 0.703125,0 0.78125,0.0625 0.78125,0.5625 z m 0,0"
               style="stroke:none"
               inkscape:connector-curvature="0" />
          </symbol>
          <symbol
             id="textext-d2feb48d-2"
             overflow="visible"
             style="overflow:visible">
            <path
               id="path11877"
               d="M 1.109375,-2.515625 C 1.171875,-4 2.015625,-4.25 2.359375,-4.25 c 1.015625,0 1.125,1.34375 1.125,1.734375 z m 0,0.21875 2.78125,0 c 0.21875,0 0.25,0 0.25,-0.21875 0,-0.984375 -0.546875,-1.953125 -1.78125,-1.953125 -1.15625,0 -2.078125,1.03125 -2.078125,2.28125 0,1.328125 1.046875,2.296875 2.1875,2.296875 C 3.6875,0.109375 4.140625,-1 4.140625,-1.1875 4.140625,-1.28125 4.0625,-1.3125 4,-1.3125 c -0.078125,0 -0.109375,0.0625 -0.125,0.140625 -0.34375,1.03125 -1.25,1.03125 -1.34375,1.03125 -0.5,0 -0.890625,-0.296875 -1.125,-0.671875 -0.296875,-0.46875 -0.296875,-1.125 -0.296875,-1.484375 z m 0,0"
               style="stroke:none"
               inkscape:connector-curvature="0" />
          </symbol>
          <symbol
             id="textext-d2feb48d-3"
             overflow="visible"
             style="overflow:visible">
            <path
               id="path11880"
               d="m 6.171875,-3.34375 c 0.171875,-0.5 0.484375,-0.640625 0.84375,-0.640625 l 0,-0.3125 C 6.78125,-4.28125 6.5,-4.265625 6.28125,-4.265625 c -0.296875,0 -0.734375,-0.015625 -0.921875,-0.03125 l 0,0.3125 c 0.359375,0 0.578125,0.1875 0.578125,0.46875 0,0.0625 0,0.09375 -0.0625,0.21875 L 4.96875,-0.75 3.984375,-3.53125 C 3.953125,-3.65625 3.9375,-3.671875 3.9375,-3.71875 c 0,-0.265625 0.390625,-0.265625 0.59375,-0.265625 l 0,-0.3125 c -0.296875,0.015625 -0.796875,0.03125 -1.046875,0.03125 -0.296875,0 -0.578125,-0.015625 -0.875,-0.03125 l 0,0.3125 c 0.359375,0 0.515625,0.015625 0.625,0.140625 0.046875,0.0625 0.15625,0.359375 0.21875,0.546875 L 2.609375,-0.875 1.65625,-3.53125 C 1.609375,-3.65625 1.609375,-3.671875 1.609375,-3.71875 1.609375,-3.984375 2,-3.984375 2.1875,-3.984375 l 0,-0.3125 c -0.296875,0.015625 -0.859375,0.03125 -1.078125,0.03125 -0.046875,0 -0.578125,-0.015625 -0.9375,-0.03125 l 0,0.3125 c 0.5,0 0.625,0.03125 0.75,0.34375 l 1.25,3.53125 C 2.21875,0.03125 2.25,0.109375 2.375,0.109375 c 0.140625,0 0.15625,-0.0625 0.203125,-0.203125 l 1.015625,-2.8125 1.015625,2.828125 c 0.03125,0.109375 0.0625,0.1875 0.203125,0.1875 0.125,0 0.15625,-0.09375 0.1875,-0.1875 z m 0,0"
               style="stroke:none"
               inkscape:connector-curvature="0" />
          </symbol>
        </g>
      </defs>
      <g
         id="textext-d2feb48d-4">
        <g
           id="g11883"
           style="fill:#000000;fill-opacity:1">
          <use
             id="use11885"
             y="134.765"
             x="223.43201"
             xlink:href="#textext-d2feb48d-1"
             width="408.83246"
             height="234.43994" />
          <use
             id="use11887"
             y="134.765"
             x="228.96722"
             xlink:href="#textext-d2feb48d-2"
             width="408.83246"
             height="234.43994" />
          <use
             id="use11889"
             y="134.765"
             x="233.39461"
             xlink:href="#textext-d2feb48d-3"
             width="408.83246"
             height="234.43994" />
        </g>
      </g>
    </g>
  </g>
</svg>
